<svg width="15" height="15" viewBox="0 0 15 15" fill="none" xmlns="http://www.w3.org/2000/svg">
<path d="M10.6427 14.8261H4.2576C1.9298 14.8261 0.0371094 12.9334 0.0371094 10.6056V4.2205C0.0371094 1.8927 1.9298 0 4.2576 0H10.6427C12.9705 0 14.8632 1.8927 14.8632 4.2205V10.6056C14.8632 12.9334 12.9705 14.8261 10.6427 14.8261ZM4.2576 1.2618C2.62597 1.2618 1.30978 2.58886 1.30978 4.20962V10.5948C1.30978 12.2264 2.63685 13.5426 4.2576 13.5426H10.6427C12.2744 13.5426 13.5906 12.2155 13.5906 10.5948V4.2205C13.5906 2.58886 12.2635 1.27268 10.6427 1.27268H4.2576V1.2618Z" fill="black"/>
<path d="M7.45643 11.2039C5.36793 11.2039 3.66016 9.49609 3.66016 7.4076C3.66016 5.31911 5.36793 3.61133 7.45643 3.61133C9.54492 3.61133 11.2527 5.31911 11.2527 7.4076C11.2527 9.50697 9.54492 11.2039 7.45643 11.2039ZM7.45643 4.884C6.0641 4.884 4.93283 6.01527 4.93283 7.4076C4.93283 8.79993 6.0641 9.9312 7.45643 9.9312C8.84875 9.9312 9.98002 8.79993 9.98002 7.4076C9.98002 6.01527 8.84875 4.884 7.45643 4.884Z" fill="black"/>
<path d="M12.3177 3.39394C12.3177 3.89431 11.9043 4.30766 11.4039 4.30766C10.9036 4.30766 10.4902 3.89431 10.4902 3.39394C10.4902 2.89357 10.9036 2.48022 11.4039 2.48022C11.9152 2.48022 12.3177 2.89357 12.3177 3.39394Z" fill="black"/>
</svg>
