<svg width="18" height="17" viewBox="0 0 18 17" fill="none" xmlns="http://www.w3.org/2000/svg">
<path d="M1.20504 16.4324H4.66332V6.0234H1.20504V16.4324ZM2.96152 1C1.7723 1 1 1.77914 1 2.80432C1 3.80217 1.7518 4.60181 2.91367 4.60181H2.93418C4.14389 4.60181 4.89569 3.80217 4.89569 2.80432C4.87519 1.77914 4.14389 1 2.96152 1ZM17.15 10.4659V16.4392H13.6849V10.8691C13.6849 9.46801 13.186 8.51801 11.9284 8.51801C10.9716 8.51801 10.4043 9.16045 10.1515 9.7824C10.0626 10.0079 10.0353 10.3155 10.0353 10.623V16.4392H6.58383C6.58383 16.4392 6.63167 7.00074 6.58383 6.0234H10.0489V7.49966L10.0284 7.53383H10.0489V7.49966C10.5069 6.78886 11.327 5.77735 13.1655 5.77735C15.4414 5.77735 17.15 7.26728 17.15 10.4659Z" stroke="black"/>
</svg>
