<svg width="69" height="53" viewBox="0 0 69 53" fill="none" xmlns="http://www.w3.org/2000/svg">
<path d="M45.9823 5.8683C43.2909 9.78513 41.5219 16.4086 41.5219 23.9207C41.5219 31.4328 43.2909 38.0574 45.9823 41.9732L55.6838 45.2971L48.5 37L47.5 25L49.5 9L55.6838 2.54437L45.9823 5.8683Z" fill="#8AA399" fill-opacity="0.81"/>
<path d="M57.4042 0.963989C56.692 0.965259 55.985 1.09406 55.3123 1.34511L13.7444 15.6164C13.0961 14.7469 12.2792 14.0397 11.3507 13.5438C10.4222 13.048 9.40436 12.7754 8.3679 12.745C3.93783 12.7456 0.333252 17.7768 0.333252 23.9617C0.333252 30.1466 3.93783 35.1778 8.36839 35.1778C9.40486 35.1475 10.4228 34.875 11.3513 34.3791C12.2798 33.8832 13.0966 33.1759 13.7449 32.3064L18.2265 33.8449V35.111C18.2234 35.272 18.2503 35.4321 18.3055 35.5819C18.3607 35.7317 18.4432 35.8681 18.5481 35.9832C18.653 36.0983 18.7782 36.1897 18.9164 36.2521C19.0546 36.3145 19.203 36.3467 19.353 36.3467C19.5029 36.3467 19.6513 36.3145 19.7895 36.2521C19.9277 36.1897 20.0529 36.0983 20.1578 35.9832C20.2627 35.8681 20.3452 35.7317 20.4004 35.5819C20.4557 35.4321 20.4825 35.272 20.4794 35.111V34.617L38.5505 40.8216C38.3464 43.3204 37.252 45.638 35.4958 47.2905C33.7396 48.9431 31.4572 49.8029 29.1252 49.6905C26.7931 49.5781 24.5916 48.5022 22.9801 46.6874C21.3686 44.8726 20.4716 42.459 20.4765 39.9506C20.4704 39.6339 20.3491 39.3324 20.1385 39.1107C19.9279 38.8891 19.6449 38.7649 19.3501 38.7649C19.0553 38.7649 18.7723 38.8891 18.5617 39.1107C18.3511 39.3324 18.2297 39.6339 18.2236 39.9506C18.2237 43.0322 19.3134 45.9987 21.2722 48.2494C23.2311 50.5001 25.9127 51.8669 28.774 52.073C31.6354 52.2792 34.4627 51.3093 36.6837 49.3597C38.9046 47.41 40.3531 44.6264 40.7359 41.5724L55.3079 46.5757C55.9814 46.8272 56.6893 46.9561 57.4023 46.9573C63.7185 46.9573 68.6666 36.8555 68.6666 23.9601C68.6666 11.0647 63.7204 0.963989 57.4042 0.963989ZM46.4213 40.9862C43.8899 37.0911 42.3854 30.7695 42.3854 23.9637C42.3834 22.0303 42.5075 20.0991 42.757 18.1843C42.7989 17.8664 42.7216 17.5437 42.5421 17.2871C42.3625 17.0305 42.0955 16.861 41.7997 16.8159C41.5039 16.7709 41.2035 16.854 40.9647 17.0469C40.7259 17.2398 40.5682 17.5267 40.5263 17.8446C40.2619 19.8719 40.1302 21.9166 40.1321 23.9637C40.1321 29.9653 41.2573 35.663 43.2138 39.8853L40.0559 38.801L40.0449 38.7974L19.6925 31.8078L19.6823 31.8041L13.7015 29.7494L13.6904 29.7458L8.37224 27.9199L8.3361 27.908C7.90239 27.776 7.09233 26.3028 7.09233 23.9606C7.09233 21.6185 7.90191 20.1448 8.3361 20.0133L8.37224 20.0013L13.6914 18.175L13.701 18.1713L43.2143 8.0406C42.5098 9.58046 41.938 11.1864 41.506 12.8383C41.4653 12.9911 41.4531 13.151 41.4699 13.309C41.4868 13.4669 41.5324 13.6197 41.6043 13.7586C41.6761 13.8976 41.7727 14.02 41.8885 14.1189C42.0043 14.2177 42.1372 14.2911 42.2794 14.3348C42.4216 14.3785 42.5705 14.3916 42.7174 14.3735C42.8644 14.3554 43.0066 14.3063 43.1359 14.2292C43.2653 14.152 43.3792 14.0482 43.4712 13.9237C43.5632 13.7992 43.6314 13.6565 43.6721 13.5037C44.2519 11.1707 45.1796 8.95401 46.4189 6.9397L50.6051 5.50222C47.8757 9.66088 46.1384 16.3206 46.1384 23.9617C46.1384 31.6027 47.8733 38.2625 50.6051 42.4211L46.4213 40.9862ZM8.36839 32.7569C5.18016 32.7569 2.58563 28.8111 2.58563 23.9617C2.58563 19.1122 5.17968 15.1664 8.36839 15.1664C9.4719 15.1879 10.5303 15.6408 11.3455 16.4403L7.70144 17.6913C6.01481 18.2221 4.83898 20.7952 4.83898 23.9617C4.83898 27.1282 6.01529 29.7013 7.70192 30.232L11.346 31.4831C10.5307 32.2827 9.47208 32.7356 8.36839 32.7569ZM57.4042 44.538C57.0268 44.5374 56.6512 44.4818 56.2876 44.3728L56.2688 44.365L55.9484 44.2553C51.727 42.6122 48.3927 33.9868 48.3927 23.9617C48.3927 13.9366 51.7275 5.30907 55.9498 3.66756L56.2688 3.5583L56.2872 3.55105C56.6508 3.44181 57.0266 3.38607 57.4042 3.38534C62.2887 3.38534 66.4157 12.8098 66.4157 23.9622C66.4157 35.1146 62.2887 44.538 57.4042 44.538Z" fill="black"/>
</svg>
