<svg width="69" height="68" viewBox="0 0 69 68" fill="none" xmlns="http://www.w3.org/2000/svg">
<path d="M63.1134 6.46217H60.6544V5.21379C60.6544 3.31068 59.0834 1.76239 57.1523 1.76239C55.2212 1.76239 53.6501 3.31068 53.6501 5.21379V6.46217H15.3499V5.21379C15.3499 3.31068 13.7788 1.76239 11.8477 1.76239C9.91663 1.76239 8.34557 3.31068 8.34557 5.21379V6.46217H5.88661C2.64078 6.46217 0 9.06468 0 12.2635V60.4363C0 63.6351 2.64078 66.2376 5.88661 66.2376H63.1134C66.3592 66.2376 69 63.6351 69 60.4363V12.2635C69 9.06468 66.3592 6.46217 63.1134 6.46217ZM55.8855 5.21379C55.8855 4.52542 56.4538 3.96541 57.1523 3.96541C57.8508 3.96541 58.419 4.52542 58.419 5.21379V7.55517C58.419 7.55811 58.4186 7.56075 58.4186 7.56369C58.4186 7.56662 58.419 7.56927 58.419 7.5722V9.91358C58.419 10.6019 57.8508 11.162 57.1523 11.162C56.4538 11.162 55.8855 10.6019 55.8855 9.91358V5.21379ZM11.8477 3.96541C12.5462 3.96541 13.1145 4.52542 13.1145 5.21379V9.91358C13.1145 10.6019 12.5462 11.162 11.8477 11.162C11.1492 11.162 10.581 10.6019 10.581 9.91358V7.5722C10.581 7.56927 10.5814 7.56662 10.5814 7.56369C10.5814 7.56075 10.581 7.55811 10.581 7.55517V5.21379C10.581 4.52542 11.1492 3.96541 11.8477 3.96541ZM63.1134 64.0345H5.88661C3.87324 64.0345 2.23542 62.4204 2.23542 60.4363V18.0648H10.6552C11.2726 18.0648 11.7729 17.5717 11.7729 16.9633C11.7729 16.3548 11.2726 15.8617 10.6552 15.8617H2.23542V12.2635C2.23542 10.2793 3.87324 8.6652 5.88661 8.6652H8.34557V9.91358C8.34557 11.8167 9.91663 13.365 11.8477 13.365C13.7788 13.365 15.3499 11.8167 15.3499 9.91358V8.6652H53.6501V9.91358C53.6501 11.8167 55.2212 13.365 57.1523 13.365C59.0834 13.365 60.6544 11.8167 60.6544 9.91358V8.6652H63.1134C65.1268 8.6652 66.7646 10.2793 66.7646 12.2635V15.8617H60.7294C60.112 15.8617 59.6117 16.3548 59.6117 16.9633C59.6117 17.5717 60.112 18.0648 60.7294 18.0648H66.7646V60.4363C66.7646 62.4204 65.1268 64.0345 63.1134 64.0345Z" fill="black"/>
<path d="M55.9597 15.8618H53.5757C52.9583 15.8618 52.458 16.3548 52.458 16.9633C52.458 17.5717 52.9583 18.0648 53.5757 18.0648H55.9597C56.5771 18.0648 57.0774 17.5717 57.0774 16.9633C57.0774 16.3548 56.5771 15.8618 55.9597 15.8618Z" fill="black"/>
<path d="M49.9246 16.9633C49.9246 16.3548 49.4243 15.8618 48.8069 15.8618H15.424C14.8066 15.8618 14.3063 16.3548 14.3063 16.9633C14.3063 17.5717 14.8066 18.0648 15.424 18.0648H48.8069C49.4243 18.0648 49.9246 17.5717 49.9246 16.9633Z" fill="black"/>
<path d="M49.2197 34.6259H40.8339C40.4644 34.6259 40.1397 34.3933 40.0256 34.0473L37.4343 26.1875C37.0135 24.9112 35.8619 24.0864 34.5 24.0864C33.1382 24.0864 31.9865 24.911 31.5657 26.1875L28.9744 34.0473C28.8602 34.3933 28.5355 34.6259 28.166 34.6259H19.7802C18.4184 34.6259 17.2667 35.4506 16.8459 36.727C16.4252 38.0033 16.8651 39.3378 17.9667 40.1264L24.7508 44.984C25.0496 45.1979 25.1737 45.5744 25.0596 45.9205L22.4681 53.7802C22.0474 55.0565 22.4873 56.3909 23.5889 57.1797C24.6906 57.9686 26.1145 57.9686 27.216 57.1797L34 52.3222C34.299 52.1082 34.7003 52.1082 34.9993 52.3222L41.7833 57.1797C42.3341 57.5742 42.9656 57.7713 43.5969 57.7713C44.2281 57.7713 44.8596 57.5741 45.4104 57.1797C46.5121 56.3909 46.9521 55.0565 46.5312 53.7802L43.9398 45.9205C43.8256 45.5744 43.9498 45.1979 44.2486 44.984L51.0326 40.1264C52.1344 39.3378 52.5743 38.0033 52.1535 36.727C51.7333 35.4506 50.5815 34.6259 49.2197 34.6259ZM49.7194 38.3442L42.9353 43.2017C41.8505 43.9783 41.4 45.3447 41.8145 46.6011L44.4059 54.4608C44.583 54.9979 44.2143 55.3135 44.0972 55.3974C43.9802 55.4814 43.5618 55.7297 43.0979 55.3975L36.3139 50.54C35.7714 50.1515 35.1359 49.9574 34.5003 49.9574C33.8647 49.9574 33.2293 50.1515 32.6868 50.54L25.9028 55.3975C25.4388 55.7297 25.0207 55.4814 24.9035 55.3974C24.7864 55.3135 24.4177 54.9979 24.5947 54.4608L27.1857 46.6013C27.6 45.3447 27.1497 43.9785 26.0649 43.2019L19.2808 38.3443C18.8174 38.0124 18.9273 37.5436 18.9722 37.4079C19.0169 37.272 19.2075 36.8291 19.7805 36.8291H28.1663C29.507 36.8291 30.6863 35.9847 31.1006 34.728L33.6919 26.8683C33.8689 26.3312 34.3555 26.2895 34.5003 26.2895C34.6452 26.2895 35.1316 26.3312 35.3088 26.8682L37.9001 34.728C38.3144 35.9847 39.4937 36.8291 40.8343 36.8291H49.2201C49.7931 36.8291 49.9838 37.2722 50.0285 37.4079C50.0729 37.5435 50.1829 38.0123 49.7194 38.3442Z" fill="#8AA399" fill-opacity="0.81"/>
<path d="M39.9236 39.5541C38.1746 40.8945 37.0775 42.9088 36.9136 45.0804C36.8441 46.0001 36.9414 46.9176 37.2024 47.8076C37.3438 48.2898 37.7904 48.6035 38.2755 48.6035C38.3782 48.6035 38.483 48.5894 38.5866 48.5599C39.1795 48.391 39.5213 47.7802 39.3499 47.1958C39.1627 46.5581 39.0931 45.9014 39.1427 45.2439C39.2599 43.6921 40.0448 42.2521 41.2959 41.293C41.7832 40.9195 41.8708 40.2275 41.4919 39.7474C41.1132 39.267 40.4111 39.1806 39.9236 39.5541Z" fill="black"/>
</svg>
