<svg width="69" height="66" viewBox="0 0 69 66" fill="none" xmlns="http://www.w3.org/2000/svg">
<path d="M67.9106 24.64C68.5124 24.64 69 24.1734 69 23.5979V21.2622C69 18.8462 66.945 16.8806 64.4192 16.8806H57.8143C54.3316 13.1332 49.368 10.9941 44.1145 10.9941C38.8607 10.9941 33.8969 13.1333 30.4146 16.8806H19.1385H18.8323V15.3318C18.8323 13.8378 17.5616 12.6224 15.9996 12.6224H7.71964C6.15758 12.6224 4.88701 13.8378 4.88701 15.3318V16.8806H4.58068C2.05491 16.8805 0 18.8461 0 21.262V50.6243C0 53.0405 2.05491 55.006 4.58082 55.006H19.1383H31.7165H56.4266H64.4189C66.945 55.006 68.9997 53.0404 68.9997 50.6243V26.7937C68.9997 26.2181 68.512 25.7516 67.9103 25.7516C67.3086 25.7516 66.8208 26.2182 66.8208 26.7937V50.6243C66.8208 51.8912 65.7433 52.9218 64.4189 52.9218H57.5162V48.9568C57.5162 48.3812 57.0285 47.9147 56.4268 47.9147H31.7168C31.1151 47.9147 30.6274 48.3813 30.6274 48.9568V52.9218H23.0372C23.4694 52.2533 23.7196 51.4663 23.7196 50.6243V21.262C23.7196 20.42 23.4694 19.6332 23.0372 18.9647H30.9128C31.2346 18.9647 31.5397 18.8287 31.7467 18.5932C34.8267 15.0883 39.3344 13.0782 44.1145 13.0782C48.8943 13.0782 53.4022 15.0883 56.4823 18.5932C56.6893 18.8287 56.9945 18.9647 57.3162 18.9647H64.4192C65.7435 18.9647 66.8211 19.9953 66.8211 21.262V23.5979C66.8211 24.1735 67.3087 24.64 67.9106 24.64ZM32.8063 49.999H55.3375V52.9219H32.8063V49.999ZM7.06603 15.3317C7.06603 14.987 7.35915 14.7064 7.71978 14.7064H15.9998C16.3601 14.7064 16.6535 14.9869 16.6535 15.3317V16.8805H7.06603V15.3317ZM21.5405 50.6243C21.5405 51.8912 20.4631 52.9218 19.1386 52.9218H4.58082C3.25648 52.9218 2.17889 51.8912 2.17889 50.6243V48.4243H5.6204C6.22213 48.4243 6.70985 47.9576 6.70985 47.3822C6.70985 46.8066 6.22199 46.3401 5.6204 46.3401H2.17889V43.774H5.6204C6.22213 43.774 6.70985 43.3073 6.70985 42.7319C6.70985 42.1563 6.22199 41.6898 5.6204 41.6898H2.17889V39.1238H5.6204C6.22213 39.1238 6.70985 38.6572 6.70985 38.0817C6.70985 37.5062 6.22199 37.0396 5.6204 37.0396H2.17889V34.4736H5.6204C6.22213 34.4736 6.70985 34.007 6.70985 33.4316C6.70985 32.856 6.22199 32.3895 5.6204 32.3895H2.17889V29.8236H5.6204C6.22213 29.8236 6.70985 29.357 6.70985 28.7815C6.70985 28.2061 6.22199 27.7394 5.6204 27.7394H2.17889V25.1737H5.6204C6.22213 25.1737 6.70985 24.7071 6.70985 24.1316C6.70985 23.5561 6.22199 23.0895 5.6204 23.0895H2.17889V21.2622C2.17889 19.9954 3.25634 18.9648 4.58082 18.9648H5.97645H17.7427H19.1383C20.4627 18.9649 21.5403 19.9955 21.5403 21.2623V50.6243H21.5405Z" fill="black"/>
<path d="M44.0718 19.5695C38.1981 19.5695 33.4196 24.1403 33.4196 29.7588C33.4196 31.0623 33.6736 32.3323 34.1745 33.5333C34.3977 34.0679 35.0315 34.3279 35.5902 34.1152C36.1491 33.9018 36.4215 33.2957 36.1983 32.761C35.8005 31.8067 35.5984 30.7967 35.5984 29.7589C35.5984 25.2896 39.3995 21.6538 44.0718 21.6538C48.7442 21.6538 52.5452 25.2896 52.5452 29.7589C52.5452 34.2281 48.7442 37.864 44.0718 37.864C41.6664 37.864 39.3656 36.8806 37.759 35.1658C37.3579 34.7374 36.6692 34.7009 36.2207 35.0852C35.7726 35.4693 35.7347 36.1282 36.1364 36.5568C38.1556 38.7121 41.048 39.9483 44.0718 39.9483C49.9456 39.9483 54.7241 35.3776 54.7241 29.759C54.7241 24.1405 49.9453 19.5695 44.0718 19.5695Z" fill="black"/>
<path d="M48.5375 29.8749C48.5375 27.5195 46.5343 25.6032 44.0717 25.6032C41.6094 25.6032 39.606 27.5195 39.606 29.8749C39.606 32.2303 41.6092 34.1466 44.0717 34.1466C46.5343 34.1465 48.5375 32.2302 48.5375 29.8749ZM41.7848 29.8749C41.7848 28.6687 42.8107 27.6875 44.0715 27.6875C45.3326 27.6875 46.3584 28.6689 46.3584 29.8749C46.3584 31.081 45.3324 32.0623 44.0715 32.0623C42.8107 32.0623 41.7848 31.081 41.7848 29.8749Z" fill="#8AA399" fill-opacity="0.81"/>
<path d="M44.0719 15.8032C36.07 15.8032 29.5602 22.03 29.5602 29.684C29.5602 37.3379 36.07 43.5649 44.0719 43.5649C52.0737 43.5649 58.5837 37.3379 58.5837 29.684C58.5836 22.0302 52.0735 15.8032 44.0719 15.8032ZM44.0719 41.4807C37.2717 41.4807 31.7392 36.1887 31.7392 29.6841C31.7392 23.1796 37.2717 17.8876 44.0719 17.8876C50.8723 17.8876 56.4047 23.1796 56.4047 29.6841C56.4047 36.1887 50.8722 41.4807 44.0719 41.4807Z" fill="black"/>
<path d="M60.1161 15.4474H64.6471C65.249 15.4474 65.7366 14.9808 65.7366 14.4054C65.7366 13.8298 65.249 13.3633 64.6471 13.3633H60.1161C59.5142 13.3633 59.0266 13.8299 59.0266 14.4054C59.0266 14.9809 59.5142 15.4474 60.1161 15.4474Z" fill="black"/>
</svg>
