<svg width="50" height="50" viewBox="0 0 50 50" fill="none" xmlns="http://www.w3.org/2000/svg">
<g clip-path="url(#clip0_241_13869)">
<path d="M1.66667 5.83334H0V49.1667C0 49.6667 0.333333 50 0.833333 50H29.1667V48.3333H1.66667V5.83334Z" fill="black"/>
<path d="M4.99992 1.66667H30.8333V8.33333C30.8333 8.83333 31.1666 9.16667 31.6666 9.16667H38.3333V11.6667H39.9999V8.33333C39.9999 8.25 39.9999 8.16667 39.9166 8.08333V8C39.8333 7.91667 39.8333 7.83333 39.7499 7.75L32.2499 0.25C32.1666 0.166667 32.0833 0.166667 31.9999 0.0833333H31.9166C31.8333 0.0833333 31.7499 0 31.6666 0H4.16659C3.66659 0 3.33325 0.333333 3.33325 0.833333V45.8333C3.33325 46.3333 3.66659 46.6667 4.16659 46.6667H32.4999V45H4.99992V1.66667ZM37.1666 7.5H32.4999V2.83333L37.1666 7.5Z" fill="black"/>
<path d="M20.8334 22.5H19.1667V24.1667H20.8334V22.5Z" fill="black"/>
<path d="M17.4999 22.5H15.8333V24.1667H17.4999V22.5Z" fill="black"/>
<path d="M14.1667 22.5H12.5V24.1667H14.1667V22.5Z" fill="black"/>
<path d="M10.8334 22.5H9.16675V24.1667H10.8334V22.5Z" fill="black"/>
<path d="M24.1667 22.5H22.5V24.1667H24.1667V22.5Z" fill="black"/>
<path d="M9.16667 4.16666H7.5V5.83333H9.16667V4.16666Z" fill="black"/>
<path d="M12.4999 4.16666H10.8333V5.83333H12.4999V4.16666Z" fill="black"/>
<path d="M12.4999 7.5H10.8333V9.16667H12.4999V7.5Z" fill="black"/>
<path d="M9.16667 7.5H7.5V9.16667H9.16667V7.5Z" fill="black"/>
<path d="M20.8334 4.16666H14.1667V5.83333H20.8334V4.16666Z" fill="black"/>
<path d="M20.8334 7.5H14.1667V9.16667H20.8334V7.5Z" fill="black"/>
<path d="M29.1667 13.3333H7.5V15H29.1667V13.3333Z" fill="black"/>
<path d="M35.8333 17.5H7.5V19.1667H35.8333V17.5Z" fill="black"/>
<path d="M35.8333 27.5H7.5V29.1667H35.8333V27.5Z" fill="black"/>
<path d="M35.8333 31.6667H7.5V33.3333H35.8333V31.6667Z" fill="black"/>
<path d="M25.8333 35.8333H7.5V37.5H25.8333V35.8333Z" fill="black"/>
<path d="M29.1667 35.8333H27.5V37.5H29.1667V35.8333Z" fill="black"/>
<path d="M32.4999 35.8333H30.8333V37.5H32.4999V35.8333Z" fill="black"/>
<path d="M35.8334 35.8333H34.1667V37.5H35.8334V35.8333Z" fill="black"/>
<path d="M46.6666 27.5C45.0833 27.5 43.8333 28.5833 43.4166 30H39.9999V24.1667H44.9999C45.4999 24.1667 45.8333 23.8333 45.8333 23.3333V9.91667C47.2499 9.58334 48.3333 8.25 48.3333 6.66667C48.3333 4.83334 46.8333 3.33334 44.9999 3.33334C43.1666 3.33334 41.6666 4.83334 41.6666 6.66667C41.6666 8.25 42.7499 9.5 44.1666 9.91667V22.5H25.8333V24.1667H38.3333V40.0833C36.9166 40.4167 35.8333 41.75 35.8333 43.3333C35.8333 45.1667 37.3333 46.6667 39.1666 46.6667C40.9999 46.6667 42.4999 45.1667 42.4999 43.3333C42.4999 41.75 41.4166 40.5 39.9999 40.0833V31.6667H43.4166C43.7499 33.0833 45.0833 34.1667 46.6666 34.1667C48.4999 34.1667 49.9999 32.6667 49.9999 30.8333C49.9999 29 48.4999 27.5 46.6666 27.5ZM43.3333 6.66667C43.3333 5.75 44.0833 5 44.9999 5C45.9166 5 46.6666 5.75 46.6666 6.66667C46.6666 7.58334 45.9166 8.33334 44.9999 8.33334C44.0833 8.33334 43.3333 7.58334 43.3333 6.66667ZM40.8333 43.3333C40.8333 44.25 40.0833 45 39.1666 45C38.2499 45 37.4999 44.25 37.4999 43.3333C37.4999 42.4167 38.2499 41.6667 39.1666 41.6667C40.0833 41.6667 40.8333 42.4167 40.8333 43.3333ZM46.6666 32.5C45.7499 32.5 44.9999 31.75 44.9999 30.8333C44.9999 29.9167 45.7499 29.1667 46.6666 29.1667C47.5833 29.1667 48.3333 29.9167 48.3333 30.8333C48.3333 31.75 47.5833 32.5 46.6666 32.5Z" fill="black"/>
<path d="M17.5 40H7.5V41.6667H17.5V40Z" fill="black"/>
</g>
<defs>
<clipPath id="clip0_241_13869">
<rect width="50" height="50" fill="white"/>
</clipPath>
</defs>
</svg>
