<svg width="47" height="66" viewBox="0 0 47 66" fill="none" xmlns="http://www.w3.org/2000/svg">
<path d="M23.7007 65.9963C23.4455 65.5246 23.1336 65.0858 22.7718 64.6893C22.3509 64.237 21.8514 63.8643 21.2975 63.5891C20.8403 63.3887 20.3508 63.2717 19.8521 63.2438L19.6507 63.2223C19.334 63.2125 19.0241 63.1286 18.7458 62.9775C18.4675 62.8265 18.2287 62.6124 18.0486 62.3525C17.8824 62.0333 17.7914 61.6806 17.7823 61.3212C17.7733 60.9617 17.8466 60.6049 17.9966 60.2779C18.0203 60.2083 18.0709 60.0727 18.114 59.9815L18.2477 59.6511C17.3032 60.0959 16.2647 60.3059 15.221 60.2631C14.2598 60.2602 13.3032 60.1299 12.3764 59.8756L12.1943 59.8274L12.1148 59.8067C9.99889 59.2563 8.05723 58.1806 6.47082 56.68C5.09785 55.3722 3.95045 53.8477 3.07477 52.1679C1.53084 48.6842 0.596619 44.9626 0.312604 41.1645C0.0581544 38.5704 -0.0411037 35.9634 0.0153567 33.3575C0.0153567 33.1352 0.0213016 32.9774 0.0205585 32.8818C-0.11023 19.3853 3.12233 12.7437 5.06038 9.98013C4.34922 9.04287 3.90632 8.46348 3.87139 8.43088C3.47679 8.01817 2.94793 7.75873 2.37921 7.69885C2.17826 6.48654 1.89422 5.28938 1.52909 4.11578C2.52941 4.82352 3.59195 5.43952 4.70368 5.95622C4.59286 6.51879 4.70299 7.10231 5.01133 7.58623C5.03809 7.6255 5.33831 8.02337 5.95584 8.83912C7.03756 7.49465 8.37629 6.37773 9.89436 5.55316C10.3566 5.29458 10.8054 5.06786 11.2654 4.85966C11.2452 4.54079 11.2917 4.2212 11.4019 3.9212C11.5122 3.6212 11.6839 3.34735 11.906 3.11703C11.9301 2.89915 12.0105 2.69123 12.1394 2.51359C12.2682 2.33594 12.441 2.19463 12.6409 2.10346C12.727 2.08099 12.8157 2.07003 12.9047 2.07086C13.2908 2.0768 13.6628 2.21581 13.9577 2.46428C14.6434 2.56838 15.2707 2.90927 15.7301 3.42747C17.3796 3.08675 19.0523 2.86856 20.7342 2.77473C20.8326 2.35518 21.0232 1.96266 21.2923 1.62554C21.5615 1.28842 21.9023 1.01512 22.2903 0.82538C22.415 0.602755 22.5901 0.412221 22.8017 0.268934C23.0133 0.125647 23.2555 0.0335611 23.509 0L23.5142 0C23.7681 0.0335128 24.0106 0.125559 24.2225 0.268833C24.4345 0.412107 24.61 0.602664 24.7352 0.82538C25.1233 1.0149 25.4643 1.28814 25.7334 1.6253C26.0026 1.96245 26.1931 2.35508 26.2912 2.77473C27.971 2.86891 29.6414 3.08734 31.2887 3.42822C31.7493 2.91274 32.3748 2.57236 33.0588 2.46503C33.3567 2.21804 33.7304 2.08024 34.1178 2.07456C34.2052 2.07369 34.2924 2.08415 34.3771 2.10568C34.577 2.19692 34.7498 2.33824 34.8786 2.51588C35.0074 2.69351 35.0878 2.90139 35.112 3.11925C35.3331 3.35032 35.504 3.62429 35.6142 3.9241C35.7244 4.22391 35.7715 4.54313 35.7526 4.86189C36.2104 5.0686 36.6592 5.29606 37.1229 5.55538C38.6509 6.42119 40.013 7.55 41.1462 8.8895C41.7682 8.06931 42.1553 7.55585 42.1865 7.50621C42.4933 7.02167 42.6033 6.43878 42.4942 5.8762C43.6048 5.3589 44.6668 4.74346 45.6673 4.03725C45.3049 5.21122 45.0213 6.40798 44.8186 7.61957C44.2492 7.67828 43.7194 7.93789 43.325 8.3516C43.2915 8.38346 42.8256 8.99323 41.9785 10.1061C43.5834 12.5575 44.7447 15.2706 45.4094 18.122C46.569 22.957 47.0936 27.9217 46.97 32.8915C46.97 32.9381 46.97 33.007 46.9752 33.0967C47.0463 35.6451 46.9646 38.1954 46.7307 40.734C46.2848 45.4277 45.3425 49.2938 43.9202 52.2249C42.6068 54.8721 40.556 57.0856 38.0132 58.6005C36.3 59.6989 34.3079 60.2868 32.2711 60.2949C31.1944 60.3388 30.1232 60.1206 29.15 59.6592L29.283 59.986C29.3135 60.0601 29.3573 60.1675 29.3886 60.2468L29.4057 60.2905C29.5549 60.6154 29.628 60.97 29.6192 61.3273C29.6105 61.6846 29.5201 62.0352 29.3551 62.3525C29.1743 62.6137 28.9344 62.8288 28.6548 62.9805C28.3752 63.1323 28.0637 63.2164 27.7455 63.226L27.5456 63.2475C27.0467 63.2753 26.5569 63.3922 26.0995 63.5928C25.5457 63.868 25.0462 64.2408 24.6252 64.693C24.2618 65.0886 23.9491 65.5276 23.694 66L23.7007 65.9963ZM19.7622 60.9032C19.5936 60.8948 19.4255 60.9292 19.2738 61.0032C19.1222 61.0772 18.9918 61.1884 18.895 61.3263C18.8266 61.4282 18.7851 61.5456 18.7742 61.6677C18.7633 61.7898 18.7834 61.9127 18.8326 62.025C18.8608 62.0827 18.8941 62.1377 18.9322 62.1895C19.0205 62.3087 19.1347 62.4065 19.2662 62.4756C19.3976 62.5447 19.5431 62.5834 19.6916 62.5888C20.3385 62.6068 20.9754 62.7521 21.5658 63.0163C22.4039 63.4271 23.1347 64.0265 23.7007 64.7671C24.2675 64.0266 24.9988 63.4273 25.8372 63.0163C26.428 62.7518 27.0654 62.6065 27.7128 62.5888C27.8598 62.5791 28.003 62.5385 28.1332 62.4696C28.2633 62.4008 28.3773 62.3053 28.4678 62.1895C28.5091 62.1396 28.5431 62.0843 28.5689 62.025C28.6179 61.9126 28.6379 61.7897 28.6268 61.6676C28.6158 61.5455 28.5742 61.4282 28.5057 61.3263C28.409 61.1885 28.2788 61.0773 28.1272 61.0033C27.9757 60.9294 27.8078 60.8949 27.6393 60.9032C27.2057 60.9246 26.7879 61.0722 26.4376 61.3278C26.3456 59.5463 26.1371 57.7728 25.8134 56.0184C25.7993 55.9947 25.7837 55.9717 25.7673 55.9443L25.7302 55.8887C25.6841 55.825 25.6388 55.7583 25.5905 55.6887L25.5808 55.6746C25.4894 56.0054 25.3724 56.3287 25.2308 56.6415C25.1152 56.9313 24.9446 57.1962 24.7285 57.4217C24.1773 57.031 23.7434 56.498 23.4733 55.8798C23.2043 56.4868 22.7764 57.0104 22.2346 57.3958C22.0168 57.1704 21.8447 56.9052 21.7278 56.6148C21.6503 56.4456 21.5816 56.2725 21.5219 56.0962C21.233 57.8266 21.0469 59.5725 20.9646 61.3248C20.6129 61.0717 20.1954 60.9253 19.7622 60.9032ZM27.6638 60.2031C28.0693 60.2062 28.4604 60.3531 28.7673 60.6173C28.7599 60.598 27.857 58.2819 27.2811 56.8052C27.2028 56.9331 27.1003 57.0446 26.9794 57.1335C26.7933 57.0376 26.6225 56.9147 26.4726 56.7689C26.6981 57.9548 26.8503 59.1534 26.9281 60.3579C27.161 60.2585 27.4112 60.2059 27.6645 60.2031H27.6638ZM20.1152 57.0008C19.5207 58.4508 18.6431 60.5943 18.6342 60.618C18.9423 60.3544 19.3339 60.2077 19.7399 60.2038C19.9935 60.2066 20.2441 60.2595 20.4771 60.3594C20.5498 59.1256 20.6877 57.8964 20.8903 56.6771C20.7144 56.8625 20.5087 57.0172 20.2817 57.1349C20.2393 57.1312 20.1798 57.0838 20.1152 57.0008ZM27.7492 55.8895C27.7269 55.951 27.695 56.0332 27.6593 56.1199C27.9209 56.7437 28.4879 58.0826 28.612 58.3493C29.8135 58.964 31.1401 59.2962 32.4903 59.3206C33.0109 59.3186 33.5304 59.2732 34.0434 59.1851C34.5146 59.1053 34.9772 58.9813 35.4249 58.8146C37.0408 58.1518 38.5201 57.1973 39.7885 55.9991C41.0989 54.7889 42.2045 53.3756 43.0627 51.8137C46.1838 45.7434 46.3383 36.6827 46.3383 34.9282C46.3383 34.0391 46.3383 33.5027 46.3383 33.2982V33.2241C46.3205 32.1128 46.2581 30.3027 46.2157 29.484L46.0381 29.6277C44.4532 30.9203 42.7491 32.0602 40.9485 33.0322L40.1073 33.4894L40.111 32.884V32.8729C40.1161 31.136 39.9802 29.4016 39.7045 27.6865C39.2069 24.1315 38.0695 20.6954 36.3471 17.5434C36.1242 17.8398 35.4256 18.7244 34.386 20.0403C34.46 20.0318 34.5345 20.0276 34.609 20.0277C34.8476 20.0294 35.0834 20.0787 35.3027 20.1726C35.5219 20.2665 35.7201 20.4031 35.8856 20.5745C37.1569 21.9727 38.1603 23.5915 38.8462 25.3504C39.3324 26.7906 39.5588 28.3052 39.515 29.8241V29.8189C39.5162 29.8416 39.5162 29.8643 39.515 29.887C39.4251 31.3496 38.9339 39.007 38.0763 46.179C37.2158 53.3659 36.7313 54.3958 36.7268 54.4032C36.2805 53.8097 35.9673 53.1274 35.8083 52.4027V52.3916L35.7296 52.4657V52.462C35.3305 51.7984 35.0537 51.0689 34.9122 50.3082C34.6044 48.3384 34.48 46.3445 34.5406 44.3519L34.5361 44.3623C34.5167 43.9702 34.4082 43.5877 34.2188 43.2435C34.0581 42.9182 33.9335 42.5763 33.8473 42.224C33.8463 42.22 33.845 42.216 33.8435 42.2122C33.6081 41.014 33.0051 39.9183 32.118 39.0766C31.9761 38.9284 31.8416 38.7906 31.7271 38.6506C31.1245 37.9126 30.6261 37.0956 30.2461 36.2226L30.2283 36.2359C30.2151 36.2452 30.2025 36.255 30.1904 36.2656C29.8843 36.5031 29.6524 36.8225 29.5216 37.1865C29.533 37.3026 29.5444 37.4157 29.5558 37.5259C29.7109 38.3708 29.7182 39.2361 29.5773 40.0835C29.5124 40.0424 29.4519 39.9947 29.3967 39.9413C29.3618 39.9101 29.3291 39.8805 29.3031 39.8612C29.3243 40.2479 29.3011 40.6357 29.234 41.0171C29.1269 41.5117 29.1291 42.0237 29.2407 42.5174L28.7294 42.4515C28.7442 42.4946 28.7629 42.5362 28.7851 42.576C28.853 42.6695 28.9421 42.7457 29.0452 42.7982C29.0683 42.8108 29.1567 42.8516 29.2043 42.8723L29.2139 42.8768C29.2622 42.8983 29.3923 42.9509 29.7401 43.0605C29.8614 42.7956 29.9048 42.5019 29.8654 42.2133C29.8259 41.9248 29.7052 41.6533 29.5171 41.4305C29.4731 41.3817 29.4444 41.3211 29.4343 41.2563C29.4243 41.1914 29.4335 41.125 29.4606 41.0652C29.4933 41.0022 29.5434 40.9498 29.6051 40.9143C29.6667 40.8789 29.7373 40.8618 29.8084 40.8652C29.8999 40.867 29.99 40.8876 30.073 40.9259C30.8537 41.2672 31.5675 41.7438 32.1812 42.3337C32.8133 42.8312 33.2473 43.5366 33.4059 44.3238C33.4083 44.3589 33.4034 44.3941 33.3915 44.4273C33.3796 44.4604 33.3609 44.4908 33.3367 44.5164C33.2691 44.5825 33.1788 44.6204 33.0841 44.6224C32.9924 44.6168 32.9024 44.5955 32.818 44.5594C32.8169 44.5988 32.8106 44.6379 32.7995 44.6757C32.764 44.7761 32.7028 44.8655 32.622 44.935C32.5412 45.0045 32.4435 45.0518 32.3387 45.0721L32.3172 45.1091C32.2094 45.2573 32.0422 45.3218 31.7398 45.3218H31.6952C31.4779 45.3052 31.2666 45.2425 31.0754 45.138H31.0695C30.9905 45.0989 30.9186 45.0468 30.857 44.9839C30.7953 45.0328 30.7314 45.0847 30.6667 45.138C30.8741 45.4174 31.123 45.7308 31.4098 46.1012C32.473 47.3978 33.4371 48.7721 34.2939 50.2126C34.7826 51.0739 35.1891 51.9791 35.5081 52.9162H35.5029C35.3312 52.9607 35.1543 52.9826 34.9768 52.9814C34.8111 52.9815 34.6459 52.9636 34.4841 52.928C34.6779 53.4056 34.7718 53.9177 34.7598 54.4328C34.7137 54.4328 34.6669 54.4328 34.6216 54.4328C34.0941 54.437 33.5745 54.3045 33.1138 54.0483C33.1324 54.1402 33.1472 54.2283 33.1658 54.3335L33.7061 54.727C34.0405 54.9707 34.3541 55.1997 34.5235 55.316C33.1882 55.877 31.7461 56.1403 30.2981 56.0873C29.6069 56.0891 28.9162 56.0453 28.2308 55.9562H28.2226C28.0643 55.9361 27.9194 55.9139 27.7916 55.8947L27.7492 55.8895ZM0.784483 29.4884C0.744355 30.3131 0.658896 33.1263 0.658153 33.1545C0.65741 33.1826 0.658153 33.3997 0.658153 33.7917V33.7991C0.658153 34.074 0.658153 34.434 0.658153 34.8749C0.683142 37.4193 0.894002 39.9584 1.28906 42.4722C1.71383 45.6803 2.60476 48.8097 3.93381 51.7618C4.75875 53.3396 5.83829 54.7714 7.12922 55.9999C8.48691 57.2714 10.1145 58.2216 11.8911 58.7798L11.9446 58.7976C12.0531 58.8331 12.2173 58.888 12.3043 58.9139C13.1175 59.173 13.966 59.3054 14.8197 59.3066C16.2012 59.2967 17.5611 58.964 18.7902 58.3352L18.8133 58.276C18.9054 58.024 19.2762 57.1387 19.5475 56.4918L19.6924 56.1466C19.6559 56.0399 19.6233 55.9317 19.5928 55.8257C19.1997 55.8924 18.8541 55.9406 18.5361 55.9739L18.4514 55.9843C17.7716 56.0703 17.0871 56.1139 16.4018 56.1147C14.9801 56.1616 13.5652 55.8994 12.2552 55.3464C12.3474 55.2812 12.4663 55.1915 12.6045 55.0878C12.9315 54.8411 13.3796 54.5025 13.9302 54.1491C13.9369 54.0972 13.9466 54.0438 13.9562 53.9935C13.4974 54.2515 12.9782 54.3839 12.4514 54.3773C12.4039 54.3773 12.3578 54.3773 12.3132 54.3773C12.3003 53.8623 12.3944 53.3502 12.5896 52.8732C12.4265 52.9097 12.2597 52.9281 12.0925 52.928C11.9138 52.9303 11.7357 52.9076 11.5634 52.8606V52.8525C11.8848 51.9196 12.2902 51.0177 12.7747 50.1577C13.5959 48.7777 14.5266 47.4653 15.5577 46.2331C15.6452 45.9064 15.8127 45.6065 16.0451 45.3603L16.0489 45.3559C16.0734 45.3314 16.1819 45.2114 16.2012 45.1884C16.0979 45.0995 15.9968 45.0173 15.9039 44.9439C15.8342 45.0234 15.7497 45.0885 15.655 45.1358C15.4605 45.2385 15.2477 45.3022 15.0286 45.3233H14.9498C14.848 45.3367 14.7445 45.3241 14.6489 45.2867C14.5533 45.2492 14.4689 45.1881 14.4036 45.1091L14.3843 45.0721C14.2796 45.0515 14.1821 45.0042 14.1013 44.9347C14.0205 44.8652 13.9593 44.7759 13.9235 44.6757C13.9112 44.6368 13.9045 44.5964 13.9035 44.5557C13.8369 44.581 13.7666 44.5955 13.6954 44.5987C13.6004 44.5967 13.5097 44.5585 13.442 44.492C13.4178 44.4669 13.3991 44.4371 13.3871 44.4044C13.3751 44.3718 13.37 44.337 13.3721 44.3023C13.5363 43.5161 13.9695 42.8113 14.5975 42.3085C15.2106 41.7185 15.924 41.2419 16.7043 40.9007C16.7876 40.8625 16.8779 40.8418 16.9696 40.84C17.0409 40.8363 17.1118 40.8533 17.1738 40.8887C17.2357 40.9242 17.2861 40.9767 17.3188 41.04C17.346 41.0999 17.3551 41.1664 17.3451 41.2314C17.3351 41.2964 17.3063 41.3571 17.2624 41.4061C17.0738 41.6286 16.9528 41.9001 16.9133 42.1888C16.8738 42.4774 16.9176 42.7713 17.0394 43.0361C17.298 42.9509 17.4236 42.902 17.4853 42.8783L17.5128 42.8679L17.5455 42.8553C17.7023 42.8044 17.8388 42.7053 17.9356 42.5723C17.9556 42.5367 17.9725 42.4995 17.9862 42.4611L17.5403 42.5122C17.6358 42.0993 17.6542 41.6723 17.5945 41.2527C17.5368 40.7323 17.5541 40.2063 17.6458 39.6908C17.5513 39.761 17.4491 39.8202 17.3411 39.8672C17.2042 38.9678 17.1792 38.055 17.2668 37.1495C17.2557 37.0013 17.0632 36.7405 16.7102 36.3886C16.3589 37.2282 15.8799 38.0089 15.2901 38.7032C15.1757 38.8447 15.0404 38.9847 14.897 39.1329C14.0124 39.9736 13.4108 41.0669 13.1752 42.2626C13.176 42.2652 13.176 42.268 13.1752 42.2707C13.175 42.2727 13.175 42.2747 13.1752 42.2766C13.088 42.6289 12.9635 42.9709 12.8037 43.2969C12.6135 43.6404 12.504 44.0224 12.4834 44.4142L12.4789 44.4075C12.5399 46.3989 12.4156 48.3916 12.1074 50.36C11.9687 51.1275 11.6904 51.8632 11.2862 52.5309L11.2067 52.462V52.4738C11.0467 53.1984 10.7333 53.8804 10.2875 54.4743C10.2347 54.355 9.76208 53.1259 8.93871 46.2502C7.99124 38.3327 7.50375 29.9722 7.49855 29.8885C7.44853 28.3707 7.67514 26.8565 8.16735 25.4193C8.85246 23.66 9.85598 22.0411 11.1279 20.6434C11.2936 20.4717 11.492 20.3349 11.7115 20.2408C11.931 20.1468 12.1672 20.0975 12.4061 20.0958C12.5308 20.0962 12.6552 20.1084 12.7777 20.1322L12.7346 20.0751C12.5859 19.8825 12.4514 19.7002 12.4499 19.6943C12.169 19.3238 11.8614 18.9267 11.5641 18.5444C11.2788 18.1739 10.9838 17.7975 10.7155 17.4426C9.02027 20.5722 7.88134 23.9709 7.34918 27.488C7.06506 29.1778 6.91227 30.887 6.89216 32.6003V32.6047L6.89811 33.4894L6.21147 33.1189C4.28837 32.0876 2.47076 30.8717 0.784483 29.4884ZM23.7877 54.5506C23.8515 55.1801 24.1289 55.769 24.5739 56.2199C24.7723 55.9053 24.8921 55.5478 24.9232 55.1774C24.5249 55.0063 24.1445 54.7964 23.7877 54.5506ZM23.2772 54.3639C23.1087 54.5058 22.9315 54.6369 22.7466 54.7566C22.3884 54.9648 22.0874 55.113 21.9403 55.1826C22.0542 55.5381 22.1992 55.883 22.3735 56.2132C22.8769 55.716 23.1956 55.0628 23.2772 54.361V54.3639ZM20.2883 51.3454C20.0712 51.5369 19.8437 51.7165 19.6069 51.8833C19.1816 52.1533 18.7284 52.3769 18.2552 52.5502C18.1259 52.6035 18.0047 52.6532 17.8896 52.7028C16.2089 53.337 14.6105 54.1696 13.1284 55.1826C14.2823 55.4785 15.4727 55.6085 16.6634 55.5687C17.3222 55.5737 17.9807 55.5408 18.6356 55.4701C20.1926 55.3165 21.6852 54.772 22.974 53.8875C22.6433 53.606 22.2375 53.2288 21.9217 52.931C21.4704 53.3287 20.9712 53.6686 20.4355 53.9431C18.8255 54.5164 17.1481 54.8803 15.4447 55.0256C17.1487 54.6594 18.8174 54.1457 20.4318 53.4904C20.841 53.2312 21.2273 52.9377 21.5866 52.6131C21.215 52.2612 20.8605 51.9108 20.5462 51.601L20.2883 51.3454ZM20.9349 49.362L19.9428 50.277L20.0171 50.3622C21.0373 51.4996 22.1468 52.5541 23.3351 53.5156C24.7118 54.6115 26.3795 55.2828 28.1334 55.4471C28.786 55.5167 29.442 55.5491 30.0982 55.5442C31.2917 55.5854 32.485 55.4569 33.6422 55.1626C32.1612 54.1485 30.5637 53.3147 28.884 52.6791C28.7703 52.6302 28.6506 52.5805 28.5243 52.5309C28.0481 52.3557 27.5922 52.1299 27.1644 51.8574C26.8901 51.6645 26.6287 51.4539 26.3819 51.2269C25.5191 50.4356 23.24 48.0676 22.832 47.6231L21.3168 49.0138C21.3547 49.0501 25.3408 52.9236 26.3396 53.4637C27.9543 54.1181 29.6229 54.6318 31.3266 54.9989H31.3088C29.6111 54.8543 27.9395 54.4905 26.3358 53.9164C25.0562 53.4 20.975 49.4013 20.9334 49.3605L20.9349 49.362ZM30.6177 52.9221H30.6236L30.6377 52.928L30.6511 52.9347C31.3055 53.2258 31.9422 53.5548 32.558 53.9201C32.5126 53.7208 32.4725 53.5867 32.4725 53.5852C32.1512 53.2544 31.8533 52.9019 31.5808 52.5302C30.9645 51.6535 30.4821 50.6904 30.1495 49.6724C30.4059 50.0577 30.6028 50.3571 30.7626 50.5993L30.7663 50.6053C31.1148 51.1335 31.2865 51.398 31.5094 51.6989C32.5297 53.0673 33.6295 53.6993 34.0843 53.7067C33.9357 52.9436 33.6637 52.7621 33.6615 52.7598C33.2708 52.4117 32.9174 52.0241 32.607 51.6033L32.662 51.6774L32.6189 51.6218L32.5661 51.5477L32.4762 51.424L32.4963 51.4492L32.5438 51.5144C31.9076 50.6085 31.3812 49.6305 30.9759 48.6011C31.2575 48.9515 31.6097 49.4368 31.9501 49.9066C32.3744 50.4904 32.7742 51.0417 32.9905 51.2639C33.8079 52.1182 34.1542 52.219 34.7985 52.2575C34.4603 51.3079 33.9967 50.4074 33.42 49.5798C32.762 48.4985 32.0185 47.4713 31.1966 46.508C31.2033 46.6586 31.183 46.8091 31.1364 46.9525C31.124 46.9844 31.1088 47.0152 31.091 47.0444C31.028 47.1623 30.9333 47.2604 30.8176 47.3276C30.7018 47.3949 30.5696 47.4287 30.4356 47.4253H30.3784C30.2193 47.4138 30.07 47.3442 29.9593 47.2296C29.9444 47.2304 29.9295 47.2304 29.9147 47.2296C29.8225 47.228 29.7326 47.2005 29.6553 47.1504C29.6792 47.2684 29.6771 47.3902 29.6493 47.5073C29.6214 47.6245 29.5685 47.7342 29.4941 47.8291C29.4974 47.9838 29.47 48.1377 29.4135 48.2819C29.357 48.4261 29.2725 48.5577 29.1649 48.6693L29.2102 48.7315C29.4153 49.096 29.3284 49.2783 29.2295 49.3983C29.1307 49.5183 28.1379 50.6112 27.9209 50.806C27.8563 50.8674 27.7708 50.9021 27.6816 50.9031C27.5668 50.8961 27.4578 50.8504 27.3725 50.7734L27.2083 50.6379L27.1064 50.7408C27.0128 50.8349 26.8709 50.9772 26.7483 51.098L26.7884 51.135L26.8033 51.1483C27.1346 51.4402 27.5136 51.6732 27.9239 51.8374C28.0948 51.9115 28.4195 52.0345 28.7948 52.179C29.2124 52.3397 29.6865 52.5205 30.0581 52.6739C29.8538 52.0412 29.6665 51.4803 29.4837 50.9616C29.7126 51.2713 30.4126 52.5383 30.6221 52.9191L30.6177 52.9221ZM16.9443 49.6228C16.6107 50.6379 16.1295 51.5988 15.516 52.4746C15.2432 52.8451 14.9437 53.1952 14.6198 53.5222C14.6198 53.5222 14.5909 53.6163 14.5589 53.7675L14.4482 53.829L14.5582 53.769L15.0471 53.4985C15.1579 53.4422 15.2515 53.3955 15.3444 53.3503C15.6936 53.1607 16.0964 52.971 16.6121 52.7524C17.2245 51.6492 17.5856 51.0202 17.7149 50.8261C17.7082 50.8512 17.7001 50.8824 17.6911 50.9187C17.5498 51.4799 17.3534 52.0258 17.1048 52.5487L17.4311 52.4161C17.6414 52.3346 17.8427 52.2575 18.0255 52.1856C18.4506 52.0234 18.7865 51.8945 18.9842 51.8011C19.2655 51.679 19.5304 51.5222 19.7726 51.3343L19.8581 51.2713C19.8863 51.2499 19.9324 51.2069 19.9948 51.1513L20.0505 51.1002C20.0446 51.095 19.8239 50.8727 19.679 50.7297L19.5623 50.6127L19.3966 50.7527C19.311 50.8293 19.2022 50.8749 19.0875 50.8824C18.9985 50.8814 18.9132 50.8467 18.8489 50.7853C18.6319 50.5912 17.6369 49.4902 17.5403 49.3776C17.4437 49.2649 17.3337 49.059 17.5596 48.7107L17.5641 48.7056L17.573 48.6944C17.4579 48.5829 17.3672 48.4488 17.3064 48.3007C17.2457 48.1525 17.2163 47.9935 17.22 47.8335C17.1453 47.7388 17.0922 47.6291 17.0643 47.5119C17.0365 47.3947 17.0346 47.2728 17.0588 47.1548C16.9808 47.2046 16.8905 47.2321 16.7979 47.2341C16.7833 47.2349 16.7687 47.2349 16.7541 47.2341C16.6449 47.349 16.4963 47.4188 16.3379 47.4297C16.3052 47.4297 16.2889 47.4297 16.2777 47.4297C16.1171 47.4358 15.9594 47.3857 15.8319 47.2882L15.7947 47.2578C15.6988 47.1877 15.6267 47.0899 15.5881 46.9777C15.5826 46.9666 15.5776 46.9553 15.5733 46.9437L15.5695 46.934C14.856 47.7387 14.2233 48.6112 13.6805 49.5391C13.1045 50.3643 12.6391 51.261 12.2961 52.2064C12.9389 52.1671 13.2822 52.0663 14.0997 51.2113C14.3159 50.9891 14.7254 50.4245 15.1586 49.828C15.4923 49.3687 15.8378 48.8937 16.1128 48.5492C15.7046 49.5916 15.1704 50.5804 14.5218 51.4936C14.1926 51.9451 13.8143 52.3588 13.3937 52.7272C13.3937 52.7272 13.1514 52.8836 13.0043 53.6519C13.4591 53.6415 14.5597 53.0125 15.5807 51.6418C15.8118 51.3299 15.9864 51.0654 16.3691 50.4845C16.523 50.2526 16.7065 49.9733 16.9391 49.6228H16.9443ZM10.0653 51.521C10.2362 52.4716 10.4554 53.2348 10.4576 53.2422C10.8359 52.4272 11.044 51.5381 10.9823 49.4309C10.9932 49.3469 11.0159 49.2648 11.0499 49.1871C11.2289 48.7033 11.3293 48.1941 11.3472 47.6786C11.3657 47.3163 11.2847 46.0738 11.2119 45.0314C11.1042 43.4947 10.9763 41.9351 10.853 40.4266C10.792 39.6797 10.7289 38.9084 10.6687 38.1497L10.6605 38.043C10.6509 37.9171 10.639 37.7622 10.639 37.7467L10.6509 37.7978C10.6709 37.8823 10.6917 37.9719 10.7125 38.0645C11.3099 41.0316 11.6643 44.0423 11.7722 47.0667C11.7958 47.8155 11.6825 48.5624 11.4378 49.2709C11.3925 49.3862 11.3628 49.5071 11.3494 49.6302C11.4012 49.9893 11.4178 50.3526 11.3992 50.7149L11.3947 50.8587C11.4031 51.1301 11.3781 51.4016 11.3204 51.667C11.9691 50.1992 12.2121 47.5831 12.0442 43.8874V43.8792C12.039 43.7503 12.0338 43.6177 12.0256 43.4836C11.8257 39.6997 11.5203 37.1902 11.5173 37.1658C12.0073 39.1456 12.3007 41.1687 12.3935 43.2057C12.4195 43.1628 12.4455 43.1161 12.4678 43.0672C12.8249 42.0691 12.9579 41.0051 12.8572 39.9502C12.7234 37.9045 12.4916 36.3078 12.4856 36.2967C12.4908 36.3123 12.5309 36.4449 12.5384 36.4612C12.7254 37.0691 12.8758 37.6876 12.9887 38.3135C13.1323 39.0254 13.2316 39.7454 13.2859 40.4695V40.5133C13.2904 40.6029 13.2956 40.6874 13.2956 40.7711C14.0907 39.593 13.7021 37.1473 13.3595 34.992C13.9348 36.4155 14.2002 37.9447 14.1383 39.4782C15.1289 38.552 14.7974 36.8176 14.414 34.8104C14.3531 34.4896 14.2892 34.1577 14.2297 33.8206C14.9083 35.1905 15.2448 36.7037 15.2106 38.2312C16.1574 37.0028 15.7754 35.3483 14.9587 32.2869C15.6381 33.5334 16.0619 34.9023 16.2057 36.3137C16.7905 34.9431 16.1796 32.7514 15.5034 30.6243C16.2968 31.9272 16.7652 33.4008 16.8693 34.9216C17.4459 33.4353 16.4769 30.4627 15.6394 28.9202C15.6567 29.1881 15.5855 29.4544 15.4365 29.6781L15.4046 29.73C15.2721 28.7632 14.9687 27.8275 14.5084 26.9664C14.2144 26.4139 13.9969 25.8241 13.8619 25.2133C13.832 25.4063 13.7885 25.597 13.7318 25.7839C13.2511 24.9552 12.8939 24.0611 12.6714 23.1299C12.5286 23.3612 12.4547 23.6281 12.4581 23.8997C11.9015 22.3616 12.3883 21.6644 12.6023 21.5406C12.6923 21.4876 12.795 21.4599 12.8995 21.4606C13.1171 21.4976 13.3252 21.5774 13.5115 21.6953C13.6979 21.8133 13.8589 21.9669 13.9852 22.1474C14.0915 22.2638 14.1985 22.4016 14.3122 22.5468C14.6301 23.0564 15.072 23.4776 15.5968 23.7714C16.1217 24.0652 16.7125 24.222 17.3144 24.2272H17.3486C17.5537 24.2272 17.6785 24.1916 17.6815 24.1583C17.6815 24.142 17.6562 24.1287 17.6072 24.1198H17.5997C16.1841 23.8612 15.7234 23.3388 14.8064 22.2978C14.6146 22.0808 14.3984 21.8348 14.1509 21.5666C13.3335 20.6819 12.8639 20.5686 12.5436 20.5686C12.3004 20.5896 12.065 20.6641 11.8542 20.7869C11.6434 20.9096 11.4627 21.0775 11.3249 21.2783C9.78399 23.0021 8.72774 25.1014 8.26322 27.3635C7.9989 28.6598 7.9667 29.9925 8.1681 31.3C8.40664 31.2148 8.42373 31.1518 8.42373 31.1518C8.42373 31.177 8.69943 33.9043 9.16685 34.5748C9.37869 34.0464 9.49104 33.4835 9.49828 32.9144C9.6733 33.5311 9.96349 34.1092 10.3536 34.6185C10.5276 33.9439 10.5607 33.2408 10.451 32.5529C10.6412 33.1376 10.9674 33.6692 11.4029 34.1043C11.5916 33.6361 11.7484 32.9003 11.6132 30.7124C11.7502 31.3796 11.8472 32.0543 11.9037 32.7329C12.0364 32.8454 12.1836 32.9396 12.3414 33.013C12.3466 32.9967 12.3526 32.9804 12.3593 32.9618C12.4425 32.7322 12.6149 32.255 12.2634 29.6277C13.1552 32.5128 12.7472 33.4064 12.6127 33.6983C12.6045 33.7161 12.5978 33.7309 12.5926 33.7442C12.3352 33.5987 12.1082 33.4053 11.9238 33.1745C11.9634 33.724 11.8611 34.2745 11.6266 34.7734L11.6184 34.7919C11.2835 34.5989 11.0045 34.3227 10.8084 33.9902C10.8389 34.5125 10.7662 35.0356 10.5944 35.5299C10.5944 35.5299 10.5899 35.5299 10.5855 35.5217C10.215 35.1243 9.91699 34.6655 9.70486 34.1658C9.6841 34.7449 9.53164 35.3116 9.25899 35.8233C8.47278 34.803 8.19782 31.8883 8.19559 31.8594L8.1302 31.9075L8.07892 31.9453C8.12128 32.6321 8.206 33.6731 8.32044 35.0246V35.0357C8.4111 36.0937 8.51365 37.2495 8.61248 38.3698C8.65038 38.7966 8.68679 39.2159 8.72321 39.6219C9.02045 43.0301 9.41505 46.5739 9.89362 50.1429C9.92463 50.4431 9.97904 50.7403 10.0564 51.032C10.1737 50.1958 10.1959 49.349 10.1225 48.5077C10.1264 48.4254 10.1455 48.3445 10.179 48.2692C10.3291 47.844 10.3957 47.3939 10.3752 46.9437C10.3707 46.6999 10.2124 44.8602 10.0445 42.9116C9.9174 41.4379 9.78586 39.9153 9.71453 39.0018C9.69595 38.7121 9.66251 38.172 9.66474 38.1631C9.67142 38.1912 9.67811 38.2223 9.6848 38.2542C9.69149 38.2861 9.70263 38.3401 9.71155 38.3861C9.86835 39.1418 9.98948 39.8976 10.1225 40.7992C10.1968 41.2794 10.2674 41.7884 10.3373 42.3115C10.5756 43.874 10.7244 45.4487 10.7831 47.0281C10.806 47.4488 10.7351 47.8693 10.5758 48.2595C10.5303 48.3475 10.5069 48.4451 10.5074 48.544C10.6794 49.6035 10.6005 50.6885 10.2771 51.7122C10.1854 51.6743 10.1091 51.607 10.0601 51.521H10.0653ZM36.3731 37.6741C36.3753 37.758 36.3706 37.842 36.359 37.9252C36.3538 37.9875 36.3486 38.046 36.3464 38.083C36.3308 38.2742 36.3107 38.5202 36.2862 38.8091V38.8173C36.2119 39.7012 36.1026 41.04 35.9964 42.3841C35.9711 42.7345 35.931 43.1835 35.8886 43.6592C35.7428 44.9713 35.6684 46.2903 35.6657 47.6105C35.6843 48.1256 35.7846 48.6344 35.9629 49.1182C35.9973 49.1963 36.0203 49.2789 36.0313 49.3635C35.9689 51.4684 36.1799 52.3553 36.5559 53.1748C36.5559 53.1748 36.7789 52.4094 36.9475 51.4514V51.4581C36.899 51.5413 36.8247 51.6065 36.7358 51.644C36.4134 50.6201 36.3342 49.5355 36.5047 48.4759C36.5052 48.3772 36.4817 48.2798 36.4363 48.1921C36.2769 47.8019 36.2066 47.3813 36.2304 46.9607C36.2913 45.4781 36.4275 43.9996 36.6384 42.5308L36.6748 42.2448C36.7425 41.7387 36.8145 41.229 36.8896 40.7303C36.9089 40.6093 36.9277 40.4881 36.9461 40.3666V40.3621C36.9743 40.1776 37.004 39.9879 37.0345 39.8012C37.0954 39.3567 37.1831 38.8736 37.2983 38.3194C37.3072 38.2816 37.3146 38.2453 37.3221 38.2097C37.3295 38.1742 37.3384 38.1312 37.3473 38.0964V38.1053C37.3421 38.2223 37.3265 38.538 37.2931 38.9336C37.227 39.7597 37.111 41.1141 36.9959 42.4233C36.819 44.4853 36.6362 46.6139 36.6317 46.874C36.6106 47.3248 36.677 47.7753 36.8272 48.201C36.8608 48.2768 36.8799 48.3582 36.8836 48.441C36.8113 49.2806 36.8338 50.1256 36.9505 50.9602C37.0285 50.6685 37.0837 50.3712 37.1155 50.0711C37.1155 50.0496 37.4194 47.8668 37.7635 44.7639L37.8006 44.4245C37.84 44.0622 37.8816 43.6896 37.9195 43.3235C37.9567 42.9716 37.9939 42.6108 38.031 42.2448L38.063 41.9343C38.0887 41.6567 38.1152 41.3791 38.1425 41.1015V41.0941C38.1692 40.819 38.1955 40.5439 38.2213 40.2687C38.2421 40.028 38.2636 39.7894 38.2859 39.5464C38.329 39.0514 38.3743 38.5357 38.4204 38.0127V37.9986C38.5096 36.9798 38.6025 35.924 38.685 34.9608L38.6916 34.8778V34.8586C38.8529 32.9063 38.9079 32.1557 38.9257 31.8705L38.8076 31.7868V31.7979C38.757 32.2935 38.4672 34.8126 37.7523 35.7499C37.4786 35.2384 37.326 34.6712 37.3065 34.0917C37.0887 34.5936 36.7872 35.0551 36.4147 35.4565C36.4147 35.4565 36.4147 35.4565 36.4147 35.4521C36.2483 34.9583 36.176 34.4379 36.2015 33.9176C36.0056 34.2497 35.7275 34.526 35.3937 34.72L35.384 34.6985C35.15 34.2006 35.0476 33.6512 35.0868 33.1026C34.9019 33.3329 34.6749 33.5262 34.418 33.6724C34.4128 33.659 34.4053 33.6435 34.3972 33.6257C34.2477 33.2927 34.1765 32.9301 34.1891 32.5655C34.2243 31.5399 34.4126 30.5253 34.7479 29.5551C34.3957 32.1883 34.5703 32.667 34.6535 32.8892C34.6602 32.907 34.6662 32.9233 34.6714 32.9396C34.8284 32.866 34.9745 32.771 35.1054 32.6573C35.1641 31.9791 35.2613 31.3048 35.3967 30.6376C35.2607 32.8174 35.419 33.5568 35.6099 34.0302C36.044 33.5926 36.3692 33.0598 36.5596 32.4743C36.4501 33.1623 36.4835 33.8654 36.6577 34.54C37.0481 34.0309 37.3381 33.4527 37.5123 32.8359C37.5182 33.4044 37.6306 33.9668 37.8438 34.4941C38.3067 33.8235 38.5802 31.1014 38.5831 31.074C38.5831 31.074 38.6002 31.1384 38.8388 31.2222C39.0402 29.9148 39.009 28.5823 38.7466 27.2857C38.2799 25.0236 37.2234 22.9242 35.6835 21.1991C35.5456 20.9983 35.3646 20.8305 35.1537 20.7079C34.9428 20.5852 34.7073 20.5108 34.4641 20.49C33.8185 20.6007 33.242 20.9586 32.8574 21.4873C32.6092 21.7562 32.393 22.0022 32.2027 22.2186C31.285 23.2596 30.825 23.7826 29.4086 24.042H29.396H29.3893C29.3462 24.0509 29.3224 24.0642 29.3246 24.0798C29.3246 24.1131 29.448 24.1487 29.6628 24.1487H29.694C30.2951 24.1457 30.8857 23.9913 31.411 23.6999C31.9362 23.4084 32.3791 22.9894 32.6984 22.4816C32.8106 22.3334 32.9169 22.2008 33.0224 22.0845C33.1494 21.9044 33.3108 21.7512 33.4973 21.6335C33.6839 21.5159 33.892 21.4363 34.1096 21.3991C34.2141 21.3985 34.3168 21.4261 34.4068 21.4791C34.6216 21.6036 35.1083 22.303 34.551 23.8375C34.5537 23.5659 34.4801 23.2989 34.3385 23.0669C34.1146 23.9982 33.7574 24.8925 33.278 25.7224C33.2206 25.5358 33.1764 25.3454 33.1458 25.1526C33.0115 25.7637 32.7942 26.3537 32.5 26.9063C32.0408 27.7673 31.7389 28.7028 31.6083 29.6692L31.5763 29.6159C31.4286 29.3915 31.3572 29.1258 31.3727 28.8579C30.5367 30.3983 29.5662 33.3693 30.1436 34.8593C30.2464 33.3383 30.7151 31.8642 31.5102 30.562C30.8347 32.6922 30.2223 34.8853 30.8079 36.2522C30.9526 34.8418 31.3756 33.4737 32.0526 32.2269C31.2352 35.2883 30.8555 36.942 31.8029 38.1705C31.7634 36.6418 32.097 35.1264 32.7749 33.7546C32.7155 34.091 32.6523 34.4214 32.5914 34.7437C32.2079 36.7538 31.8773 38.4891 32.8671 39.416C32.8044 37.8819 33.0707 36.3522 33.6481 34.929C33.3048 37.085 32.9139 39.5286 33.7083 40.7081C33.7296 39.8799 33.8352 39.056 34.0234 38.249C34.2211 37.2258 34.525 36.233 34.528 36.2234C34.528 36.2315 34.2872 37.8956 34.1564 39.8864C34.1326 40.2569 34.1244 40.5888 34.1326 40.8978C34.1381 41.3109 34.1803 41.7228 34.2589 42.1284C34.3184 42.4839 34.4394 42.8264 34.6164 43.1405C34.7147 41.1041 35.0076 39.0816 35.491 37.1006C35.491 37.1147 35.1849 39.6004 34.9842 43.4184C34.9775 43.5421 34.9716 43.6703 34.9649 43.8222C34.7962 47.5156 35.0392 50.1318 35.6887 51.6018C35.6349 51.3361 35.6112 51.0652 35.6181 50.7942L35.6144 50.6808C35.5932 50.3097 35.6099 49.9373 35.6642 49.5695C35.6512 49.4445 35.6215 49.3219 35.5758 49.2049C35.3341 48.4982 35.2223 47.7537 35.2458 47.0074C35.2867 46.2213 35.3424 45.407 35.4108 44.5861C35.4717 43.8718 35.5416 43.1642 35.6166 42.4841C35.6612 42.1699 35.6976 41.8573 35.7333 41.5542C35.769 41.2512 35.8032 40.9615 35.8455 40.6533C35.9451 39.9361 36.0803 39.2092 36.2119 38.5046C36.2431 38.3367 36.274 38.1692 36.3048 38.0023C36.362 37.6741 36.3709 37.6741 36.3731 37.6741ZM25.8372 49.3857C25.8372 49.3857 25.6804 49.5383 25.4188 49.7895C25.6418 50.0118 25.8796 50.2437 26.107 50.4712L26.1144 50.4786L26.4035 50.7668C26.5721 50.5838 26.7111 50.4297 26.8233 50.3059L26.8278 50.3007L25.8372 49.3857ZM25.557 45.5144C25.3178 45.5144 24.9626 45.8901 24.7277 46.139C24.5984 46.2753 24.4468 46.4435 24.3131 46.5917C24.1793 46.7399 24.0827 46.8473 24.0158 46.9192C24.0104 46.9242 24.0062 46.9303 24.0032 46.9371C24.0003 46.9438 23.9987 46.9511 23.9987 46.9585C23.9996 46.9662 24.002 46.9736 24.0058 46.9804C24.0096 46.9872 24.0148 46.9931 24.021 46.9977C24.1734 47.1341 25.2754 48.1388 26.2504 49.0241L26.2667 49.039L26.2912 49.0612C26.9749 49.6843 27.5657 50.2222 27.6474 50.2963C27.6642 50.316 27.6878 50.3284 27.7136 50.3311C27.746 50.3265 27.7753 50.3095 27.7953 50.2837C27.8652 50.2133 27.9521 50.1229 28.0435 50.0281C28.1349 49.9333 28.2442 49.8191 28.3475 49.7147L25.7874 47.32L25.1639 46.7347C25.1441 46.7192 25.1301 46.6974 25.1243 46.6729C25.1185 46.6484 25.1212 46.6226 25.132 46.5999C25.1446 46.5836 25.1974 46.5258 25.2442 46.4798C25.2769 46.4458 25.3044 46.4169 25.314 46.4058C25.3214 46.3984 25.3303 46.3927 25.34 46.389C25.3497 46.3853 25.3601 46.3837 25.3705 46.3843C25.3871 46.3843 25.4035 46.388 25.4185 46.395C25.4335 46.4021 25.4468 46.4123 25.4575 46.425C25.4991 46.4754 26.4703 47.3764 26.4807 47.3882L27.8317 48.584L28.6781 49.3338C28.7487 49.2598 28.7733 49.2398 28.7874 49.2272C28.798 49.2182 28.8077 49.2083 28.8164 49.1975C28.9405 49.0597 28.9137 48.9701 28.4834 48.5537C28.3601 48.4366 26.3121 46.3917 26.292 46.3709C26.2058 46.2739 26.1746 46.1968 26.1991 46.142C26.2236 46.0872 26.3232 46.0486 26.48 46.0471H26.9051C27.1876 46.0579 27.4705 46.0421 27.75 45.9997C27.7269 45.9093 27.7099 45.8278 27.698 45.7575C27.692 45.713 27.6868 45.6663 27.6809 45.6174L27.6764 45.5759H27.6668C27.6636 45.5765 27.6603 45.5765 27.6571 45.5759L27.5828 45.5944C27.3022 45.6707 27.013 45.711 26.7223 45.7145C26.5501 45.7142 26.3782 45.6989 26.2088 45.6685C26.0331 45.6363 25.8594 45.594 25.6886 45.5418L25.6143 45.5204C25.5956 45.5157 25.5763 45.5137 25.557 45.5144ZM21.3956 46.362C21.4059 46.3613 21.4162 46.3627 21.4259 46.3661C21.4357 46.3696 21.4446 46.375 21.4521 46.382L21.5167 46.4495C21.5628 46.4976 21.62 46.5569 21.6349 46.5747C21.646 46.5972 21.6492 46.6228 21.6438 46.6473C21.6384 46.6718 21.6247 46.6938 21.6051 46.7095C21.5561 46.7562 18.458 49.6606 18.4276 49.6895C18.5324 49.7962 18.6409 49.9081 18.7404 50.011C18.84 50.114 18.9136 50.1903 18.9805 50.2578C18.9901 50.2707 19.0022 50.2817 19.0161 50.2899C19.03 50.2982 19.0454 50.3036 19.0615 50.3059C19.0878 50.3032 19.1121 50.2907 19.1298 50.2711L20.5856 48.9434C21.4818 48.1284 22.5965 47.1096 22.7473 46.9733C22.754 46.9685 22.7596 46.9624 22.7638 46.9554C22.768 46.9484 22.7708 46.9406 22.7718 46.9325C22.772 46.9256 22.7707 46.9188 22.768 46.9124C22.7653 46.906 22.7613 46.9002 22.7562 46.8955C22.6856 46.8214 22.5764 46.7006 22.4486 46.5599C22.3208 46.4191 22.1677 46.2487 22.0414 46.1153C21.8065 45.8664 21.4513 45.4907 21.2106 45.4907C21.1915 45.4905 21.1725 45.493 21.1541 45.4981L21.1206 45.5078C20.9363 45.5655 20.7484 45.6113 20.5581 45.6448C20.3881 45.6753 20.2158 45.6906 20.0431 45.6908C19.7544 45.6872 19.4673 45.6474 19.1885 45.5722L19.1075 45.553L19.0726 45.5433L19.0369 45.5337C19.031 45.593 19.0236 45.6522 19.0161 45.7085L19.0102 45.753C19.0013 45.8034 18.9871 45.8797 18.9671 45.9612C19.2651 46.0128 19.5678 46.032 19.87 46.0183H20.2839C20.4422 46.0183 20.5403 46.0523 20.5678 46.1138C20.5952 46.1753 20.5611 46.245 20.4749 46.342C20.4541 46.3628 18.4016 48.4047 18.2842 48.5248C17.8531 48.9278 17.8242 49.0293 17.949 49.1686C17.958 49.1796 17.9679 49.1898 17.9787 49.199C17.9936 49.2116 18.0181 49.2331 18.088 49.3042L18.9359 48.5559L20.2883 47.3623C20.298 47.3534 21.2693 46.4517 21.3116 46.3991C21.3227 46.3876 21.336 46.3785 21.3506 46.3723C21.3653 46.366 21.3811 46.3628 21.3971 46.3628L21.3956 46.362ZM23.9393 47.6468C23.8999 47.6898 23.8434 47.7498 23.7728 47.8246L23.6242 47.9795C24.0285 48.4055 24.6423 49.0427 25.0428 49.4324C25.294 49.1909 25.4493 49.0397 25.4508 49.0382L23.9363 47.6475L23.9393 47.6468ZM29.02 47.6957L29.0348 47.7024L29.014 47.7112C28.7837 47.7735 28.8008 47.8668 28.8067 47.8972C28.8126 47.9276 28.8186 47.9513 28.826 47.9809C28.8776 48.1437 28.8776 48.3183 28.826 48.4811L28.8595 48.5137C28.9943 48.4362 29.0984 48.3152 29.1547 48.1705C29.2109 48.0259 29.2158 47.8664 29.1686 47.7187V47.6942L29.1901 47.6809C29.4547 47.5275 29.3915 46.9977 29.0125 46.1901C28.8483 45.8493 28.7435 45.184 28.8751 45.118C28.8811 45.1135 28.8883 45.1107 28.8959 45.1099C28.9048 45.1091 28.9137 45.1091 28.9226 45.1099C28.9739 45.1099 29.0482 45.141 29.208 45.3729C29.3299 45.55 29.4517 45.7004 29.6056 45.8916L29.6174 45.9064C29.757 46.0437 29.8449 46.2248 29.8664 46.4191C29.8685 46.442 29.8653 46.4652 29.8569 46.4866C29.8485 46.5081 29.8352 46.5274 29.8181 46.5428C29.7842 46.5653 29.7443 46.5771 29.7036 46.5769H29.6553C29.5893 46.5754 29.5235 46.5692 29.4584 46.5584L29.4948 46.5969C29.5944 46.7021 29.801 46.9214 29.9132 46.9214C29.9225 46.9218 29.9317 46.92 29.9402 46.9163C29.9487 46.9126 29.9562 46.907 29.9622 46.8999C30.0172 46.837 30.0492 46.8096 30.07 46.8096C30.0908 46.8096 30.0997 46.837 30.1124 46.874C30.1275 46.9418 30.165 47.0025 30.2189 47.0464C30.2728 47.0904 30.34 47.115 30.4096 47.1163H30.4408C30.5038 47.1148 30.5659 47.1005 30.6231 47.074C30.6803 47.0476 30.7314 47.0097 30.7732 46.9627C30.815 46.9157 30.8467 46.8606 30.8662 46.8009C30.8858 46.7411 30.8927 46.678 30.8867 46.6154C30.8859 46.5275 30.8764 46.4399 30.8584 46.3539L30.8525 46.3205C30.7797 46.0407 30.6368 45.784 30.4371 45.5744L30.3427 45.4744C29.607 44.6668 29.6977 44.5112 29.7363 44.4453C29.8106 44.3208 29.8768 44.286 30.0566 44.2823H30.1131C30.2923 44.2841 30.4712 44.2967 30.6489 44.3201H30.6533L30.7277 44.3334C31.0175 44.3868 31.415 44.4608 31.3965 44.6024C31.3914 44.6208 31.3821 44.6379 31.3692 44.6521C31.3562 44.6662 31.3401 44.6771 31.3221 44.6839C31.2437 44.7204 31.1603 44.7454 31.0747 44.758C31.0561 44.758 31.0435 44.7535 31.039 44.7446C31.1109 44.8275 31.2016 44.892 31.3036 44.9328C31.4455 44.9899 31.5965 45.021 31.7494 45.0247C31.808 45.0316 31.8673 45.0239 31.9221 45.0021C31.9769 44.9804 32.0253 44.9454 32.063 44.9002L32.1106 44.7972C32.1938 44.7972 32.4353 44.7602 32.4822 44.5964C32.5275 44.4483 32.3335 44.2364 32.1247 44.1304C31.7821 43.9758 31.4299 43.8434 31.0702 43.734C30.9959 43.7125 30.9067 43.6918 30.8228 43.6725C30.7388 43.6533 30.6377 43.6295 30.559 43.6058L29.7044 43.3836L29.6553 43.3673C29.5312 43.3265 29.2095 43.2191 29.069 43.1591H29.0653C28.9843 43.122 28.9167 43.0924 28.8862 43.0739C28.7418 43.0008 28.6169 42.8943 28.5221 42.7634C28.3985 42.5093 28.3066 42.2411 28.2486 41.9647L28.2397 41.9069L28.291 41.9366C28.4824 42.0589 28.696 42.1427 28.9197 42.1833C28.8832 41.9291 28.874 41.6718 28.8922 41.4157C29.0237 40.0242 29.0534 39.2078 29.0534 39.1996C29.0534 39.1915 29.1017 39.2485 29.1537 39.3026C29.228 39.3767 29.3142 39.4686 29.3358 39.493C29.3546 39.1787 29.3404 38.8634 29.2934 38.552C29.2778 38.3957 29.2622 38.2342 29.2489 38.0705C29.2497 38.0668 29.2497 38.063 29.2489 38.0593C29.1897 37.511 29.0979 36.9667 28.9739 36.4293C28.971 36.4165 28.971 36.4033 28.9738 36.3905C28.9767 36.3777 28.9823 36.3656 28.9902 36.3552C28.996 36.3495 29.0028 36.345 29.0103 36.3419C29.0183 36.3396 29.0265 36.3378 29.0348 36.3367C29.1047 36.3507 29.1698 36.3821 29.2243 36.4278L29.2786 36.4604C29.3239 36.4879 29.3715 36.5168 29.4272 36.5479C29.3135 36.2047 29.2573 35.8453 29.2607 35.4839L29.2548 35.3802C29.2485 34.9665 29.1926 34.5551 29.0883 34.1547C29.0735 34.1371 29.0619 34.1171 29.0542 34.0954C28.9596 34.3214 28.8297 34.531 28.6692 34.7163L28.6536 34.7371C28.4049 35.0173 28.2309 35.3554 28.1476 35.7203L28.1364 35.8003L28.0911 35.7595C28.0152 35.6528 27.9328 35.5509 27.8444 35.4543C27.7864 35.3861 27.7507 35.3446 27.75 35.3417C27.3573 36.1818 26.843 36.9599 26.2236 37.6511V37.6555C25.8545 38.3391 25.6447 39.0968 25.6098 39.8724C25.5115 40.6557 25.5115 41.4481 25.6098 42.2314L25.9992 41.8106C26.0002 41.8177 26.0002 41.825 25.9992 41.8321C26.0051 42.1172 25.9942 42.4025 25.9665 42.6864C25.9432 42.9089 25.8904 43.1274 25.8097 43.3361C25.8575 43.3427 25.9057 43.3457 25.9539 43.345C26.1896 43.3433 26.4219 43.2885 26.6335 43.1847C26.845 43.0809 27.0303 42.9308 27.1756 42.7456L27.2833 43.0279C27.3799 43.2998 27.4609 43.6355 27.2343 43.8118C27.1666 43.8622 26.8315 44.1823 26.8768 44.4823C26.8887 44.5463 26.9139 44.6071 26.9508 44.6609C26.9876 44.7146 27.0353 44.76 27.0908 44.7943L27.105 44.8046L27.1087 44.8217C27.1161 44.8912 27.142 44.9575 27.1836 45.0138C27.2253 45.0701 27.2812 45.1142 27.3457 45.1418C27.3195 45.0421 27.3221 44.937 27.3532 44.8387C27.3759 44.7649 27.4206 44.6997 27.4814 44.6518C27.5422 44.6039 27.6162 44.5755 27.6935 44.5705H27.7262C27.7765 44.571 27.8265 44.5782 27.8748 44.592C27.8748 44.5987 27.967 45.4855 28.0443 45.8456C28.1308 46.2407 28.196 46.6401 28.2397 47.0422C28.2479 47.1326 28.2583 47.2296 28.2717 47.3489C28.3066 47.6527 28.4834 47.6809 28.6432 47.7053C28.6779 47.7099 28.713 47.7118 28.748 47.7112C28.8453 47.7112 28.9657 47.7024 29.0215 47.6972L29.02 47.6957ZM17.7989 45.1114C17.8123 45.1114 17.8256 45.1136 17.8383 45.118C17.9438 45.1921 17.8851 45.8049 17.703 46.1901C17.3211 46.997 17.2572 47.5238 17.5225 47.6809L17.5433 47.6942V47.7187C17.4976 47.8666 17.5034 48.0256 17.5596 48.1699C17.6159 48.3141 17.7193 48.4353 17.8531 48.5137L17.8858 48.4811C17.8345 48.319 17.8345 48.1452 17.8858 47.9832C17.8933 47.9528 17.9007 47.9246 17.9052 47.898C17.9223 47.8157 17.8524 47.7498 17.6993 47.7112L17.6793 47.7024L17.6919 47.6957C17.7617 47.7024 17.8762 47.7098 17.9668 47.7098C18.0021 47.7103 18.0374 47.7084 18.0724 47.7038C18.2277 47.6794 18.4038 47.652 18.4395 47.3475C18.4476 47.2785 18.4551 47.2104 18.4618 47.1415C18.4618 47.1074 18.4684 47.0741 18.4722 47.0407C18.5175 46.6386 18.5845 46.2391 18.6728 45.8441C18.7471 45.4833 18.8422 44.5987 18.8437 44.5905H18.8474C18.8932 44.5777 18.9404 44.571 18.9879 44.5705H19.0213C19.0986 44.5757 19.1725 44.6041 19.2332 44.652C19.294 44.6999 19.3387 44.765 19.3617 44.8387C19.3927 44.937 19.3953 45.0421 19.3691 45.1418C19.4338 45.1143 19.4901 45.0702 19.5321 45.0139C19.5741 44.9577 19.6005 44.8914 19.6084 44.8217V44.8046L19.6225 44.7943C19.6782 44.7604 19.7259 44.715 19.7626 44.6612C19.7992 44.6074 19.8239 44.5464 19.835 44.4823C19.8863 44.1489 19.485 43.8155 19.4806 43.8118C19.2532 43.6355 19.3319 43.2998 19.4293 43.0279L19.5564 42.6901C19.678 42.8375 19.8243 42.9628 19.9889 43.0605C20.2507 43.244 20.5628 43.3428 20.8828 43.3435C20.9325 43.3443 20.9822 43.3414 21.0315 43.3347C21.0315 43.3347 21.0315 43.3347 21.0315 43.3287C20.9536 43.1213 20.9022 42.905 20.8784 42.6849C20.8481 42.394 20.8372 42.1014 20.8457 41.8091L21.2358 42.23C21.3927 41.4962 21.4198 40.7407 21.3161 39.9976C21.2571 39.1616 21.0709 38.3394 20.7639 37.5592C20.7394 37.4985 20.7208 37.451 20.7082 37.411C20.6208 37.1485 20.5088 36.8948 20.3738 36.6531C20.3183 36.8276 20.2104 36.981 20.0647 37.0924C19.6152 36.5726 19.2571 35.9806 19.0057 35.3417C18.9196 35.4921 18.8097 35.6277 18.6802 35.7432L18.6193 35.8003L18.6059 35.7203C18.5212 35.3473 18.3421 35.0022 18.0857 34.7178L18.0798 34.7097C17.9216 34.5257 17.7932 34.3182 17.6993 34.0947C17.5848 34.535 17.522 34.987 17.5121 35.4417V35.4639C17.515 35.825 17.4588 36.1841 17.3456 36.5271C17.4125 36.4908 17.4704 36.453 17.518 36.4256L17.5477 36.4071C17.6443 36.3456 17.6926 36.316 17.735 36.316L17.7677 36.3212L17.7811 36.3345C17.7896 36.3446 17.7957 36.3566 17.7989 36.3694C17.8021 36.3822 17.8024 36.3956 17.7996 36.4086C17.6726 36.9493 17.5798 37.4974 17.5217 38.0497C17.4817 38.4973 17.4964 38.9482 17.5656 39.3922C17.6027 39.3522 18.0018 39.1418 18.0055 39.1396C17.8318 39.8778 17.789 40.6406 17.8792 41.3935C17.8942 41.6496 17.8858 41.9065 17.8539 42.161C18.0735 42.1216 18.2832 42.0398 18.4714 41.9202L18.4632 41.9506C18.4054 42.2331 18.3115 42.507 18.1838 42.7656C17.8037 43.1454 17.3063 43.3863 16.7719 43.4495C16.6976 43.468 16.6233 43.4858 16.549 43.5043L16.2227 43.5881C15.6579 43.7111 15.1079 43.8939 14.5819 44.1334C14.3716 44.2393 14.1792 44.452 14.2267 44.5994C14.2758 44.7631 14.5173 44.8002 14.5983 44.8002L14.6488 44.9032C14.6864 44.9484 14.7347 44.9835 14.7893 45.0052C14.844 45.027 14.9032 45.0347 14.9617 45.0276C15.1146 45.0236 15.2656 44.9925 15.4075 44.9358C15.5089 44.8945 15.5994 44.8307 15.6721 44.7491C15.6673 44.7534 15.6617 44.7567 15.6555 44.7586C15.6493 44.7605 15.6428 44.7611 15.6364 44.7602C15.5498 44.7478 15.4654 44.7228 15.386 44.6861C15.3682 44.6791 15.3522 44.668 15.3394 44.6539C15.3265 44.6398 15.317 44.6229 15.3117 44.6046C15.3102 44.589 15.3121 44.5733 15.3174 44.5586C15.3227 44.5439 15.3311 44.5305 15.3422 44.5194C15.5175 44.3238 16.4004 44.2838 16.6277 44.2838H16.6515C16.8336 44.2838 16.8997 44.3208 16.9726 44.4468C17.0112 44.5127 17.1011 44.669 16.3639 45.4759C16.0441 45.7736 15.8501 46.1816 15.8215 46.6169C15.8154 46.6798 15.8225 46.7433 15.8423 46.8034C15.8621 46.8634 15.8941 46.9187 15.9365 46.9658C15.9788 47.0129 16.0304 47.0507 16.0881 47.0768C16.1459 47.103 16.2084 47.1169 16.2718 47.1178H16.3037C16.3734 47.1169 16.4406 47.0925 16.4946 47.0487C16.5486 47.0048 16.5861 46.944 16.601 46.8762C16.6136 46.8384 16.6225 46.8118 16.6434 46.8118C16.6642 46.8118 16.6961 46.8384 16.7511 46.9022C16.7571 46.9092 16.7647 46.9148 16.7732 46.9185C16.7817 46.9222 16.7909 46.924 16.8001 46.9237C16.9124 46.9237 17.1189 46.7051 17.2185 46.6006L17.2572 46.5606H17.2423C17.1859 46.5687 17.1291 46.5734 17.0721 46.5747C17.0378 46.5787 17.0031 46.5753 16.9703 46.5647C16.9374 46.5541 16.9073 46.5365 16.8819 46.5132C16.8649 46.4897 16.8532 46.4629 16.8477 46.4345C16.8421 46.4061 16.8429 46.3768 16.8499 46.3487C16.8988 46.1705 16.9918 46.0075 17.1204 45.8745L17.1546 45.8323C17.1791 45.8019 17.2133 45.7493 17.2572 45.6841C17.4058 45.4537 17.628 45.1121 17.8011 45.1121L17.7989 45.1114ZM23.4629 47.1437C23.4629 47.3875 23.4719 47.569 23.4756 47.6512L23.7208 47.3882C23.713 47.382 23.7056 47.3753 23.6985 47.3682C23.645 47.3193 23.5157 47.2022 23.4644 47.1444L23.4629 47.1437ZM23.4837 44.9365C23.4555 45.1314 23.4488 45.7952 23.4637 46.8562C23.4808 46.8318 23.7141 46.5532 23.839 46.4258C23.8431 46.4206 23.8476 46.4156 23.8523 46.4109L23.859 46.4035C23.8192 45.8967 23.6922 45.4005 23.4837 44.9365ZM22.8893 45.321C22.7489 45.5458 22.6531 45.7953 22.6069 46.056L22.6128 46.062C22.8105 46.2665 22.9309 46.3909 22.9524 46.4124C22.9442 46.1672 22.9242 45.5693 22.89 45.321H22.8893ZM24.0953 44.3023C24.1429 44.5838 24.1912 45.1603 24.2395 46.016L24.2722 45.9819C24.3777 45.8745 24.4855 45.7641 24.5932 45.6582V45.6522C24.5291 45.1705 24.3575 44.7092 24.0909 44.3023H24.0953ZM22.2948 44.1089C22.0779 44.4876 21.9364 44.9045 21.8779 45.3366C21.8838 45.3403 22.1112 45.5589 22.1513 45.6041C22.2421 45.1107 22.2901 44.6105 22.2948 44.1089ZM21.6616 43.9733C21.2625 44.3559 20.913 44.7867 20.6213 45.2559V45.2603C20.6584 45.247 20.7119 45.2247 20.7743 45.1995C20.913 45.1394 21.0549 45.0869 21.1994 45.0425C21.2366 45.0343 21.302 45.0217 21.3205 45.0202C21.4178 44.6655 21.5342 44.3163 21.6691 43.9741L21.6616 43.9733ZM24.7708 44.0259C24.9268 44.3806 25.0584 44.7455 25.1647 45.118C25.1907 45.104 25.207 45.0936 25.2286 45.0832C25.2818 45.0562 25.3406 45.042 25.4002 45.0417H25.4188C25.49 45.0472 25.5602 45.0619 25.6276 45.0854C25.6276 45.0854 25.6856 45.1047 25.7131 45.1143C25.4344 44.7233 25.12 44.359 24.7738 44.0259H24.7708ZM24.27 42.7901C24.2069 42.9544 24.1019 43.0995 23.9653 43.2109C23.841 43.3223 23.7243 43.4419 23.616 43.5688C23.5363 43.6669 23.4689 43.7744 23.4154 43.8889C23.5262 43.8373 23.6336 43.7789 23.7372 43.714C23.9291 43.6136 24.0895 43.4623 24.2009 43.2769C24.2787 43.1274 24.3048 42.9566 24.2752 42.7908L24.27 42.7901ZM22.6678 42.8716C22.6864 43.2591 23.1464 43.5881 23.1508 43.591C23.1296 43.443 23.0755 43.3016 22.9924 43.1772C22.9094 43.0527 22.7995 42.9483 22.6708 42.8716H22.6678ZM31.1936 42.3255C31.424 42.3255 32.1901 43.0664 32.5089 43.3858C32.5966 43.4754 32.6657 43.5243 32.7029 43.5243C32.7072 43.5247 32.7116 43.5237 32.7154 43.5216C32.7193 43.5195 32.7224 43.5163 32.7244 43.5125C32.7385 43.4851 32.711 43.4162 32.6538 43.3369C32.0892 42.673 31.4204 42.1048 30.6734 41.6543C30.5127 41.5395 30.3262 41.4659 30.1302 41.4401C30.1073 41.4371 30.084 41.4404 30.0628 41.4495C30.0416 41.4586 30.0233 41.4733 30.0098 41.492C29.9845 41.5379 30.0001 41.6083 30.0559 41.6972C30.1533 41.9258 30.1978 42.1734 30.186 42.4215C30.1741 42.6696 30.1063 42.9118 29.9875 43.1302L30.6511 43.305C30.747 43.3347 30.8518 43.3584 30.9684 43.3843C31.0816 43.0761 31.1351 42.7492 31.126 42.4211C31.1228 42.3948 31.13 42.3682 31.146 42.347C31.1523 42.3399 31.1601 42.3342 31.1688 42.3305C31.1776 42.3268 31.1871 42.3251 31.1966 42.3255H31.1936ZM16.6396 41.4172C16.4431 41.4429 16.2561 41.5173 16.0957 41.6335C15.3505 42.0829 14.6834 42.6499 14.1205 43.3124C14.0625 43.3917 14.0335 43.4606 14.0462 43.488C14.0482 43.4919 14.0513 43.4951 14.0551 43.4972C14.059 43.4993 14.0633 43.5002 14.0677 43.4999C14.1049 43.4999 14.1747 43.451 14.2631 43.3613C14.5805 43.0427 15.3429 42.3018 15.5755 42.3018C15.5843 42.3013 15.5932 42.3026 15.6015 42.3056C15.6098 42.3087 15.6174 42.3135 15.6238 42.3196C15.6321 42.3306 15.6382 42.3432 15.6416 42.3565C15.6451 42.3699 15.6458 42.3838 15.6439 42.3974C15.6342 42.7294 15.6895 43.06 15.8066 43.371C15.9092 43.3473 15.9894 43.3272 16.0593 43.3065L16.7868 43.1153C16.667 42.8959 16.5982 42.6524 16.5854 42.4029C16.5725 42.1533 16.6159 41.9041 16.7125 41.6735C16.7682 41.5846 16.7868 41.5135 16.7593 41.4675C16.7458 41.4489 16.7275 41.4342 16.7063 41.4251C16.6851 41.4159 16.6618 41.4127 16.6389 41.4157L16.6396 41.4172ZM21.9277 40.8244C21.9055 41.0636 21.9655 41.3032 22.0978 41.5039C22.3474 41.7781 22.6361 42.0143 22.9546 42.2048C23.1659 42.3231 23.3446 42.4916 23.4748 42.6952V42.6915V42.6849C23.4753 42.6868 23.4753 42.6896 23.4748 42.6915C23.546 42.5687 23.6437 42.4624 23.7609 42.3818C23.7973 42.3552 23.8783 42.3033 23.9839 42.2374C24.339 42.0327 24.6698 41.7886 24.97 41.5098C25.0807 41.3417 25.1612 41.1557 25.2078 40.96C25.0728 41.1442 24.9004 41.298 24.7017 41.4112C24.2894 41.6256 23.9117 41.9003 23.5811 42.2262C23.5324 42.3098 23.5002 42.4018 23.486 42.4974C23.4775 42.4266 23.4577 42.3575 23.4273 42.2929C23.2705 42.042 23.0494 41.8374 22.7867 41.7002C22.5658 41.569 22.364 41.4082 22.187 41.2223C22.0725 41.1102 21.9835 40.9744 21.9277 40.8244ZM24.8407 39.6493C24.681 39.9301 24.484 40.188 24.2551 40.4162C23.9996 40.6555 23.8146 40.9599 23.7201 41.2964C23.9177 41.1072 24.1408 40.9463 24.3829 40.8185C24.874 40.4967 25.2204 39.9973 25.349 39.4256C25.1862 39.6943 24.9809 39.9349 24.7411 40.1383C24.7931 39.9799 24.8268 39.8161 24.8414 39.6501L24.8407 39.6493ZM22.1112 39.6204C22.0734 39.8395 22.106 40.0649 22.2042 40.2644C22.3024 40.464 22.4612 40.6276 22.6581 40.7318C22.8103 40.8321 22.9457 40.9556 23.0594 41.0978C23.0507 40.9417 23.0054 40.7897 22.9272 40.6541C22.849 40.5185 22.7401 40.403 22.6091 40.3169C22.3736 40.1421 22.1996 39.8976 22.112 39.6182L22.1112 39.6204ZM23.2259 38.5091C23.2372 38.5351 23.2511 38.56 23.2675 38.5832C23.5219 39.0072 23.6778 39.4826 23.7238 39.9746C24.3257 39.5108 24.5791 38.0519 24.6059 37.8874C24.7623 38.057 24.8728 38.2636 24.9269 38.4876C25.3495 37.9845 25.639 37.3839 25.7688 36.7405C25.7852 36.6812 25.8015 36.6242 25.8171 36.5686C25.8765 36.8986 25.8845 37.2357 25.8409 37.5681L25.8461 37.5622C26.2617 36.9736 26.4943 36.276 26.5149 35.5565C26.5402 35.5869 26.5714 35.6173 26.6034 35.6491C26.7147 35.7413 26.7961 35.8643 26.8374 36.0026C27.3279 35.0054 27.6663 33.9408 27.8414 32.844C27.9432 32.8885 27.9506 32.8996 27.9603 32.9144C27.9699 32.9292 27.9818 32.947 28.1 33.007C28.4844 32.0087 28.715 30.958 28.7837 29.8907C28.8082 29.897 28.833 29.9019 28.858 29.9056C28.9283 29.9084 28.9958 29.9345 29.0497 29.9797C29.1582 29.2387 29.2667 28.0399 29.3009 27.1931C29.3557 26.163 29.2539 25.1306 28.9992 24.1309L28.9085 23.8819C28.703 23.2353 28.4153 22.6175 28.0524 22.0437C27.9502 22.0933 27.8598 22.164 27.7871 22.2512C27.5843 21.6487 27.3502 21.0571 27.0856 20.4789C27.0039 20.3196 26.9303 20.1729 26.8627 20.0306C26.6739 19.4983 26.3436 19.0271 25.9071 18.6674C25.9788 18.6721 26.0503 18.6807 26.1211 18.6933C26.2108 18.7097 26.3018 18.7182 26.3931 18.7185C26.4243 18.7185 26.4577 18.7185 26.4926 18.7185C26.3722 18.6044 26.2808 18.5051 26.1954 18.4095C26.0445 18.237 25.877 18.0796 25.6953 17.9398C25.7726 17.8949 25.8617 17.8742 25.9509 17.8805C26.0887 17.8846 26.226 17.9005 26.3611 17.9279C26.2264 17.7976 26.1033 17.6558 25.9933 17.5041C25.6232 16.9661 25.0897 16.5607 24.4714 16.3476C24.5157 16.3396 24.5608 16.3356 24.6059 16.3357C24.6772 16.3373 24.7485 16.3432 24.8191 16.3535H24.8377C24.9296 16.3654 25.0222 16.3718 25.1149 16.3727H25.1595C24.8819 15.9719 24.474 15.679 24.0047 15.5437C23.5188 15.4478 23.0249 15.3982 22.5296 15.3955C22.0972 15.3606 21.6623 15.4163 21.2527 15.5589C20.8432 15.7016 20.4681 15.9281 20.1516 16.2238C20.061 16.2863 19.9586 16.3299 19.8506 16.352C19.7919 16.3705 19.7317 16.389 19.673 16.4098C19.5904 16.4366 19.5124 16.4761 19.4419 16.5269H19.4375C19.297 16.6269 19.2651 16.7684 19.5385 17.1633C19.4517 17.1471 19.3691 17.1132 19.2961 17.0635C19.223 17.0139 19.1611 16.9498 19.1142 16.8751C19.0815 16.8321 19.0585 16.801 19.0399 16.801C19.0367 16.8001 19.0334 16.8001 19.0302 16.801C18.8769 16.8993 18.7476 17.0307 18.652 17.1855C18.5214 17.4003 18.4532 17.6471 18.4551 17.8983C18.5071 17.9335 18.5683 17.9528 18.6312 17.9539C18.7137 17.9539 18.8199 17.9131 18.8541 17.7197C18.8772 17.5982 19.4226 17.5449 19.6262 17.5449H19.6351C19.7472 17.5468 19.859 17.5545 19.9703 17.5678H20.0015C20.1354 17.5842 20.2701 17.5931 20.405 17.5945C20.4399 17.5945 20.4793 17.5945 20.5135 17.5945C20.4043 17.6338 20.084 17.7271 19.9116 17.7775L19.8544 17.7938C19.8199 17.799 19.7884 17.8161 19.7653 17.8421C19.7422 17.8681 19.729 17.9014 19.728 17.9361C19.7325 17.982 19.7711 18.0102 19.8321 18.0183C19.8472 18.0191 19.8623 18.0191 19.8774 18.0183C19.9468 18.0162 20.0151 18.0001 20.078 17.9709C20.1224 17.9542 20.1678 17.9406 20.214 17.9302C20.2512 17.9531 20.2497 18.0087 20.2475 18.0739C20.2398 18.1337 20.2488 18.1944 20.2735 18.2495C20.4624 18.2016 20.6607 18.2051 20.8478 18.2597C21.0348 18.3143 21.2037 18.418 21.3369 18.5599L21.351 18.5703C21.5805 18.7858 21.8802 18.9118 22.1952 18.9252C22.2868 18.9247 22.3781 18.9152 22.4679 18.897C22.2313 18.7017 22.0113 18.487 21.8102 18.2554C21.6129 18.0094 21.377 17.7967 21.1117 17.6256C21.5773 17.7246 22.0166 17.9211 22.4003 18.2021C22.8473 18.5418 23.38 18.7513 23.9393 18.8074C23.8998 18.7008 23.8529 18.597 23.7988 18.497C24.0158 18.5096 24.225 18.5822 24.403 18.7066C24.4584 18.7481 24.5219 18.7774 24.5895 18.7926H24.5984C24.332 19.0021 24.0069 19.124 23.668 19.1415C23.7342 19.2623 24.0441 19.3053 24.2298 19.3305C24.2707 19.3364 24.3042 19.3409 24.3316 19.3453C24.244 19.4291 24.1404 19.4946 24.0269 19.5379C23.9134 19.5812 23.7924 19.6013 23.671 19.5972C23.5461 19.5958 23.4217 19.5822 23.2995 19.5565C23.2616 19.5913 23.2207 19.6365 23.1731 19.6891C22.8752 20.0269 22.5238 20.3138 22.1328 20.5382C22.1384 20.4179 22.1518 20.2981 22.1729 20.1796C21.9414 20.326 21.7288 20.5002 21.5398 20.6982C21.3788 20.8807 21.185 21.0315 20.9683 21.1428C21.0395 21.0106 21.0996 20.8728 21.1481 20.7308C21.186 20.6308 21.2224 20.5367 21.2544 20.47C20.1041 21.3936 19.0798 22.4631 18.2076 23.6515C17.6502 24.7564 17.4323 26.0008 17.5812 27.2286C17.6243 27.954 17.8896 29.7863 18.0166 30.6672V30.6783C18.0412 30.8495 18.0605 30.9829 18.0716 31.0629L18.1519 31.0258C18.2133 30.9951 18.2766 30.9681 18.3414 30.9451C18.6904 32.746 19.279 34.4924 20.0914 36.1381C20.1433 35.9815 20.2444 35.8456 20.3797 35.7506C20.4626 36.2829 20.7221 36.7721 21.1169 37.1399C21.1109 36.957 21.1521 36.7756 21.2366 36.6131C21.2533 36.5788 21.2677 36.5434 21.2797 36.5071C21.3122 36.6396 21.3343 36.7743 21.3458 36.9102C21.3582 37.5117 21.5731 38.0915 21.9559 38.5565C21.9428 38.3377 21.9716 38.1185 22.0406 37.9104C22.0651 37.8134 22.0911 37.7133 22.1149 37.5992C22.1549 37.74 22.1876 37.8827 22.213 38.0267C22.2501 38.2723 22.318 38.5123 22.4151 38.741C22.5514 39.1063 22.7821 39.4291 23.084 39.6768C23.0543 39.3738 23.0818 39.068 23.1649 38.7751C23.1931 38.6891 23.2121 38.6005 23.2214 38.5106L23.2259 38.5091ZM21.3295 38.3609C21.3196 38.5346 21.3407 38.7087 21.3919 38.8751C21.4358 39.0218 21.5316 39.1477 21.6616 39.2292C21.7376 39.2813 21.8207 39.3222 21.9083 39.3508C21.9006 39.203 21.8616 39.0586 21.7939 38.927C21.7307 38.8277 21.6528 38.7385 21.5628 38.6624C21.51 38.6113 21.4595 38.5639 21.4231 38.5209C21.3801 38.4753 21.3486 38.4206 21.3295 38.3609ZM18.273 33.3227C18.2897 33.6428 18.3806 33.9547 18.5386 34.2339C18.6965 34.5131 18.9172 34.7521 19.1833 34.9319C19.0046 34.4213 18.7441 33.9429 18.412 33.5153C18.3681 33.4434 18.3221 33.3797 18.2738 33.3123L18.273 33.3227ZM16.2458 27.3457L16.3201 27.6087C16.8725 29.536 17.2268 31.5143 17.3776 33.5131C17.5351 32.6273 17.5646 31.7236 17.4652 30.8295C17.4239 29.5715 16.9984 28.3561 16.2458 27.3457ZM30.7641 27.279C29.231 28.9416 29.4383 32.8292 29.6375 33.4486C29.7875 31.4488 30.1409 29.4693 30.692 27.5406L30.7641 27.279ZM37.8906 15.5059L36.9171 16.7891L36.9089 16.8003L36.7722 16.9803C38.3716 19.8314 39.5082 22.917 40.14 26.1225C40.515 28.039 40.7243 29.9841 40.7657 31.9364C40.7694 32.0631 40.7731 32.1742 40.7768 32.2728C42.668 31.2068 44.4609 29.9763 46.1347 28.5956L46.1644 28.5712C45.7929 21.9274 44.7525 17.1144 42.8085 12.9645C41.9705 13.1504 41.1151 13.247 40.2567 13.2528C40.0887 13.2528 39.946 13.2528 39.8026 13.2453C39.3258 14.1585 39.0977 15.1804 39.1412 16.209C38.6652 16.1008 38.2308 15.8573 37.8906 15.5081V15.5059ZM4.19316 12.966C2.24768 17.1151 1.21252 21.9311 0.837988 28.5704L0.881088 28.606C2.55206 29.9813 4.34064 31.208 6.22633 32.272C6.2293 32.191 6.23252 32.1007 6.23599 32.0009C6.33684 26.7074 7.72619 21.5176 10.2845 16.8781L9.70115 16.1068V16.1023L9.21069 15.454C8.83808 15.8208 8.37316 16.0806 7.86491 16.206C7.90731 15.1777 7.67958 14.156 7.20427 13.2424H7.19461C7.05565 13.2424 6.91149 13.249 6.74874 13.249C5.88924 13.2451 5.03258 13.1502 4.19316 12.966ZM15.2307 25.117C15.2659 26.2263 15.4691 27.3239 15.8334 28.3726C15.8727 27.0153 15.597 25.5245 15.2307 25.117ZM31.7792 25.0511C31.4128 25.4579 31.1364 26.9486 31.1758 28.3074C31.5372 27.2587 31.7406 26.1623 31.7792 25.0541V25.0511ZM29.7222 24.7466C29.723 25.0199 29.7479 25.2926 29.7965 25.5616C29.8758 26.07 29.9205 26.5831 29.9303 27.0975C30.3947 25.7098 30.0492 24.9185 29.7222 24.7466ZM14.4474 23.8723C14.3634 24.4142 14.3811 24.9669 14.4995 25.5023C14.5696 25.7531 14.6621 25.9971 14.7759 26.2314C14.8071 26.301 14.8376 26.3692 14.8666 26.4366C14.9008 25.5625 14.7583 24.6904 14.4474 23.8723ZM32.5654 23.8064C32.2535 24.6231 32.1104 25.4944 32.1448 26.3677L32.2332 26.1662L32.2406 26.1506C32.3523 25.9203 32.4431 25.6806 32.5119 25.4341C32.6297 24.8994 32.6478 24.3476 32.5654 23.8064ZM21.001 11.7294C19.4708 11.7702 17.9529 12.0141 16.4873 12.4548C14.4351 12.9978 12.5472 14.0331 10.9882 15.4703C13.0244 18.1554 16.7474 23.0602 16.8247 23.1566C16.888 23.2273 16.9655 23.284 17.0522 23.323C17.1388 23.362 17.2327 23.3826 17.3278 23.3833H17.4184C17.66 23.3437 17.8761 23.2105 18.0196 23.0128C18.1526 22.8646 18.2619 22.7454 18.3674 22.6283C18.5747 22.3971 18.7538 22.1971 19.0191 21.9274C19.6381 21.2969 20.217 20.7975 20.4949 20.5574C20.5588 20.5026 20.6042 20.4633 20.6272 20.4419C20.7507 20.349 20.8533 20.2314 20.9286 20.0967C21.0038 19.9619 21.05 19.813 21.0642 19.6594C21.0526 19.5744 21.024 19.4925 20.9801 19.4187C20.9362 19.3449 20.8779 19.2806 20.8085 19.2297C20.7634 19.1882 20.7209 19.1439 20.6815 19.0971C20.6676 19.1239 20.6504 19.1488 20.6302 19.1712L20.6116 19.1949C20.4925 19.0345 20.4016 18.8551 20.3426 18.6644L20.2683 18.8637C20.2683 18.857 19.9963 18.2347 19.5839 18.2347C19.5645 18.2346 19.5451 18.2358 19.5259 18.2384C19.4461 18.2491 19.3657 18.2546 19.2851 18.2547C19.0063 18.2554 18.7317 18.1874 18.4855 18.0568C18.4749 18.0508 18.464 18.0454 18.4528 18.0405C18.4505 18.0403 18.4482 18.0406 18.446 18.0413C18.4438 18.0421 18.4419 18.0434 18.4402 18.045C18.3961 18.185 18.3827 18.3328 18.4008 18.4784H18.3964C18.3898 18.4768 18.3838 18.4737 18.3785 18.4695C18.2635 18.363 18.1736 18.2324 18.1152 18.0872C18.0567 17.9419 18.0312 17.7856 18.0404 17.6293C18.0526 17.4193 18.1134 17.2149 18.2179 17.0321C18.3225 16.8494 18.468 16.6932 18.6431 16.5758C18.8687 16.3974 19.119 16.2524 19.3862 16.1453C19.4605 16.1157 19.5348 16.0816 19.6359 16.0356C19.7627 15.9675 19.8737 15.8733 19.9614 15.7593L19.9658 15.7541C20.2683 15.4648 20.645 15.2646 21.0545 15.1754C21.6315 15.046 22.2214 14.9829 22.8127 14.9872C22.9613 14.9872 23.101 14.9909 23.2385 14.9991C23.6911 15.0221 24.137 15.1176 24.559 15.2821C25.1243 15.5949 25.623 16.0144 26.0274 16.5172C26.4329 17.1749 26.7783 17.8674 27.0596 18.5866C27.2729 19.1052 27.397 19.4075 27.4892 19.632C27.6437 20.0092 27.7069 20.164 27.9484 20.7382C28.2354 21.5212 28.6148 22.2674 29.0787 22.961C29.1429 23.0564 29.2306 23.1337 29.3334 23.1856C29.4362 23.2375 29.5506 23.2622 29.6657 23.2573H29.7341C29.924 23.2614 30.1111 23.2115 30.2736 23.1136C30.3737 23.062 30.4587 22.9854 30.5203 22.8913L30.5322 22.8743C31.4054 21.6147 32.795 19.8202 34.1378 18.0865C34.8007 17.2307 35.4836 16.349 36.0863 15.5548C32.387 11.9147 27.1897 11.7302 26.185 11.7302C25.9895 11.7302 25.8067 11.7361 25.6574 11.7465C25.569 11.7479 25.4824 11.7718 25.4058 11.8159C25.3292 11.8599 25.2651 11.9228 25.2197 11.9984C25.1911 12.0971 25.1898 12.2017 25.216 12.3011C25.2421 12.4005 25.2948 12.491 25.3683 12.563C25.2358 12.6082 25.0958 12.6278 24.9559 12.6208C24.4398 12.6391 23.9315 12.4921 23.5053 12.2014C23.0794 12.492 22.5713 12.639 22.0555 12.6208C21.9153 12.6277 21.7751 12.6081 21.6423 12.563C21.7167 12.4916 21.7703 12.4015 21.7973 12.3022C21.8244 12.2029 21.824 12.0982 21.7961 11.9991C21.7506 11.923 21.6862 11.8599 21.6092 11.8157C21.5322 11.7714 21.4451 11.7476 21.3562 11.7465C21.2537 11.7391 21.1333 11.7354 20.9958 11.7354L21.001 11.7294ZM9.81039 14.5834C9.73162 14.6998 9.66845 14.7946 9.6142 14.8798C10.6932 16.312 11.6013 17.5175 11.7767 17.7583C12.2941 18.4673 12.8741 19.1289 13.5096 19.735C13.5123 19.7361 13.5152 19.7361 13.5178 19.735C13.5188 19.7326 13.5194 19.7299 13.5194 19.7272C13.5194 19.7246 13.5188 19.7219 13.5178 19.7195C13.1062 19.0276 12.6507 18.3626 12.1542 17.7286C11.3813 16.678 10.5914 15.6215 9.81039 14.5834ZM37.2218 14.7212C36.3493 15.8823 35.6568 16.8099 35.0429 17.6412C34.5462 18.276 34.0905 18.9417 33.6786 19.6343C33.6775 19.6367 33.677 19.6394 33.677 19.642C33.677 19.6447 33.6775 19.6474 33.6786 19.6498L33.6827 19.6507L33.6868 19.6498C34.3239 19.044 34.9046 18.3819 35.4219 17.6716C35.5787 17.4567 36.3471 16.4328 37.4283 14.9998C37.3522 14.9124 37.2829 14.8192 37.221 14.7212H37.2218ZM36.2557 11.9273H36.2654C36.9854 11.9273 37.1794 12.6215 37.3852 13.3565L37.3971 13.3972C37.5188 14.0794 37.8471 14.7079 38.3379 15.1984C38.4171 15.261 38.5019 15.316 38.5913 15.3629L38.6047 15.371C38.5994 14.5479 38.804 13.7369 39.1992 13.0142C39.2505 12.906 39.3032 12.7919 39.353 12.6822C39.354 12.6795 39.3555 12.677 39.3575 12.6748C39.4229 12.6845 39.4905 12.6956 39.5633 12.7082C39.8895 12.7696 40.2205 12.8016 40.5524 12.8038C40.9402 12.8007 41.3269 12.763 41.708 12.6911C41.1807 12.3354 40.7882 11.8136 40.5933 11.2093C40.4324 10.7661 40.1922 10.3557 39.8843 9.99791C39.7814 9.88492 39.6715 9.77851 39.5551 9.67932C39.3481 9.50999 39.0971 9.40283 38.8314 9.37036H38.812C38.7376 9.36941 38.6639 9.38501 38.5963 9.41603C38.5287 9.44704 38.4688 9.49269 38.4212 9.54966L38.306 9.67413C37.9686 10.0372 36.9431 11.1411 36.2401 11.9265L36.2557 11.9273ZM7.62414 12.6785C7.67095 12.783 7.72074 12.8875 7.76904 12.9897C8.16674 13.7168 8.37331 14.5325 8.36948 15.3607C8.69545 15.1312 8.97054 14.8372 9.17765 14.4971C9.38476 14.1571 9.51945 13.7781 9.57333 13.3839C9.79627 12.603 9.98725 11.9287 10.7081 11.9287H10.7304L9.77323 10.8566L9.76208 10.844C9.18765 10.2009 8.69125 9.64524 8.60728 9.55188L8.60356 9.54818C8.55568 9.49129 8.49569 9.44575 8.42795 9.41486C8.36021 9.38398 8.28642 9.36852 8.21194 9.36962C7.9388 9.39556 7.67983 9.50297 7.46882 9.67784C6.9934 10.0917 6.62915 10.6173 6.40914 11.2071C6.19984 11.8103 5.80081 12.33 5.27143 12.6889C5.65788 12.7616 6.05006 12.7998 6.44332 12.803C6.63059 12.8029 6.81768 12.7917 7.00363 12.7697C7.1634 12.7519 7.30608 12.7282 7.43167 12.7074C7.49781 12.6963 7.56097 12.686 7.62116 12.6771L7.62414 12.6785ZM25.9093 11.2189C27.4956 11.2449 29.0723 11.4702 30.6021 11.8895C32.7422 12.5552 34.7095 13.6815 36.3649 15.1888C36.4876 15.0287 36.6087 14.8687 36.7432 14.6909C34.7484 12.9292 32.3461 11.6888 29.7519 11.0811C28.4337 10.7949 27.0883 10.6513 25.7391 10.6529H25.4508C24.6668 10.664 24.18 10.9655 24.18 11.4412C23.7862 11.3671 23.6279 10.9433 23.5521 10.7388C23.5405 10.7049 23.5269 10.6718 23.5112 10.6395C23.4667 10.8744 23.2415 11.3805 22.8424 11.4412C22.8424 10.9655 22.3564 10.664 21.5739 10.6529H21.2856C19.9365 10.6516 18.5911 10.7952 17.2728 11.0811C14.6916 11.6392 12.2974 12.8487 10.3194 14.5938C10.445 14.7576 10.5713 14.925 10.6947 15.0902C12.3315 13.5974 14.2924 12.5022 16.4241 11.8902C17.9542 11.471 19.5311 11.2457 21.1177 11.2197C21.2373 11.2197 21.3488 11.2197 21.4483 11.2263C21.612 11.2124 21.7767 11.2382 21.9282 11.3017C22.0796 11.3652 22.2133 11.4645 22.3178 11.5909C22.3638 11.6589 22.3929 11.7367 22.4029 11.8181C22.4128 11.8995 22.4033 11.9821 22.375 12.0591C22.3978 12.0603 22.4206 12.0603 22.4434 12.0591C22.6494 12.0449 22.8503 11.9888 23.0338 11.8944C23.2173 11.8 23.3795 11.6692 23.5105 11.5101C23.6428 11.6709 23.8072 11.8027 23.9931 11.8969C24.1791 11.9911 24.3827 12.0459 24.591 12.0577C24.6118 12.0577 24.6324 12.0577 24.6527 12.0577C24.6242 11.9811 24.6143 11.8989 24.6237 11.8178C24.6332 11.7367 24.6617 11.6589 24.7069 11.5909C24.8115 11.4637 24.9456 11.3639 25.0976 11.3001C25.2497 11.2363 25.415 11.2105 25.5793 11.2249C25.6782 11.2212 25.7874 11.2189 25.9093 11.2189ZM5.44383 10.6003C4.99796 11.353 4.58404 12.1347 4.21248 12.9238C4.66875 12.6587 5.07024 12.3094 5.39553 11.8947C5.56858 11.65 5.72119 11.3915 5.8518 11.1219L5.44383 10.6032V10.6003ZM41.5341 10.6899C41.4115 10.85 41.1506 11.1952 41.1506 11.1952C41.4886 11.922 42.0564 12.518 42.7669 12.8919C42.3947 12.1365 41.9832 11.4011 41.5341 10.6884V10.6899ZM23.6599 9.6808C26.0407 9.65526 28.416 9.91244 30.7358 10.4469C32.4871 10.8747 34.1491 11.6068 35.6456 12.6096C35.5709 12.4436 35.5492 12.2588 35.5832 12.0801C35.6172 11.9014 35.7054 11.7373 35.8358 11.6101C36.3122 11.0515 38.1841 8.95841 38.2027 8.93766C37.1018 7.91876 35.8317 7.09823 34.4492 6.51265C31.6803 5.30495 28.0012 4.68999 23.5142 4.68999L23.5116 4.69052L23.509 4.68999C19.025 4.68999 15.3474 5.30421 12.5778 6.51561C11.194 7.10059 9.9229 7.92117 8.8213 8.94063C8.8213 8.94063 8.88149 9.00731 8.97512 9.11252C9.42099 9.6156 10.792 11.1471 11.1911 11.6138C11.3214 11.7411 11.4095 11.9052 11.4434 12.0839C11.4773 12.2626 11.4553 12.4474 11.3806 12.6133C12.8721 11.6071 14.5299 10.8707 16.2777 10.438C18.6118 9.89814 21.0033 9.64436 23.399 9.68228L23.6599 9.6808ZM44.9673 5.01303C44.3211 5.44925 43.6404 5.83233 42.9319 6.15849C42.9785 6.74214 42.821 7.3239 42.486 7.8048C42.4169 7.89223 41.6916 8.83171 40.6624 10.1757C40.6929 10.2246 40.811 10.4276 40.8378 10.4765C42.9958 7.62772 44.9673 5.01526 44.9673 5.01526V5.01303ZM2.23059 5.1012C2.23059 5.1012 4.11959 7.60179 6.21964 10.3839C6.27413 10.2845 6.33729 10.19 6.4084 10.1016C5.38512 8.76799 4.76834 7.96706 4.7074 7.89223C4.37349 7.41055 4.21604 6.82895 4.26153 6.24518C3.55483 5.91856 2.87566 5.53576 2.23059 5.10046V5.1012ZM33.7477 3.58899H33.7544C34.0117 3.78551 34.1828 4.07371 34.2317 4.3932C34.2806 4.71268 34.2035 5.03863 34.0167 5.30273C36.533 6.19277 38.7502 7.76548 40.4187 9.8438C40.5071 9.72822 40.5918 9.61634 40.6735 9.50743L40.7479 9.40518C39.1806 7.52462 37.1724 6.05852 34.901 5.13677C35.0103 4.83097 35.0282 4.50009 34.9523 4.18438C34.8764 3.86868 34.7102 3.58176 34.4737 3.35857C34.4747 3.22913 34.4425 3.10159 34.38 2.98811C34.3176 2.87462 34.227 2.77897 34.117 2.71027C34.117 2.71027 34.117 2.71027 34.1118 2.71027C34.0889 2.70765 34.0658 2.70642 34.0427 2.70656C33.7839 2.71593 33.5386 2.82416 33.3576 3.00886C33.0137 3.04587 32.6843 3.1673 32.399 3.36228C32.1137 3.55727 31.8814 3.81972 31.7227 4.12616C29.7702 3.67788 27.7798 3.41296 25.7778 3.33486C25.7575 2.87116 25.6076 2.42235 25.3449 2.03913C25.0823 1.65591 24.7174 1.35354 24.2915 1.1662C24.2218 1.00237 24.1149 0.856894 23.9792 0.741194C23.8436 0.625494 23.6829 0.542722 23.5098 0.499377C23.3371 0.543554 23.1769 0.626643 23.0415 0.742248C22.9061 0.857853 22.7991 1.00289 22.7287 1.1662C22.303 1.35383 21.9383 1.65626 21.6757 2.03942C21.4132 2.42259 21.2631 2.87125 21.2425 3.33486C19.2404 3.41282 17.2501 3.67775 15.2976 4.12616C15.1384 3.82013 14.9059 3.55802 14.6207 3.36311C14.3355 3.1682 14.0064 3.04651 13.6627 3.00886C13.483 2.82352 13.2382 2.71489 12.9798 2.70582C12.9549 2.7057 12.9301 2.70718 12.9055 2.71027C12.7947 2.77934 12.7034 2.87535 12.6401 2.98927C12.5768 3.1032 12.5436 3.23129 12.5436 3.36153C12.3082 3.58545 12.1427 3.8724 12.0671 4.18786C11.9914 4.50332 12.0087 4.83387 12.117 5.13973C9.86883 6.04202 7.88485 7.49445 6.3482 9.36295L6.44481 9.48964L6.6722 9.78601C8.32291 7.7321 10.5167 6.17922 13.0058 5.30273C12.8181 5.0397 12.7402 4.71426 12.7886 4.39507C12.837 4.07588 13.0079 3.78792 13.2651 3.59196C13.2675 3.59105 13.2702 3.59105 13.2726 3.59196C13.6125 3.5906 13.9428 3.7048 14.2089 3.91573C14.4751 4.12665 14.6612 4.4217 14.7365 4.75223C17.0493 4.16292 19.4216 3.83632 21.808 3.77867C21.794 3.3049 21.9187 2.83732 22.167 2.4331C22.4152 2.02887 22.7762 1.70552 23.2058 1.50258C23.2127 1.40626 23.2441 1.31328 23.2971 1.2324C23.35 1.15152 23.4227 1.08539 23.5083 1.04025H23.5127C23.5984 1.08565 23.6712 1.15191 23.7243 1.23287C23.7775 1.31382 23.8092 1.40685 23.8167 1.50332C24.2464 1.70607 24.6075 2.02923 24.856 2.43331C25.1045 2.83738 25.2296 3.30488 25.216 3.77867C27.6008 3.83562 29.9715 4.16122 32.283 4.74927C32.3591 4.419 32.5455 4.12431 32.8116 3.91351C33.0778 3.7027 33.4078 3.58828 33.7477 3.58899ZM26.8895 39.5182C26.8455 38.8549 26.9734 38.1915 27.261 37.5918C27.3266 37.442 27.3807 37.2874 27.423 37.1295C27.5032 37.2747 27.5449 37.4379 27.5441 37.6037C27.8001 37.2744 27.9701 36.8869 28.0391 36.476C28.0606 36.3871 28.0792 36.3108 28.097 36.2582C28.1419 36.6231 28.2421 36.9791 28.3943 37.314C28.4471 37.4322 28.4915 37.5541 28.5273 37.6785C28.3616 37.6643 28.2024 37.6076 28.0651 37.514C27.9695 37.8875 27.7729 38.2276 27.4966 38.4972C27.2147 38.7838 27.0064 39.1341 26.8895 39.5182ZM19.8908 39.4537C19.7723 39.0695 19.5628 38.7193 19.2799 38.4328C19.0055 38.1634 18.81 37.8245 18.7144 37.4525C18.5771 37.5461 18.4179 37.6028 18.2522 37.617C18.2882 37.4931 18.3326 37.3718 18.3852 37.254C18.5371 36.9182 18.6373 36.5615 18.6825 36.1959C18.7003 36.2485 18.7181 36.3241 18.7397 36.4115C18.8079 36.8231 18.978 37.2112 19.2346 37.5407C19.2342 37.538 19.2342 37.5353 19.2346 37.5326C19.2304 37.3691 19.2727 37.2078 19.3565 37.0673C19.3987 37.2255 19.4529 37.3803 19.5185 37.5303C19.8053 38.1303 19.9332 38.7935 19.89 39.4567L19.8908 39.4537ZM23.8494 38.3283C23.7242 38.0544 23.656 37.758 23.6488 37.4571C23.6417 37.1562 23.6957 36.857 23.8077 36.5775C23.9429 36.8484 24.0168 37.1456 24.0242 37.4481C24.0317 37.7506 23.9725 38.0511 23.8508 38.3283H23.8494ZM24.7716 37.7215C24.7176 36.8366 24.9339 35.9562 25.3921 35.1964C25.4449 35.9745 25.2773 36.7516 24.9083 37.4392C24.857 37.5363 24.8102 37.6289 24.7716 37.7215ZM21.8786 36.5634C21.6038 36.3012 21.3929 35.9796 21.2622 35.6235C21.1314 35.2673 21.0843 34.886 21.1243 34.5089C21.466 35.0322 21.695 35.6206 21.7969 36.2367C21.8288 36.3708 21.8563 36.4871 21.8794 36.5627L21.8786 36.5634ZM23.1419 36.4508C22.99 36.147 22.9004 35.816 22.8783 35.4772C22.8562 35.1384 22.9021 34.7986 23.0134 34.4778C23.1768 34.7777 23.273 35.1094 23.2955 35.4501C23.3179 35.7907 23.2661 36.1321 23.1434 36.4508H23.1419ZM24.8258 34.7304C24.7879 34.1584 24.99 32.83 25.4203 32.4602C25.4528 33.1714 25.285 33.8775 24.9358 34.4985C24.8957 34.5822 24.857 34.6615 24.8273 34.7304H24.8258ZM22.43 34.2162C21.7957 33.6588 21.3262 32.9391 21.0723 32.135C21.3271 32.5494 21.6695 32.9034 22.0755 33.1723C22.3484 32.6301 22.5339 32.0485 22.6254 31.4489C22.7787 31.8999 22.8405 32.3769 22.8072 32.852C22.7739 33.3271 22.6462 33.7908 22.4315 34.2162H22.43ZM20.4466 33.3664L20.4385 33.3575C20.0637 33.0005 19.7412 32.5927 19.4806 32.1461C19.2692 31.7943 19.152 31.3943 19.1402 30.9843C19.4783 31.3639 19.7375 31.8067 19.9027 32.2869C20.0574 32.6593 20.2395 33.0199 20.4474 33.3656L20.4466 33.3664ZM26.4555 33.2871C26.4741 33.1493 26.4904 33.007 26.506 32.8692C26.5407 32.051 26.7735 31.2533 27.1845 30.5442C27.3026 31.0255 27.2978 31.5285 27.1706 32.0074C27.0433 32.4863 26.7977 32.9258 26.4562 33.2856L26.4555 33.2871ZM24.2113 32.9685C23.8973 32.7536 23.6494 32.4559 23.4954 32.1087C23.3413 31.7614 23.2871 31.3783 23.3388 31.0021C23.5012 31.3719 23.7371 31.7051 24.0322 31.9816C24.4963 31.5555 24.8311 31.0079 24.9982 30.4012C25.0571 30.8605 25.0176 31.327 24.8824 31.7699C24.7471 32.2129 24.5191 32.6221 24.2135 32.9707L24.2113 32.9685ZM27.481 32.395C27.5189 32.2691 27.5553 32.0727 27.5991 31.846C27.6742 31.2146 27.8688 30.6031 28.1728 30.0441C28.4322 30.3746 27.6185 32.2669 27.4817 32.3965L27.481 32.395ZM13.6813 32.3743C13.4736 32.2614 13.2947 32.1025 13.1584 31.9099C13.0221 31.7172 12.932 31.4958 12.8951 31.2629C13.024 31.4342 13.1946 31.5698 13.3907 31.6571C13.3907 31.6504 13.7251 30.8695 12.9449 28.5608C14.0595 30.8702 13.9488 31.5156 13.6798 32.3773L13.6813 32.3743ZM33.3278 32.3084C33.0967 31.5615 32.8976 30.9169 34.065 28.4904C33.2907 30.7873 33.6191 31.5786 33.6191 31.5867C33.8155 31.4998 33.9861 31.3641 34.1148 31.1925C34.0775 31.4264 33.9869 31.6486 33.8501 31.8421C33.7133 32.0357 33.5339 32.1954 33.3256 32.3091L33.3278 32.3084ZM20.0037 31.3733L19.9896 31.3585C19.6929 31.0884 19.4631 30.7534 19.318 30.3798C19.173 30.0063 19.1167 29.6043 19.1536 29.2054C19.6815 29.8071 19.9824 30.5735 20.0045 31.3726L20.0037 31.3733ZM26.1263 30.9688C25.8713 30.7081 25.682 30.3909 25.5737 30.0432C25.4655 29.6954 25.4414 29.3271 25.5035 28.9683C25.6121 29.3122 25.8296 29.6117 26.1233 29.8218C26.6363 29.5396 27.0261 29.0775 27.2172 28.5252C27.18 29.4395 26.7959 30.3055 26.1426 30.948L26.1263 30.9651V30.9688ZM8.5887 30.9651C8.22398 30.2569 8.12869 29.441 8.32044 28.6682C8.30718 29.3096 8.44113 29.9454 8.71206 30.5272C8.71206 30.5272 8.90973 30.399 8.9506 30.3049C8.94642 30.4364 8.91161 30.5651 8.84893 30.6808C8.78625 30.7966 8.69741 30.8962 8.58945 30.9717L8.5887 30.9651ZM38.4204 30.8962C38.3126 30.8202 38.2238 30.7206 38.1608 30.605C38.0978 30.4893 38.0623 30.3608 38.057 30.2293C38.1222 30.3182 38.204 30.3936 38.2978 30.4516C38.5666 29.8686 38.7004 29.2328 38.6894 28.5912C38.8808 29.364 38.7855 30.1797 38.4212 30.888L38.4204 30.8962ZM22.453 30.3849L22.4077 30.3449C22.1304 30.1263 21.9077 29.8465 21.7572 29.5275C21.6068 29.2086 21.5326 28.8591 21.5405 28.5067C21.6709 28.8269 21.8916 29.1025 22.1759 29.3002C22.3872 29.1245 22.5604 28.9078 22.6851 28.6633C22.8098 28.4187 22.8833 28.1514 22.9011 27.8777C23.0765 28.6729 22.9477 29.5047 22.54 30.2101C22.5065 30.276 22.4783 30.3323 22.4538 30.3842L22.453 30.3849ZM9.34594 30.3635C8.90231 29.5758 8.75826 28.6552 8.9402 27.7702C8.95382 28.4849 9.11735 29.1888 9.42025 29.8367C9.42025 29.8367 9.68703 29.7107 9.72939 29.6003C9.72925 29.7489 9.69462 29.8954 9.62823 30.0285C9.56184 30.1615 9.46548 30.2774 9.34668 30.3672L9.34594 30.3635ZM14.443 30.3538C14.2389 30.2422 14.0592 30.091 13.9145 29.9092C13.7698 29.7274 13.6629 29.5186 13.6003 29.2951C13.749 29.4575 13.9402 29.5756 14.1524 29.6359C14.1524 29.6314 14.4162 29.0854 13.7259 27.0893C14.7365 28.609 14.6384 29.8885 14.4452 30.3494L14.443 30.3538ZM37.6654 30.2983C37.5466 30.2084 37.4504 30.0923 37.3841 29.9591C37.3178 29.826 37.2834 29.6793 37.2834 29.5307C37.3251 29.6403 37.5889 29.7641 37.5918 29.7655C37.8944 29.1181 38.0581 28.4148 38.0726 27.7006C38.2556 28.587 38.1112 29.5095 37.6661 30.2983H37.6654ZM32.5676 30.2879C32.3744 29.8241 32.2756 28.5445 33.2862 27.0279C32.5959 29.0283 32.8574 29.5685 32.8604 29.5736C33.0724 29.5143 33.2633 29.3964 33.4111 29.2336C33.3483 29.457 33.2414 29.6656 33.0967 29.8473C32.952 30.029 32.7724 30.18 32.5684 30.2916L32.5676 30.2879ZM10.1559 29.6989C9.86389 29.3365 9.39944 28.3993 9.57185 26.1951C9.78066 28.2474 9.94786 28.6556 10.1626 29.0105C10.3126 28.8562 10.4266 28.6708 10.4963 28.4675C10.5345 28.6854 10.5239 28.9092 10.4652 29.1226C10.4065 29.336 10.3011 29.5338 10.1567 29.7018L10.1559 29.6989ZM36.8554 29.6314C36.7103 29.464 36.6045 29.2663 36.5457 29.0529C36.487 28.8395 36.4768 28.6157 36.5158 28.3978C36.5844 28.6009 36.6979 28.786 36.848 28.9394C37.062 28.5904 37.2307 28.1852 37.4425 26.1284C37.5168 27.076 37.5339 28.7912 36.8576 29.6314H36.8554ZM20.2096 29.5825C20.1784 29.5381 20.1093 29.4618 20.0216 29.3647C19.642 28.9937 19.3391 28.5522 19.1298 28.0651C19.1863 28.1126 19.2376 28.1607 19.2874 28.2081C19.4297 28.3674 19.6137 28.4841 19.8187 28.5452C19.8949 28.1562 19.9328 27.7606 19.9316 27.3642C19.9316 27.2901 19.9354 27.216 19.9383 27.142C20.3177 27.8988 20.4146 28.7654 20.2118 29.587L20.2096 29.5825ZM28.3489 29.4143C28.3853 29.2432 28.4173 29.0846 28.4478 28.9305C28.5127 28.5485 28.6061 28.1718 28.7272 27.8036C29.0831 28.2704 28.6053 29.0165 28.3489 29.4143ZM18.5004 29.118C18.0971 28.3919 17.908 27.5668 17.955 26.7382C18.2336 27.2677 18.3914 27.8522 18.4172 28.4497C18.4402 28.6601 18.464 28.8779 18.5019 29.1165L18.5004 29.118ZM24.86 29.0439L24.8451 29.0276C24.336 28.513 24.021 27.8387 23.9534 27.119C24.1967 27.4077 24.4762 27.6642 24.7849 27.8821C25.178 27.518 25.5158 27.0987 25.7874 26.6374C25.7886 27.5283 25.4581 28.3879 24.86 29.0498V29.0439ZM10.9459 28.7142C10.6248 28.3437 9.88693 27.2123 9.97462 24.8266C10.2949 27.0745 10.6486 27.6095 10.9065 28.0007L10.9176 28.0177C11.0818 27.8096 11.2026 27.5707 11.2728 27.3153C11.3247 27.558 11.3225 27.8091 11.2662 28.0509C11.21 28.2926 11.1011 28.519 10.9474 28.7142H10.9459ZM36.0632 28.6482C35.909 28.4533 35.7998 28.2267 35.7437 27.9847C35.6875 27.7427 35.6858 27.4914 35.7385 27.2486C35.8103 27.5035 35.9306 27.7423 36.093 27.9518L36.1049 27.934C36.362 27.542 36.715 27.0056 37.0338 24.7599C37.1229 27.1464 36.3858 28.2741 36.0677 28.649L36.0632 28.6482ZM28.2137 27.9021C28.2137 27.8895 28.2137 27.8629 28.21 27.8236C28.1282 26.3492 28.337 25.9906 28.5258 25.9498C28.7621 26.3462 28.667 26.9819 28.2456 27.8392C28.2293 27.8695 28.2181 27.8918 28.2137 27.9021ZM11.7596 27.8036C10.934 26.7049 10.514 25.3558 10.5706 23.9842C10.6843 25.0806 11.0719 26.1311 11.6979 27.0397C11.829 26.6427 11.8849 26.2249 11.8629 25.8076C12.0115 26.1231 12.0801 26.4702 12.0627 26.8183C12.0454 27.1665 11.9426 27.5051 11.7633 27.8043L11.7596 27.8036ZM35.2518 27.7376C35.0722 27.4378 34.9691 27.0987 34.9515 26.75C34.9338 26.4012 35.0023 26.0535 35.1507 25.7372C35.1311 26.1552 35.1872 26.5734 35.3164 26.9715C35.9425 26.0628 36.3299 25.012 36.443 23.9153C36.4973 25.2871 36.0776 26.6359 35.254 27.7362L35.2518 27.7376ZM21.6527 27.5776C21.6527 27.5724 21.6393 27.5606 21.6237 27.542C20.9549 26.753 20.8271 26.0239 21.2589 25.489C21.6661 25.7735 21.6713 27.0234 21.6549 27.5472C21.6549 27.5621 21.6549 27.5717 21.6549 27.5769L21.6527 27.5776ZM27.0946 27.3687C27.0881 27.3591 27.0812 27.35 27.0737 27.3413C26.6243 26.8338 26.3587 26.1907 26.3195 25.5149C26.5401 25.7974 26.7891 26.0565 27.0626 26.2884L27.0685 26.2936C27.4807 25.8468 27.7473 25.286 27.8332 24.6851C27.9369 25.1565 27.9247 25.646 27.7977 26.1117C27.6706 26.5775 27.4324 27.0057 27.1035 27.3598L27.0946 27.3687ZM23.6019 26.873V26.8678C23.3937 26.5225 23.2845 26.1269 23.2862 25.724C23.2879 25.3211 23.4004 24.9264 23.6116 24.5828C23.7542 24.7836 24.0366 25.406 23.6153 26.8411L23.6064 26.873H23.6019ZM12.6528 26.5685C11.7668 25.5935 11.2585 24.3354 11.2193 23.0202C11.3916 24.0204 11.8349 24.9545 12.5012 25.7216L12.5176 25.7394C12.6096 25.2109 12.6346 24.673 12.5919 24.1383C12.7688 24.5175 12.8656 24.9288 12.8765 25.3468C12.8874 25.7649 12.812 26.1807 12.655 26.5685H12.6528ZM34.3622 26.5025C34.2053 26.1147 34.1297 25.6988 34.1404 25.2807C34.151 24.8626 34.2475 24.4511 34.4239 24.0716C34.3825 24.6068 34.4075 25.1451 34.4982 25.6742L34.5168 25.6535C35.1803 24.8856 35.6225 23.9528 35.7965 22.9543C35.7587 24.2697 35.2509 25.5283 34.3645 26.5033L34.3622 26.5025ZM18.1251 25.7224C17.9853 25.4065 17.9445 25.0559 18.008 24.7165C18.0715 24.3771 18.2364 24.0648 18.4811 23.8204C18.5745 24.2366 18.5088 24.6725 18.2968 25.0429C18.1774 25.2499 18.1182 25.486 18.1259 25.7246L18.1251 25.7224ZM28.745 25.2378C28.7376 25.2134 28.7079 25.1481 28.664 25.0504C28.3414 24.4445 28.141 23.7815 28.074 23.0988C28.3879 23.3376 28.6213 23.6662 28.7432 24.0406C28.8651 24.4151 28.8696 24.8177 28.7562 25.1948C28.7517 25.2148 28.748 25.2289 28.7465 25.2378H28.745ZM21.4246 24.9889C21.4075 24.9511 21.3882 24.9111 21.3666 24.8681C21.2615 24.7169 21.1893 24.5454 21.1548 24.3646C21.1202 24.1839 21.1241 23.9979 21.1661 23.8188C21.2081 23.6396 21.2874 23.4712 21.3987 23.3245C21.51 23.1778 21.651 23.0559 21.8125 22.9669C21.7911 23.5679 21.6863 24.1631 21.5011 24.7355C21.4788 24.814 21.4543 24.897 21.4268 24.9889H21.4246ZM25.7049 24.7866C25.6648 24.6532 25.621 24.5154 25.5786 24.3828C25.3453 23.6582 25.1045 22.9091 25.479 22.5031C26.2169 22.9543 25.9368 24.3761 25.7064 24.7866H25.7049ZM19.4508 24.2954C19.2465 23.8901 19.5252 22.6846 20.59 21.9326C20.4804 22.2164 20.3409 22.4878 20.1739 22.7424C19.8605 23.2243 19.6173 23.7482 19.4516 24.2983L19.4508 24.2954ZM23.593 23.4233C23.5296 23.3209 23.4898 23.2058 23.4763 23.0862C23.4593 22.9028 23.4844 22.7181 23.5498 22.5459C23.6153 22.3737 23.7192 22.2187 23.8538 22.0926C23.9078 22.1336 23.9527 22.1852 23.9858 22.2442C24.019 22.3032 24.0395 22.3684 24.0463 22.4357C24.0356 22.8008 23.8807 23.147 23.6153 23.3988C23.6012 23.4159 23.596 23.4226 23.5945 23.4248L23.593 23.4233ZM27.3383 21.9748L27.3101 21.9459C26.7772 21.3999 26.5261 20.9486 26.5833 20.6419C26.8355 20.7532 27.0452 20.9424 27.1813 21.1817C27.3174 21.4209 27.3727 21.6974 27.339 21.9704V21.977L27.3383 21.9748ZM25.858 21.1598C25.7083 20.9551 25.5264 20.776 25.3192 20.6293C25.022 20.39 24.7366 20.164 24.7731 19.8706C24.9295 19.8838 25.0817 19.9275 25.2211 19.9995C25.3605 20.0714 25.4843 20.17 25.5855 20.2897C25.6866 20.4093 25.763 20.5477 25.8104 20.6969C25.8579 20.8461 25.8753 21.0032 25.8617 21.1591L25.858 21.1598ZM26.1218 20.1225C25.8813 19.9277 25.6118 19.7715 25.323 19.6594C25.1392 19.5915 24.967 19.4958 24.8124 19.3757C24.934 19.333 25.0618 19.311 25.1907 19.3105C25.421 19.3021 25.6458 19.3818 25.8191 19.5333C25.9923 19.6849 26.1009 19.8967 26.1226 20.1255L26.1218 20.1225ZM24.8518 18.4925C24.6659 18.5005 24.482 18.4514 24.325 18.3517L24.4201 18.3377C24.5912 18.3228 24.7596 18.2855 24.9209 18.2265C24.9046 18.1984 24.8853 18.1584 24.863 18.1109C24.7919 17.9395 24.6913 17.7817 24.5657 17.6449C24.776 17.6742 24.9763 17.7527 25.1503 17.874C25.3242 17.9954 25.4669 18.156 25.5667 18.3428C25.3399 18.4371 25.0975 18.4873 24.8518 18.4925ZM25.0911 17.3671C24.8638 17.1762 24.6172 17.0093 24.3554 16.8692C24.1805 16.7786 24.0161 16.6693 23.865 16.5432H23.8828H23.9802C24.62 16.5432 25.0465 16.8603 25.0948 17.37L25.0911 17.3671ZM24.1251 17.1959C23.9057 17.178 23.6936 17.1088 23.5062 16.9938C23.3187 16.8788 23.161 16.7214 23.0461 16.5343C23.4982 16.6137 23.909 16.8464 24.209 17.1929H24.1912L24.1251 17.1959ZM21.2767 17.1285C21.127 17.1364 20.9803 17.0847 20.8689 16.9848C20.7574 16.8849 20.6903 16.745 20.6822 16.5958C20.6803 16.4891 20.703 16.3834 20.7483 16.2868C20.6666 16.2964 20.6391 16.3401 20.593 16.4113C20.5671 16.4528 20.5388 16.4929 20.5083 16.5313C20.4678 16.5742 20.4165 16.6054 20.3597 16.6217C20.2894 16.6469 20.2223 16.6803 20.1598 16.721C20.1844 16.5748 20.2436 16.4366 20.3323 16.3177C20.4211 16.1988 20.5369 16.1026 20.6703 16.0371C20.9665 15.9398 21.2779 15.8961 21.5895 15.9082C22.228 15.8982 22.8602 16.0351 23.4369 16.3083C23.2179 16.272 22.9961 16.2551 22.7741 16.2579C22.6737 16.2579 22.5705 16.2579 22.4664 16.249C22.1499 16.2327 21.9514 16.2305 21.8808 16.2305H21.8541C21.9039 16.3436 21.9191 16.4689 21.8979 16.5906C21.8897 16.7174 21.8387 16.8377 21.7531 16.9319C21.6676 17.026 21.5525 17.0886 21.4268 17.1092C21.377 17.1218 21.3258 17.1285 21.2745 17.1292L21.2767 17.1285ZM21.5516 16.226C21.4379 16.226 21.3138 16.2431 21.2915 16.2816C21.2896 16.2857 21.2886 16.2901 21.2886 16.2946C21.2886 16.2991 21.2896 16.3035 21.2915 16.3075C21.3138 16.369 21.4929 16.4468 21.5531 16.4698C21.562 16.4727 21.5713 16.4742 21.5806 16.4743C21.6043 16.4726 21.6273 16.465 21.6472 16.452C21.6671 16.439 21.6833 16.4212 21.6943 16.4002C21.7285 16.3372 21.7218 16.2668 21.6795 16.2431C21.6382 16.23 21.5949 16.2243 21.5516 16.226ZM19.7399 16.9433H19.7295C19.6247 16.9433 19.5906 16.8944 19.5809 16.8573C19.5744 16.8305 19.5756 16.8024 19.5843 16.7763C19.5929 16.7501 19.6087 16.7268 19.6299 16.7091C19.6528 16.6971 19.6784 16.6912 19.7043 16.6921C19.7852 16.6978 19.8647 16.7163 19.9398 16.7469C19.9287 16.7951 19.8841 16.9418 19.7362 16.9418L19.7399 16.9433ZM14.2505 10.7196C14.1019 10.6766 13.9837 10.6373 13.8663 10.5995C13.7757 10.5706 13.6843 10.541 13.5817 10.5099L13.6129 10.4543C13.6961 10.3061 13.8098 10.1016 13.9221 9.94308C14.0707 9.98309 14.1911 10.0172 14.3159 10.0601L14.4073 10.089C14.4801 9.95659 14.5597 9.82799 14.6459 9.70377C14.8398 9.75563 14.9825 9.80083 15.1482 9.85195L15.3407 9.91271C15.2203 10.0898 15.1541 10.195 15.0709 10.3276L14.9758 10.4758C14.8524 10.4395 14.7484 10.4054 14.6473 10.3728L14.4987 10.3261C14.4408 10.4143 14.3932 10.4884 14.3375 10.5758L14.249 10.7144L14.2505 10.7196ZM33.5456 10.5558C33.5155 10.5561 33.4858 10.5506 33.4579 10.5395C33.6435 10.187 33.8097 9.82464 33.9558 9.45408C34.0078 9.32812 34.062 9.19846 34.1178 9.06954C34.3035 8.64056 34.3741 8.54127 34.7628 8.3679C34.951 8.28851 35.1474 8.22988 35.3484 8.19304C35.3528 8.19304 35.3565 8.19304 35.3565 8.19304C35.1059 9.04026 34.62 9.79952 33.955 10.3832L33.9394 10.3928C33.8227 10.48 33.6856 10.5358 33.5411 10.5551L33.5456 10.5558ZM12.7531 10.1202C12.1141 10.1202 11.8881 9.83121 11.8116 9.58893C11.7692 9.24082 11.8268 8.88788 11.9777 8.57113C12.1286 8.25438 12.3666 7.98684 12.664 7.79962C12.5413 7.9478 11.9491 8.84431 12.311 9.30145C12.3993 9.38718 12.5055 9.45246 12.622 9.49267C12.7385 9.53288 12.8624 9.54702 12.985 9.5341C13.5779 9.5364 14.1515 9.32392 14.599 8.93618C14.3792 8.7725 14.1059 8.69689 13.8329 8.72428C13.7303 8.72428 13.6151 8.72946 13.4903 8.74058C13.5312 8.42076 13.6351 8.11215 13.7959 7.83243C13.9567 7.55272 14.1713 7.3074 14.4274 7.11056C14.7206 7.20794 14.9917 7.36196 15.2251 7.56385C15.4586 7.76573 15.6499 8.01151 15.788 8.28714C18.084 7.8128 20.4165 7.53469 22.76 7.45583H22.7793C22.7481 7.20318 22.6752 6.46449 22.5794 5.43091L22.5749 5.38571C22.5541 5.13899 22.7057 5.02341 22.8915 4.90931C22.9672 5.05828 23.0735 5.18973 23.2034 5.29516C23.3334 5.40058 23.4841 5.47762 23.6457 5.5213C23.5481 5.63455 23.4356 5.73423 23.3113 5.81767C23.263 5.85249 23.214 5.89176 23.1627 5.93103C23.185 6.21109 23.2081 6.70158 23.2199 6.9646L23.2237 7.04388C23.7377 6.81068 24.2727 6.62613 24.8214 6.49264C25.0127 6.44651 25.2086 6.42167 25.4055 6.41855C25.4514 6.41819 25.4973 6.42067 25.5429 6.42596C25.7753 6.45647 25.9952 6.54858 26.1798 6.69269C26.2557 6.75359 26.3181 6.82956 26.363 6.91579C26.4079 7.00201 26.4343 7.0966 26.4406 7.19355C26.4432 7.53147 26.3835 7.867 26.2645 8.18341C25.7986 8.15748 25.2539 8.14414 24.6438 8.14414C21.6232 8.11336 18.6083 8.40999 15.652 9.02879C15.523 8.7026 15.3524 8.39432 15.1445 8.11154C15.0813 8.02735 15.0019 7.95659 14.9109 7.90341C14.8199 7.85023 14.7192 7.8157 14.6146 7.80184C14.3055 7.80184 14.1688 8.20193 14.1636 8.26862C15.0271 8.319 15.1861 8.76058 15.1876 8.76503C14.9934 9.11916 14.7001 9.4093 14.3434 9.60004C13.8988 9.89317 13.3881 10.0714 12.8572 10.1187C12.8215 10.1187 12.7829 10.1194 12.7487 10.1194L12.7531 10.1202ZM24.3458 7.42768C24.4557 7.42768 24.5605 7.42768 24.6653 7.42768L24.9276 7.43138C25.1669 7.43138 25.4939 7.43879 25.7339 7.44694C25.7542 7.40114 25.7623 7.35092 25.7575 7.3011C25.7527 7.25128 25.7351 7.20352 25.7064 7.16243C25.6421 7.07458 25.5554 7.00541 25.4554 6.96204C25.3553 6.91868 25.2455 6.90268 25.1372 6.9157C24.505 6.98873 23.8894 7.16548 23.3151 7.43879L23.7141 7.43212C23.9207 7.43064 24.1206 7.42694 24.3391 7.42694L24.3458 7.42768ZM16.6055 9.92827C16.465 9.86973 16.3506 9.81787 16.2391 9.76823C16.1529 9.7297 16.066 9.69414 15.9671 9.6482L15.9998 9.60449C16.1053 9.46371 16.2502 9.27033 16.387 9.12289C16.5527 9.18735 16.6842 9.2444 16.8165 9.30441C16.8908 9.33627 16.9651 9.36887 17.0454 9.40518C16.8968 9.57559 16.8165 9.67117 16.708 9.80379L16.6055 9.92827ZM29.5565 9.77638C29.4495 9.67191 29.3648 9.58596 29.2741 9.49483C29.2147 9.43482 29.1545 9.37406 29.0876 9.30812L29.1129 9.29256C29.2689 9.19846 29.5045 9.05695 29.7007 8.95693C29.8255 9.07103 29.9191 9.16438 30.0172 9.26367C30.0715 9.31849 30.1272 9.37406 30.1911 9.4363C29.9481 9.56077 29.8307 9.62523 29.636 9.73266L29.5565 9.77638ZM33.0254 9.60226C31.6976 9.13323 30.325 8.80105 28.9293 8.61092C28.6136 9.02325 28.1838 9.33439 27.6928 9.50594C27.1267 9.43324 26.5752 9.2738 26.0579 9.03324C26.2125 9.04361 26.3106 9.04806 26.4087 9.04806C26.4696 9.04806 26.5298 9.04806 26.6011 9.04361C27.2195 9.02775 27.8231 8.85183 28.3527 8.53312C27.7753 8.44569 27.4825 8.31974 27.403 8.12488C27.3405 7.97151 27.4082 7.77146 27.6162 7.49658L27.6564 7.44472C27.8496 7.19355 28.1409 6.8142 28.5429 6.8142C28.5998 6.81429 28.6565 6.82151 28.7116 6.83568C29.1032 6.93719 29.2243 7.48473 29.1723 7.94706C30.4365 8.1351 31.6805 8.44019 32.8879 8.85838C32.9059 8.76148 32.901 8.66171 32.8735 8.56704C32.8461 8.47236 32.7968 8.38539 32.7296 8.31307C32.6939 8.26195 32.6553 8.2086 32.6256 8.15229C32.8118 7.96108 33.0175 7.78974 33.2394 7.64106C33.3911 7.78569 33.5024 7.96729 33.5622 8.16791C33.622 8.36853 33.6283 8.58124 33.5805 8.78503C33.4966 9.02301 33.36 9.23905 33.1807 9.41703C33.1257 9.47927 33.0737 9.5378 33.0321 9.59782L33.0254 9.60226ZM28.2471 7.32024C28.2218 7.32012 28.1967 7.32438 28.1728 7.33284C28.0468 7.40438 27.9454 7.51203 27.8815 7.6418C27.9618 7.76257 28.1134 7.82925 28.4017 7.86926C28.4366 7.87445 28.4983 7.87889 28.5436 7.88186C28.5696 7.81649 28.5791 7.74579 28.5713 7.67591C28.5636 7.60604 28.5387 7.53913 28.499 7.48102C28.4729 7.4354 28.4359 7.39688 28.3913 7.36884C28.3468 7.34081 28.296 7.32412 28.2434 7.32024H28.2471ZM34.421 8.07598C34.5515 7.98988 34.6916 7.91926 34.8386 7.86556C34.7773 7.80918 34.7056 7.76516 34.6275 7.7359C34.5934 7.7196 34.5614 7.70478 34.5332 7.68922C34.5919 7.5868 34.6779 7.50253 34.7816 7.44567C34.8853 7.38881 35.0027 7.36156 35.121 7.36692C35.275 7.36511 35.4248 7.41759 35.5438 7.5151C35.5081 7.54919 35.4806 7.57438 35.4546 7.59735C35.4286 7.62031 35.3885 7.65736 35.3469 7.69885C35.2543 7.6087 35.1363 7.54875 35.0088 7.52696C34.9654 7.52652 34.9232 7.54149 34.8899 7.56919C35.0909 7.74036 35.3355 7.85291 35.5966 7.89445L35.6805 7.9189C35.6004 7.98246 35.5082 8.0291 35.4094 8.05598C35.3107 8.08286 35.2075 8.08941 35.1061 8.07524C35.0444 8.07524 34.9805 8.07524 34.9144 8.07524C34.8482 8.07524 34.7724 8.07524 34.7004 8.07524C34.5941 8.07524 34.5049 8.07524 34.421 8.08561V8.07598ZM24.8035 5.89176C24.6765 5.7984 24.5761 5.72283 24.4691 5.64207L24.261 5.48277L24.3264 5.43017C24.4624 5.31977 24.6482 5.16937 24.8117 5.05971C24.9648 5.16196 25.0748 5.2442 25.2018 5.33904L25.378 5.46944C25.1833 5.60428 25.0807 5.6806 24.9388 5.78729L24.8043 5.88731L24.8035 5.89176Z" fill="black"/>
</svg>
