<svg width="69" height="62" viewBox="0 0 69 62" fill="none" xmlns="http://www.w3.org/2000/svg">
<g clip-path="url(#clip0_241_1824)">
<path d="M8.35251 32.6315H22.8785C24.2804 32.6315 25.4206 31.6067 25.4206 30.3474V17.2948C25.4206 16.0353 24.2801 15.0106 22.8785 15.0106H8.35251C6.95068 15.0106 5.81042 16.0354 5.81042 17.2948V30.3474C5.81042 31.6069 6.95081 32.6315 8.35251 32.6315ZM7.98932 17.2948C7.98932 17.1148 8.15225 16.9684 8.35251 16.9684H22.8785C23.0787 16.9684 23.2417 17.1147 23.2417 17.2948V30.3474C23.2417 30.5273 23.0788 30.6737 22.8785 30.6737H8.35251C8.15239 30.6737 7.98932 30.5274 7.98932 30.3474V17.2948Z" fill="#8AA399" fill-opacity="0.81"/>
<path d="M39.9468 42.0948C39.9468 41.554 39.4592 41.1158 38.8573 41.1158H6.89987C6.29814 41.1158 5.81042 41.554 5.81042 42.0948C5.81042 42.6356 6.29828 43.0737 6.89987 43.0737H38.8573C39.4589 43.0737 39.9468 42.6356 39.9468 42.0948Z" fill="black"/>
<path d="M68.2117 22.9893C67.4506 22.0662 66.2806 21.5368 65.0022 21.5368H59.1936C58.5919 21.5368 58.1042 21.9749 58.1042 22.5157C58.1042 23.0565 58.5918 23.4946 59.1936 23.4946H65.0022C65.5834 23.4946 66.1152 23.7354 66.4611 24.155C66.8071 24.5746 66.9084 25.1017 66.7393 25.6013L58.3395 50.4014C58.1051 51.0932 57.407 51.5578 56.6022 51.5578H55.9253V32.3051C55.9253 31.7643 55.4377 31.3261 54.8358 31.3261C54.234 31.3261 53.7464 31.7643 53.7464 32.3051V51.5578H3.9946C2.99342 51.5578 2.17876 50.8259 2.17876 49.9262V12.0737C2.17876 11.1739 2.99328 10.442 3.9946 10.442H51.9307C52.9319 10.442 53.7465 11.1739 53.7465 12.0737V28.3895C53.7465 28.9303 54.2341 29.3684 54.836 29.3684C55.4378 29.3684 55.9254 28.9303 55.9254 28.3895V12.0737C55.9254 10.0945 54.1333 8.48419 51.9308 8.48419H3.9946C1.79198 8.48419 0 10.0945 0 12.0737V49.9263C0 51.9055 1.79198 53.5158 3.9946 53.5158H56.6022C58.3726 53.5158 59.9084 52.4933 60.4238 50.9715L68.8236 26.1714C69.1959 25.0723 68.9729 23.9124 68.2117 22.9893Z" fill="black"/>
<path d="M18.5206 48.2948H49.0254C49.6271 48.2948 50.1148 47.8567 50.1148 47.3159C50.1148 46.7751 49.6273 46.337 49.0254 46.337H18.5206C17.9189 46.337 17.4312 46.7751 17.4312 47.3159C17.4312 47.8566 17.919 48.2948 18.5206 48.2948Z" fill="black"/>
<path d="M6.89987 46.3369C6.29814 46.3369 5.81042 46.775 5.81042 47.3158C5.81042 47.8566 6.29828 48.2947 6.89987 48.2947H14.1629C14.7647 48.2947 15.2524 47.8566 15.2524 47.3158C15.2524 46.775 14.7645 46.3369 14.1629 46.3369H6.89987Z" fill="black"/>
<path d="M6.89987 37.8526H21.4259C22.0276 37.8526 22.5153 37.4145 22.5153 36.8737C22.5153 36.3329 22.0275 35.8948 21.4259 35.8948H6.89987C6.29814 35.8948 5.81042 36.3329 5.81042 36.8737C5.81042 37.4145 6.29814 37.8526 6.89987 37.8526Z" fill="black"/>
<path d="M49.0255 25.4526H30.1416C29.5398 25.4526 29.0521 25.8909 29.0521 26.4316C29.0521 26.9724 29.54 27.4105 30.1416 27.4105H49.0255C49.6272 27.4105 50.115 26.9724 50.115 26.4316C50.115 25.8909 49.6272 25.4526 49.0255 25.4526Z" fill="black"/>
<path d="M49.0255 20.2315H30.1416C29.5398 20.2315 29.0521 20.6697 29.0521 21.2104C29.0521 21.7511 29.54 22.1894 30.1416 22.1894H49.0255C49.6272 22.1894 50.115 21.7511 50.115 21.2104C50.115 20.6697 49.6272 20.2315 49.0255 20.2315Z" fill="black"/>
<path d="M49.0255 15.0106H30.1416C29.5398 15.0106 29.0521 15.4488 29.0521 15.9895C29.0521 16.5302 29.54 16.9684 30.1416 16.9684H49.0255C49.6272 16.9684 50.115 16.5302 50.115 15.9895C50.115 15.4488 49.6272 15.0106 49.0255 15.0106Z" fill="black"/>
<path d="M49.0255 30.6737H30.1416C29.5398 30.6737 29.0521 31.1119 29.0521 31.6526C29.0521 32.1934 29.54 32.6316 30.1416 32.6316H49.0255C49.6272 32.6316 50.115 32.1934 50.115 31.6526C50.115 31.1119 49.6272 30.6737 49.0255 30.6737Z" fill="black"/>
<path d="M49.0255 41.1158H43.2151C42.6133 41.1158 42.1256 41.554 42.1256 42.0948C42.1256 42.6356 42.6132 43.0737 43.2151 43.0737H49.0255C49.6272 43.0737 50.1149 42.6356 50.1149 42.0948C50.1149 41.554 49.6272 41.1158 49.0255 41.1158Z" fill="black"/>
<path d="M49.0255 35.8948H25.7838C25.1821 35.8948 24.6943 36.3329 24.6943 36.8737C24.6943 37.4145 25.1822 37.8526 25.7838 37.8526H49.0255C49.6272 37.8526 50.115 37.4145 50.115 36.8737C50.115 36.3329 49.6272 35.8948 49.0255 35.8948Z" fill="black"/>
</g>
<defs>
<clipPath id="clip0_241_1824">
<rect width="69" height="62" fill="white"/>
</clipPath>
</defs>
</svg>
