<svg width="753" height="691" viewBox="0 0 753 691" fill="none" xmlns="http://www.w3.org/2000/svg">
<path d="M752.134 81.6421C723.937 95.7467 694.022 104.987 663.393 109.054C695.618 87.2921 719.734 53.0418 731.245 12.6881C700.959 32.9786 667.821 47.2717 633.267 54.9494C610.005 27.0047 579.232 8.49834 545.713 2.29584C512.194 -3.90666 477.799 2.5407 447.853 20.6396C417.908 38.7386 394.083 67.4794 380.066 102.412C366.05 137.344 362.625 176.52 370.321 213.872C308.976 210.399 248.963 192.397 194.18 161.034C139.397 129.672 91.0688 85.6499 52.3342 31.8278C32.6074 70.19 26.568 115.597 35.445 158.809C44.322 202.021 67.4483 239.791 100.118 264.432C75.615 263.578 51.6516 256.098 30.2401 242.62C30.2401 243.365 30.2401 244.11 30.2401 244.83C30.2472 285.056 42.5764 324.041 65.1371 355.174C87.6977 386.308 119.101 407.673 154.022 415.647C131.302 422.615 107.474 423.643 84.3491 418.653C94.2068 453.268 113.401 483.539 139.247 505.23C165.093 526.922 196.297 538.95 228.496 539.631C163.739 596.761 81.6087 622.682 0 611.745C70.5763 662.978 152.737 690.156 236.642 690.024C520.452 690.024 675.657 424.562 675.657 194.347C675.657 186.794 675.498 179.267 675.202 171.817C705.421 147.177 731.498 116.639 752.202 81.6421H752.134Z" fill="#A18561"/>
</svg>
