<svg width="37" height="37" viewBox="0 0 37 37" fill="none" xmlns="http://www.w3.org/2000/svg">
<g clip-path="url(#clip0_201_17)">
<path d="M18.5 0C18.1741 0 17.9099 0.264203 17.9099 0.590121V3.79748C17.9099 4.1234 18.1741 4.38761 18.5 4.38761C18.826 4.38761 19.0902 4.1234 19.0902 3.79748V0.590121C19.0902 0.264203 18.826 0 18.5 0Z" fill="black"/>
<path d="M11.7762 5.35959L10.242 2.54297C10.0861 2.25672 9.72765 2.15107 9.44148 2.30702C9.15531 2.46297 9.04966 2.82133 9.20553 3.10751L10.7398 5.92413C10.8469 6.12077 11.0494 6.23205 11.2585 6.23205C11.3539 6.23205 11.4506 6.20893 11.5403 6.16008C11.8265 6.0042 11.932 5.64576 11.7762 5.35959Z" fill="black"/>
<path d="M6.10047 10.23L3.40583 8.49034C3.13194 8.31344 2.76679 8.39213 2.59002 8.66602C2.41326 8.93984 2.49189 9.30514 2.7657 9.48183L5.46034 11.2214C5.55935 11.2854 5.6702 11.3159 5.77983 11.3159C5.97343 11.3159 6.1632 11.2206 6.27615 11.0457C6.45298 10.772 6.37428 10.4068 6.10047 10.23Z" fill="black"/>
<path d="M27.5585 2.307C27.2721 2.15106 26.9138 2.25678 26.758 2.54295L25.2239 5.35958C25.068 5.64582 25.1736 6.00411 25.4597 6.16006C25.5494 6.20892 25.6461 6.23204 25.7415 6.23204C25.9506 6.23204 26.1531 6.12061 26.2602 5.92412L27.7943 3.10749C27.9503 2.82125 27.8446 2.46295 27.5585 2.307Z" fill="black"/>
<path d="M34.41 8.66609C34.2332 8.39227 33.8677 8.31379 33.5942 8.49041L30.8995 10.23C30.6257 10.4068 30.547 10.772 30.7238 11.0458C30.8367 11.2206 31.0264 11.3159 31.2202 11.3159C31.3299 11.3159 31.4408 11.2854 31.5397 11.2215L34.2343 9.48197C34.5081 9.30506 34.5867 8.93983 34.41 8.66609Z" fill="black"/>
<path d="M25.8443 8.66514C23.9269 6.72314 21.3692 5.63323 18.6424 5.59638C15.8037 5.56053 13.0363 6.73442 11.0449 8.82383C10.82 9.05978 10.829 9.43325 11.065 9.65814C11.3009 9.88296 11.6746 9.87407 11.8993 9.63805C13.6649 7.78538 16.1169 6.74099 18.6266 6.7764C21.0414 6.80914 23.3066 7.77439 25.0047 9.49431C26.7044 11.2158 27.6405 13.4965 27.6405 15.916C27.6405 17.8641 27.0356 19.7238 25.891 21.294C25.8807 21.3082 25.8711 21.3227 25.862 21.3377L25.7898 21.4577C25.5081 21.9268 25.2494 22.3574 25.0115 22.7582C24.8452 23.0385 24.9376 23.4006 25.2179 23.5669C25.3123 23.6229 25.4161 23.6496 25.5184 23.6496C25.7199 23.6496 25.9162 23.5464 26.0264 23.3605C26.2633 22.9614 26.5208 22.5326 26.8014 22.0655L26.8602 21.9676C28.1429 20.1987 28.8206 18.1068 28.8206 15.9159C28.8205 13.184 27.7636 10.6089 25.8443 8.66514Z" fill="black"/>
<path d="M24.6358 24.5796C24.346 24.4308 23.9902 24.5449 23.8412 24.8348C23.3096 25.8693 22.9921 26.7225 22.8188 27.6003H14.1813C13.8299 25.8186 12.9224 24.3081 11.2437 21.5135L11.1381 21.3379C11.1291 21.3228 11.1194 21.3083 11.1091 21.2941C9.96453 19.7239 9.35959 17.8642 9.35959 15.9161C9.35959 14.3413 9.7801 12.7812 10.5758 11.4044C10.7389 11.1223 10.6423 10.7613 10.3602 10.5983C10.0781 10.4352 9.71716 10.5317 9.55406 10.8139C8.65486 12.37 8.17957 14.1343 8.17957 15.9161C8.17957 18.1069 8.85727 20.1988 10.1399 21.9677L10.2322 22.1213C11.9186 24.9287 12.7422 26.3001 13.0399 27.9152C12.4977 28.266 12.1378 28.8756 12.1378 29.5681C12.1378 30.1042 12.3534 30.5905 12.7023 30.9458C12.3534 31.3011 12.1378 31.7875 12.1378 32.3235C12.1378 33.4085 13.0206 34.2913 14.1055 34.2913H14.9305C15.3706 35.8668 16.8229 37 18.5 37C20.1772 37 21.6294 35.8669 22.0696 34.2913H22.8947C23.9797 34.2913 24.8624 33.4085 24.8624 32.3234C24.8624 31.7873 24.6467 31.301 24.2978 30.9457C24.6467 30.5905 24.8624 30.1041 24.8624 29.5681C24.8624 28.8755 24.5025 28.2658 23.9602 27.9151C24.1076 27.1136 24.3877 26.3533 24.8908 25.3742C25.0399 25.0843 24.9255 24.7286 24.6358 24.5796ZM18.5 35.8198C17.4729 35.8198 16.5694 35.1965 16.1791 34.2913H20.821C20.4305 35.1965 19.5271 35.8198 18.5 35.8198ZM21.2536 31.5359H22.8946C23.3289 31.5359 23.6821 31.8892 23.6821 32.3234C23.6821 32.7577 23.3288 33.111 22.8946 33.111H14.1053C13.671 33.111 13.3178 32.7576 13.3178 32.3234C13.3178 31.8892 13.6712 31.5359 14.1053 31.5359H18.9205C19.2464 31.5359 19.5106 31.2716 19.5106 30.9457C19.5106 30.6198 19.2464 30.3556 18.9205 30.3556H14.1053C13.671 30.3556 13.3178 30.0022 13.3178 29.5681C13.3178 29.2124 13.5548 28.9115 13.879 28.8139C13.9094 28.8048 13.9405 28.7979 13.9719 28.7926C13.9814 28.7909 13.9908 28.7895 14.0003 28.7882C14.035 28.7837 14.07 28.7804 14.1053 28.7804H22.8945C22.9299 28.7804 22.9648 28.7836 22.9995 28.7882C23.0091 28.7895 23.0185 28.791 23.0281 28.7926C23.0592 28.7979 23.0901 28.8048 23.1203 28.8138C23.4448 28.9112 23.6821 29.2122 23.6821 29.5681C23.6821 30.0024 23.3288 30.3557 22.8946 30.3557H21.2536C20.9277 30.3557 20.6635 30.6199 20.6635 30.9458C20.6635 31.2717 20.9277 31.5359 21.2536 31.5359Z" fill="black"/>
</g>
<defs>
<clipPath id="clip0_201_17">
<rect width="37" height="37" fill="white"/>
</clipPath>
</defs>
</svg>
