<svg width="35" height="35" viewBox="0 0 35 35" fill="none" xmlns="http://www.w3.org/2000/svg">
<g clip-path="url(#clip0_241_1279)">
<path d="M33.9673 31.6916H0.719909C0.417248 31.6916 0.171875 31.937 0.171875 32.2396C0.171875 32.5423 0.417248 32.7877 0.719909 32.7877H33.9673C34.27 32.7877 34.5153 32.5423 34.5153 32.2396C34.5153 31.937 34.27 31.6916 33.9673 31.6916Z" fill="#2D6A9D"/>
<path d="M33.9673 2.82849H32.1405V2.28045C32.1405 1.37386 31.4029 0.636353 30.4964 0.636353C29.5899 0.636353 28.8523 1.37386 28.8523 2.28045V2.82849H23.372V2.28045C23.372 1.37386 22.6344 0.636353 21.7279 0.636353C20.8213 0.636353 20.0838 1.37386 20.0838 2.28045V2.82849H14.6034V2.28045C14.6034 1.37386 13.8659 0.636353 12.9593 0.636353C12.0527 0.636353 11.3152 1.37386 11.3152 2.28045V2.82849H5.83489V2.28045C5.83489 1.37386 5.09738 0.636353 4.19079 0.636353C3.28419 0.636353 2.54669 1.37386 2.54669 2.28045V2.82849H0.719909C0.417248 2.82849 0.171875 3.07386 0.171875 3.37652V30.0475C0.171875 30.3501 0.417248 30.5955 0.719909 30.5955H33.9673C34.27 30.5955 34.5153 30.3501 34.5153 30.0475V3.37652C34.5153 3.07386 34.27 2.82849 33.9673 2.82849ZM29.9484 2.28045C29.9484 1.97823 30.1942 1.73242 30.4964 1.73242C30.7986 1.73242 31.0444 1.97823 31.0444 2.28045V4.47259C31.0444 4.77481 30.7986 5.02062 30.4964 5.02062C30.1942 5.02062 29.9484 4.77481 29.9484 4.47259V2.28045ZM21.1798 2.28045C21.1798 1.97823 21.4256 1.73242 21.7279 1.73242C22.0301 1.73242 22.2759 1.97823 22.2759 2.28045V4.47259C22.2759 4.77481 22.0301 5.02062 21.7279 5.02062C21.4256 5.02062 21.1798 4.77481 21.1798 4.47259V2.28045ZM12.4113 2.28045C12.4113 1.97823 12.6571 1.73242 12.9593 1.73242C13.2615 1.73242 13.5074 1.97823 13.5074 2.28045V4.47259C13.5074 4.77481 13.2615 5.02062 12.9593 5.02062C12.6571 5.02062 12.4113 4.77481 12.4113 4.47259V2.28045ZM3.64275 2.28045C3.64275 1.97823 3.88857 1.73242 4.19079 1.73242C4.49301 1.73242 4.73882 1.97823 4.73882 2.28045V4.47259C4.73882 4.77481 4.49301 5.02062 4.19079 5.02062C3.88857 5.02062 3.64275 4.77481 3.64275 4.47259V2.28045ZM2.54669 3.92455V4.47259C2.54669 5.37918 3.28419 6.11669 4.19079 6.11669C5.09738 6.11669 5.83489 5.37918 5.83489 4.47259V3.92455H11.3152V4.47259C11.3152 5.37918 12.0527 6.11669 12.9593 6.11669C13.8659 6.11669 14.6034 5.37918 14.6034 4.47259V3.92455H20.0838V4.47259C20.0838 5.37918 20.8213 6.11669 21.7279 6.11669C22.6344 6.11669 23.372 5.37918 23.372 4.47259V3.92455H28.8523V4.47259C28.8523 5.37918 29.5899 6.11669 30.4964 6.11669C31.4029 6.11669 32.1405 5.37918 32.1405 4.47259V3.92455H33.4192V9.57295H1.26794V3.92455H2.54669ZM1.26794 29.4994V10.669H33.4192V29.4994H1.26794Z" fill="#2D6A9D"/>
<path d="M30.2773 17.2089H28.0851C27.7824 17.2089 27.5371 17.4542 27.5371 17.7569C27.5371 18.0596 27.7824 18.3049 28.0851 18.3049H30.2773C30.58 18.3049 30.8253 18.0596 30.8253 17.7569C30.8253 17.4542 30.58 17.2089 30.2773 17.2089Z" fill="#2D6A9D"/>
<path d="M24.3583 17.2089H22.1662C21.8635 17.2089 21.6182 17.4542 21.6182 17.7569C21.6182 18.0596 21.8635 18.3049 22.1662 18.3049H24.3583C24.6611 18.3049 24.9064 18.0596 24.9064 17.7569C24.9064 17.4542 24.6611 17.2089 24.3583 17.2089Z" fill="#2D6A9D"/>
<path d="M18.4394 17.2089H16.2473C15.9446 17.2089 15.6992 17.4542 15.6992 17.7569C15.6992 18.0596 15.9446 18.3049 16.2473 18.3049H18.4394C18.7421 18.3049 18.9874 18.0596 18.9874 17.7569C18.9874 17.4542 18.7421 17.2089 18.4394 17.2089Z" fill="#2D6A9D"/>
<path d="M12.5204 17.2089H10.3283C10.0256 17.2089 9.78027 17.4542 9.78027 17.7569C9.78027 18.0596 10.0256 18.3049 10.3283 18.3049H12.5204C12.8231 18.3049 13.0685 18.0596 13.0685 17.7569C13.0685 17.4542 12.8231 17.2089 12.5204 17.2089Z" fill="#2D6A9D"/>
<path d="M6.60247 17.2089H4.41034C4.10768 17.2089 3.8623 17.4542 3.8623 17.7569C3.8623 18.0596 4.10768 18.3049 4.41034 18.3049H6.60247C6.90513 18.3049 7.15051 18.0596 7.15051 17.7569C7.15051 17.4542 6.90513 17.2089 6.60247 17.2089Z" fill="#2D6A9D"/>
<path d="M24.3583 21.1547H22.1662C21.8635 21.1547 21.6182 21.4001 21.6182 21.7028C21.6182 22.0054 21.8635 22.2508 22.1662 22.2508H24.3583C24.6611 22.2508 24.9064 22.0054 24.9064 21.7028C24.9064 21.4001 24.6611 21.1547 24.3583 21.1547Z" fill="#2D6A9D"/>
<path d="M18.4394 21.1547H16.2473C15.9446 21.1547 15.6992 21.4001 15.6992 21.7028C15.6992 22.0054 15.9446 22.2508 16.2473 22.2508H18.4394C18.7421 22.2508 18.9874 22.0054 18.9874 21.7028C18.9874 21.4001 18.7421 21.1547 18.4394 21.1547Z" fill="#2D6A9D"/>
<path d="M12.5204 21.1547H10.3283C10.0256 21.1547 9.78027 21.4001 9.78027 21.7028C9.78027 22.0054 10.0256 22.2508 10.3283 22.2508H12.5204C12.8231 22.2508 13.0685 22.0054 13.0685 21.7028C13.0685 21.4001 12.8231 21.1547 12.5204 21.1547Z" fill="#2D6A9D"/>
<path d="M6.60247 21.1547H4.41034C4.10768 21.1547 3.8623 21.4001 3.8623 21.7028C3.8623 22.0054 4.10768 22.2508 4.41034 22.2508H6.60247C6.90513 22.2508 7.15051 22.0054 7.15051 21.7028C7.15051 21.4001 6.90513 21.1547 6.60247 21.1547Z" fill="#2D6A9D"/>
<path d="M24.3583 25.1006H22.1662C21.8635 25.1006 21.6182 25.346 21.6182 25.6486C21.6182 25.9513 21.8635 26.1967 22.1662 26.1967H24.3583C24.6611 26.1967 24.9064 25.9513 24.9064 25.6486C24.9064 25.346 24.6611 25.1006 24.3583 25.1006Z" fill="#2D6A9D"/>
<path d="M30.2773 21.1547H28.0851C27.7824 21.1547 27.5371 21.4001 27.5371 21.7028C27.5371 22.0054 27.7824 22.2508 28.0851 22.2508H30.2773C30.58 22.2508 30.8253 22.0054 30.8253 21.7028C30.8253 21.4001 30.58 21.1547 30.2773 21.1547Z" fill="#2D6A9D"/>
<path d="M30.2773 25.1006H28.0851C27.7824 25.1006 27.5371 25.346 27.5371 25.6486C27.5371 25.9513 27.7824 26.1967 28.0851 26.1967H30.2773C30.58 26.1967 30.8253 25.9513 30.8253 25.6486C30.8253 25.346 30.58 25.1006 30.2773 25.1006Z" fill="#2D6A9D"/>
<path d="M18.4394 25.1006H16.2473C15.9446 25.1006 15.6992 25.346 15.6992 25.6486C15.6992 25.9513 15.9446 26.1967 16.2473 26.1967H18.4394C18.7421 26.1967 18.9874 25.9513 18.9874 25.6486C18.9874 25.346 18.7421 25.1006 18.4394 25.1006Z" fill="#2D6A9D"/>
<path d="M12.5204 25.1006H10.3283C10.0256 25.1006 9.78027 25.346 9.78027 25.6486C9.78027 25.9513 10.0256 26.1967 10.3283 26.1967H12.5204C12.8231 26.1967 13.0685 25.9513 13.0685 25.6486C13.0685 25.346 12.8231 25.1006 12.5204 25.1006Z" fill="#2D6A9D"/>
<path d="M6.60247 25.1006H4.41034C4.10768 25.1006 3.8623 25.346 3.8623 25.6486C3.8623 25.9513 4.10768 26.1967 4.41034 26.1967H6.60247C6.90513 26.1967 7.15051 25.9513 7.15051 25.6486C7.15051 25.346 6.90513 25.1006 6.60247 25.1006Z" fill="#2D6A9D"/>
<path d="M30.2773 13.2631H28.0851C27.7824 13.2631 27.5371 13.5084 27.5371 13.8111C27.5371 14.1138 27.7824 14.3591 28.0851 14.3591H30.2773C30.58 14.3591 30.8253 14.1138 30.8253 13.8111C30.8253 13.5084 30.58 13.2631 30.2773 13.2631Z" fill="#2D6A9D"/>
<path d="M24.3583 13.2631H22.1662C21.8635 13.2631 21.6182 13.5084 21.6182 13.8111C21.6182 14.1138 21.8635 14.3591 22.1662 14.3591H24.3583C24.6611 14.3591 24.9064 14.1138 24.9064 13.8111C24.9064 13.5084 24.6611 13.2631 24.3583 13.2631Z" fill="#2D6A9D"/>
<path d="M18.4394 13.2631H16.2473C15.9446 13.2631 15.6992 13.5084 15.6992 13.8111C15.6992 14.1138 15.9446 14.3591 16.2473 14.3591H18.4394C18.7421 14.3591 18.9874 14.1138 18.9874 13.8111C18.9874 13.5084 18.7421 13.2631 18.4394 13.2631Z" fill="#2D6A9D"/>
<path d="M12.5204 13.2631H10.3283C10.0256 13.2631 9.78027 13.5084 9.78027 13.8111C9.78027 14.1138 10.0256 14.3591 10.3283 14.3591H12.5204C12.8231 14.3591 13.0685 14.1138 13.0685 13.8111C13.0685 13.5084 12.8231 13.2631 12.5204 13.2631Z" fill="#2D6A9D"/>
<path d="M6.60247 13.2631H4.41034C4.10768 13.2631 3.8623 13.5084 3.8623 13.8111C3.8623 14.1138 4.10768 14.3591 4.41034 14.3591H6.60247C6.90513 14.3591 7.15051 14.1138 7.15051 13.8111C7.15051 13.5084 6.90513 13.2631 6.60247 13.2631Z" fill="#2D6A9D"/>
</g>
<defs>
<clipPath id="clip0_241_1279">
<rect width="34.3434" height="34.3434" fill="white" transform="translate(0.171875 0.636353)"/>
</clipPath>
</defs>
</svg>
