<svg width="35" height="35" viewBox="0 0 35 35" fill="none" xmlns="http://www.w3.org/2000/svg">
<g clip-path="url(#clip0_241_1306)">
<path d="M17.4235 33.9308H16.7218C16.4796 33.9308 16.2832 34.1273 16.2832 34.3695C16.2832 34.6117 16.4796 34.8081 16.7218 34.8081H17.4235C17.6657 34.8081 17.8621 34.6117 17.8621 34.3695C17.8621 34.1273 17.6657 33.9308 17.4235 33.9308Z" fill="#2D6A9D"/>
<path d="M30.3926 4.45604H28.8355V2.89897C28.8355 2.65676 28.6391 2.46035 28.3969 2.46035H26.8398V0.903274C26.8398 0.661072 26.6434 0.464661 26.4012 0.464661H8.38829C8.14609 0.464661 7.94967 0.661072 7.94967 0.903274C7.94967 1.14548 8.14609 1.34189 8.38829 1.34189H25.9626V29.9395H4.73367V1.34189H6.57541C6.81761 1.34189 7.01402 1.14548 7.01402 0.903274C7.01402 0.661072 6.81761 0.464661 6.57541 0.464661H4.29506C4.05286 0.464661 3.85645 0.661072 3.85645 0.903274V30.3781C3.85645 30.6203 4.05286 30.8167 4.29506 30.8167H5.85214V32.3738C5.85214 32.616 6.04855 32.8124 6.29075 32.8124H7.84783V34.3695C7.84783 34.6117 8.04424 34.8081 8.28644 34.8081H15.0553C15.2975 34.8081 15.4939 34.6117 15.4939 34.3695C15.4939 34.1273 15.2975 33.9309 15.0553 33.9309H8.72505V32.8124H28.3969C28.6391 32.8124 28.8355 32.616 28.8355 32.3738V23.6319C28.8355 23.3897 28.6391 23.1933 28.3969 23.1933C28.1547 23.1933 27.9583 23.3897 27.9583 23.6319V31.9352H6.72936V30.8167H26.4012C26.6434 30.8167 26.8398 30.6203 26.8398 30.3781V3.33758H27.9583V21.2633C27.9583 21.5055 28.1547 21.7019 28.3969 21.7019C28.6391 21.7019 28.8355 21.5055 28.8355 21.2633V5.33327H29.9539V33.9309H18.9151C18.6729 33.9309 18.4765 34.1273 18.4765 34.3695C18.4765 34.6117 18.6729 34.8081 18.9151 34.8081H30.3926C30.6348 34.8081 30.8312 34.6117 30.8312 34.3695V4.89466C30.8312 4.65245 30.6348 4.45604 30.3926 4.45604Z" fill="#2D6A9D"/>
<path d="M7.89174 25.7046H22.8046C23.0468 25.7046 23.2432 25.5081 23.2432 25.2659C23.2432 25.0237 23.0468 24.8273 22.8046 24.8273H7.89174C7.64954 24.8273 7.45312 25.0237 7.45312 25.2659C7.45312 25.5081 7.64954 25.7046 7.89174 25.7046Z" fill="#2D6A9D"/>
<path d="M7.89174 19.2883H22.8046C23.0468 19.2883 23.2432 19.0919 23.2432 18.8497C23.2432 18.6075 23.0468 18.4111 22.8046 18.4111H7.89174C7.64954 18.4111 7.45312 18.6075 7.45312 18.8497C7.45312 19.0919 7.64954 19.2883 7.89174 19.2883Z" fill="#2D6A9D"/>
<path d="M7.89174 22.5121H9.64575C9.88796 22.5121 10.0844 22.3157 10.0844 22.0735C10.0844 21.8313 9.88796 21.6349 9.64575 21.6349H7.89174C7.64954 21.6349 7.45312 21.8313 7.45312 22.0735C7.45312 22.3157 7.64954 22.5121 7.89174 22.5121Z" fill="#2D6A9D"/>
<path d="M11.1642 21.6349C10.922 21.6349 10.7256 21.8313 10.7256 22.0735C10.7256 22.3157 10.922 22.5121 11.1642 22.5121H12.0994C12.3416 22.5121 12.538 22.3157 12.538 22.0735C12.538 21.8313 12.3416 21.6349 12.0994 21.6349H11.1642Z" fill="#2D6A9D"/>
<path d="M22.8042 21.6349H13.5929C13.3507 21.6349 13.1543 21.8313 13.1543 22.0735C13.1543 22.3157 13.3507 22.5121 13.5929 22.5121H22.8042C23.0464 22.5121 23.2428 22.3157 23.2428 22.0735C23.2428 21.8313 23.0464 21.6349 22.8042 21.6349Z" fill="#2D6A9D"/>
<path d="M7.91029 15.2029C7.66809 15.2029 7.47168 15.3993 7.47168 15.6415C7.47168 15.8837 7.66809 16.0801 7.91029 16.0801H15.9324C16.1746 16.0801 16.371 15.8837 16.371 15.6415C16.371 15.3993 16.1746 15.2029 15.9324 15.2029H7.91029Z" fill="#2D6A9D"/>
<path d="M22.8047 15.2029H17.424C17.1818 15.2029 16.9854 15.3993 16.9854 15.6415C16.9854 15.8837 17.1818 16.0801 17.424 16.0801H22.8047C23.0469 16.0801 23.2433 15.8837 23.2433 15.6415C23.2433 15.3993 23.0469 15.2029 22.8047 15.2029Z" fill="#2D6A9D"/>
<path d="M7.89174 12.872H22.8046C23.0468 12.872 23.2432 12.6756 23.2432 12.4334C23.2432 12.1912 23.0468 11.9948 22.8046 11.9948H7.89174C7.64954 11.9948 7.45312 12.1912 7.45312 12.4334C7.45312 12.6756 7.64954 12.872 7.89174 12.872Z" fill="#2D6A9D"/>
<path d="M22.805 8.77716H20.0568C19.8146 8.77716 19.6182 8.97357 19.6182 9.21577C19.6182 9.45798 19.8146 9.65439 20.0568 9.65439H22.805C23.0472 9.65439 23.2436 9.45798 23.2436 9.21577C23.2436 8.97357 23.0472 8.77716 22.805 8.77716Z" fill="#2D6A9D"/>
<path d="M7.89662 9.65439H18.3664C18.6086 9.65439 18.805 9.45798 18.805 9.21577C18.805 8.97357 18.6086 8.77716 18.3664 8.77716H7.89662C7.65442 8.77716 7.45801 8.97357 7.45801 9.21577C7.45801 9.45806 7.65442 9.65439 7.89662 9.65439Z" fill="#2D6A9D"/>
<path d="M22.8041 5.57678H16.7804C16.5382 5.57678 16.3418 5.77319 16.3418 6.0154C16.3418 6.2576 16.5382 6.45401 16.7804 6.45401H22.8041C23.0463 6.45401 23.2427 6.2576 23.2427 6.0154C23.2427 5.77319 23.0463 5.57678 22.8041 5.57678Z" fill="#2D6A9D"/>
</g>
<defs>
<clipPath id="clip0_241_1306">
<rect width="34.3434" height="34.3434" fill="white" transform="translate(0.171875 0.464661)"/>
</clipPath>
</defs>
</svg>
