<svg width="31" height="31" viewBox="0 0 31 31" fill="none" xmlns="http://www.w3.org/2000/svg">
<g clip-path="url(#clip0_201_10)">
<path d="M30.7138 14.0563L16.1255 1.01095C16.1 0.98545 16.0745 0.966322 16.0426 0.947194C15.7238 0.641145 15.2137 0.628393 14.8758 0.928066L0.287405 13.9734C-0.0696528 14.2922 -0.0951569 14.8342 0.217269 15.1912C0.389422 15.3825 0.625335 15.4782 0.861248 15.4782C1.06528 15.4782 1.26931 15.408 1.43509 15.2614L4.06202 12.9086V13.3677V20.1773V28.1218C4.06202 29.3141 5.03117 30.2897 6.22987 30.2897C6.24899 30.2897 6.26175 30.2897 6.28088 30.2897C6.3 30.2897 6.31276 30.2897 6.33188 30.2897H10.8334C11.9555 30.2897 12.8673 29.3779 12.8673 28.2557V20.5216C12.8673 20.3494 13.0076 20.2092 13.1797 20.2092H17.8279C18 20.2092 18.1403 20.3494 18.1403 20.5216V28.2557C18.1403 29.3779 19.0521 30.2897 20.1742 30.2897H24.7777C25.9892 30.2897 26.9456 29.0973 26.9456 27.5735V20.4833V18.3155V12.9915L29.5725 15.3443C29.7383 15.4909 29.9423 15.561 30.1464 15.561C30.3823 15.561 30.6182 15.4654 30.7903 15.2741C31.0964 14.9171 31.0645 14.3751 30.7138 14.0563ZM25.2177 18.3091V20.477V27.5607C25.2177 28.1792 24.9116 28.5554 24.7714 28.5554H20.1679C19.9957 28.5554 19.8554 28.4151 19.8554 28.243V20.5216C19.8554 19.3994 18.9437 18.4876 17.8215 18.4876H13.1734C12.0512 18.4876 11.1394 19.3994 11.1394 20.5216V28.2557C11.1394 28.4279 10.9991 28.5681 10.827 28.5681H6.32551C6.30638 28.5681 6.29363 28.5681 6.2745 28.5681C6.25537 28.5681 6.24262 28.5681 6.22349 28.5681C5.9812 28.5681 5.77717 28.3705 5.77717 28.1218V20.1709V13.3613V11.3656L15.456 2.71973L25.2177 11.4485V18.3091Z" fill="black"/>
</g>
<defs>
<clipPath id="clip0_201_10">
<rect width="31" height="31" fill="white"/>
</clipPath>
</defs>
</svg>
