<svg width="252" height="56" viewBox="0 0 252 56" fill="none" xmlns="http://www.w3.org/2000/svg">
<path d="M252 47.9565H216.233V55.5199H252V47.9565Z" fill="#606D68"/>
<path d="M252 0H216.233V7.56345H252V0Z" fill="#606D68"/>
<path d="M224.201 12.6785L218.748 18.0266L244.04 42.8343L249.492 37.4862L224.201 12.6785Z" fill="#606D68"/>
<path d="M6.74403 46.4637L8.44496 50.5323H5.04907L6.75 46.4637H6.74403ZM5.48475 43.1503L0 55.7775H2.87069L4.04045 52.9617H9.44761L10.6174 55.7775H13.5597L8.0809 43.1445H5.48475V43.1503Z" fill="#606D68"/>
<path d="M21.6167 55.7775H15.5352V43.2322H21.4735C24.0875 43.2322 25.693 44.5026 25.693 46.4754V46.5105C25.693 47.9272 24.9231 48.7175 24.01 49.2151C25.4901 49.7712 26.4032 50.6142 26.4032 52.3002V52.3353C26.4032 54.6301 24.5053 55.7775 21.6167 55.7775ZM22.8939 46.9437C22.8939 46.1183 22.2374 45.6558 21.0497 45.6558H18.2745V48.3077H20.8707C22.1121 48.3077 22.8999 47.9155 22.8999 46.9788V46.9437H22.8939ZM23.6041 51.9606C23.6041 51.1177 22.9655 50.5967 21.5212 50.5967H18.2686V53.3539H21.6108C22.8521 53.3539 23.6041 52.9266 23.6041 51.9899V51.9548V51.9606Z" fill="#606D68"/>
<path d="M34.0546 55.9765C30.6169 55.9765 28.5161 54.0974 28.5161 50.4035V43.2381H31.3271V50.3332C31.3271 52.3763 32.3656 53.4359 34.0844 53.4359C35.8032 53.4359 36.8417 52.4173 36.8417 50.4269V43.2381H39.6527V50.3157C39.6527 54.1149 37.4803 55.9765 34.0426 55.9765" fill="#606D68"/>
<path d="M53.0033 55.7775H48.0139V43.2322H53.0033C57.0199 43.2322 59.8011 45.9368 59.8011 49.4668V49.5019C59.8011 53.0319 57.0259 55.7716 53.0033 55.7716M56.8587 49.5019C56.8587 47.2774 55.307 45.7202 53.0033 45.7202H50.8309V53.2837H53.0033C55.307 53.2837 56.8587 51.7616 56.8587 49.5371V49.5019Z" fill="#606D68"/>
<path d="M70.3051 55.7775V50.743H65.1128V55.7775H62.3018V43.2381H65.1128V48.1965H70.3051V43.2381H73.1161V55.7775H70.3051Z" fill="#606D68"/>
<path d="M85.7087 55.7775L84.5389 52.9617H79.1318L77.962 55.7775H75.0913L80.5701 43.1445H83.1662L88.645 55.7775H85.7027H85.7087ZM81.8353 46.4579L80.1344 50.5264H83.5303L81.8294 46.4579H81.8353Z" fill="#606D68"/>
<path d="M96.7022 55.7775H90.6206V43.2322H96.5589C99.173 43.2322 100.778 44.5026 100.778 46.4754V46.5105C100.778 47.9272 100.009 48.7175 99.0954 49.2151C100.576 49.7712 101.489 50.6142 101.489 52.3002V52.3353C101.489 54.6301 99.5908 55.7775 96.7022 55.7775ZM97.9794 46.9437C97.9794 46.1183 97.3229 45.6558 96.1352 45.6558H93.36V48.3077H95.9561C97.1975 48.3077 97.9853 47.9155 97.9853 46.9788V46.9437H97.9794ZM98.6896 51.9606C98.6896 51.1177 98.051 50.5967 96.6067 50.5967H93.354V53.3539H96.6962C97.9376 53.3539 98.6896 52.9266 98.6896 51.9899V51.9548V51.9606Z" fill="#606D68"/>
<path d="M106.753 43.2381H103.942V55.7834H106.753V43.2381Z" fill="#606D68"/>
<path d="M121.422 55.9941C117.656 55.9941 114.863 53.1432 114.863 49.5429V49.5078C114.863 45.9427 117.603 43.0215 121.53 43.0215C123.941 43.0215 125.385 43.8118 126.573 44.9592L124.782 46.9847C123.798 46.1066 122.789 45.568 121.512 45.568C119.357 45.568 117.806 47.3242 117.806 49.4727V49.5078C117.806 51.6562 119.322 53.4534 121.512 53.4534C122.974 53.4534 123.869 52.8797 124.872 51.9841L126.662 53.7578C125.349 55.1394 123.887 55.9999 121.416 55.9999" fill="#606D68"/>
<path d="M134.248 55.9765C130.81 55.9765 128.709 54.0974 128.709 50.4035V43.2381H131.52V50.3332C131.52 52.3763 132.559 53.4359 134.278 53.4359C135.997 53.4359 137.035 52.4173 137.035 50.4269V43.2381H139.846V50.3157C139.846 54.1149 137.674 55.9765 134.236 55.9765" fill="#606D68"/>
<path d="M147.277 55.959C145.343 55.959 143.385 55.2975 141.852 53.951L143.517 51.9958C144.669 52.9266 145.874 53.5178 147.336 53.5178C148.488 53.5178 149.18 53.0671 149.18 52.3353V52.3002C149.18 51.6036 148.745 51.2406 146.602 50.702C144.024 50.0581 142.365 49.3556 142.365 46.8676V46.8325C142.365 44.5553 144.227 43.0508 146.841 43.0508C148.703 43.0508 150.297 43.6245 151.592 44.6489L150.129 46.7271C148.995 45.9544 147.879 45.4919 146.805 45.4919C145.731 45.4919 145.158 45.9778 145.158 46.5866V46.6218C145.158 47.4472 145.707 47.7165 147.915 48.2726C150.511 48.9341 151.974 49.8473 151.974 52.0368V52.0719C151.974 54.5657 150.04 55.959 147.277 55.959Z" fill="#606D68"/>
<path d="M160.21 45.7788V55.7775H157.399V45.7788H153.507V43.2381H164.107V45.7788H160.21Z" fill="#606D68"/>
<path d="M172.474 55.9941C168.529 55.9941 165.694 53.108 165.694 49.5429V49.5078C165.694 45.9427 168.565 43.0215 172.51 43.0215C176.455 43.0215 179.29 45.9075 179.29 49.4727V49.5078C179.29 53.0729 176.419 55.9941 172.474 55.9941ZM176.348 49.5078C176.348 47.3593 174.742 45.568 172.474 45.568C170.206 45.568 168.637 47.3242 168.637 49.4727V49.5078C168.637 51.6562 170.242 53.4476 172.51 53.4476C174.778 53.4476 176.348 51.6914 176.348 49.5429V49.5078Z" fill="#606D68"/>
<path d="M191.781 55.7775V47.5877L188.182 52.95H188.111L184.548 47.6462V55.7775H181.791V43.2381H184.822L188.182 48.5419L191.548 43.2381H194.58V55.7775H191.781Z" fill="#606D68"/>
<path d="M202.196 55.959C200.262 55.959 198.304 55.2975 196.771 53.951L198.436 51.9958C199.587 52.9266 200.793 53.5178 202.255 53.5178C203.407 53.5178 204.099 53.0671 204.099 52.3353V52.3002C204.099 51.6036 203.664 51.2406 201.521 50.702C198.943 50.0581 197.284 49.3556 197.284 46.8676V46.8325C197.284 44.5553 199.146 43.0508 201.76 43.0508C203.622 43.0508 205.215 43.6245 206.511 44.6489L205.048 46.7271C203.914 45.9544 202.798 45.4919 201.724 45.4919C200.65 45.4919 200.077 45.9778 200.077 46.5866V46.6218C200.077 47.4472 200.626 47.7165 202.834 48.2726C205.43 48.9341 206.893 49.8473 206.893 52.0368V52.0719C206.893 54.5657 204.959 55.959 202.196 55.959Z" fill="#606D68"/>
<path d="M88.3708 26.5307V29.0772H83.9066V22.1694H82.8801C81.6387 22.1694 81.0598 22.8661 81.0598 24.0369V31.1086H75.8854C72.3105 31.1086 70.5737 29.3875 70.5737 25.998V22.6905H73.1699V25.7404C73.1699 27.7835 74.5068 28.5621 76.4464 28.5621H78.4637V24.5052C78.4637 21.2913 80.1168 19.7693 83.3575 19.7693H86.5028V26.5366H88.3708V26.5307ZM77.091 33.8951C77.091 34.7732 76.3808 35.2064 75.6049 35.2064C74.829 35.2064 74.1188 34.7674 74.1188 33.8951C74.1188 33.099 74.7634 32.5838 75.6049 32.5838C76.4464 32.5838 77.091 33.1048 77.091 33.8951ZM80.648 33.8951C80.648 34.7732 79.9378 35.2064 79.1619 35.2064C78.3861 35.2064 77.6758 34.7674 77.6758 33.8951C77.6758 33.099 78.3204 32.5838 79.1619 32.5838C80.0034 32.5838 80.648 33.1048 80.648 33.8951ZM94.0465 26.5307V29.0772H88.0426V26.5307H89.5824V19.7634H92.1785V26.5307H94.0465ZM92.3934 31.8696C92.3934 32.7594 91.6831 33.1985 90.8894 33.1985C90.0956 33.1985 89.3854 32.7594 89.3854 31.8696C89.3854 31.0735 90.0479 30.5583 90.8894 30.5583C91.7309 30.5583 92.3934 31.0793 92.3934 31.8696ZM93.7183 26.5307H87.8038V29.0772H93.7183V26.5307ZM87.4696 26.5307H90.3642V29.0772H87.4696V26.5307ZM90.0359 26.5307H92.9305V29.0772H90.0359V26.5307ZM92.6022 26.5307H95.4968V29.0772H92.6022V26.5307ZM95.1686 26.5307H98.0631V29.0772H95.1686V26.5307ZM110.763 24.874V29.0772H97.7289V26.5307H99.3642V15.8412H101.96V19.7693H105.499C108.871 19.7868 110.775 21.6192 110.757 24.8799M108.161 24.4291C108.161 23.0358 107.218 22.3216 105.732 22.3216H101.96V26.5366H108.143L108.161 24.4291ZM104.342 16.9183C104.342 16.1222 105.004 15.607 105.846 15.607C106.687 15.607 107.35 16.128 107.35 16.9183C107.35 17.8082 106.639 18.2472 105.846 18.2472C105.052 18.2472 104.342 17.8082 104.342 16.9183ZM120.7 29.0831C120.45 31.8052 119.047 32.6541 116.385 32.6541C115.592 32.6541 114.834 32.5897 114.135 32.4433L113.574 29.7329C114.452 29.9788 115.377 30.1076 116.272 30.1076C117.233 30.1076 117.943 29.8968 118.11 29.0831H117.567C114.476 29.0831 112.405 27.2332 112.405 24.4584V24.4408C112.405 21.6367 114.589 19.7693 117.913 19.7693H120.742V26.5366M118.146 26.5366V22.3041H117.334C115.926 22.3041 114.84 23.0827 114.84 24.4467V24.4642C114.84 25.7638 115.932 26.5424 117.334 26.5424H118.146V26.5366ZM118.468 26.5366V29.0831V26.5366ZM118.14 26.5366H128.22V29.0831H118.14V26.5366ZM120.706 29.0831V26.5366V29.0831ZM126.871 26.5366V29.0831V26.5366ZM126.543 26.5366H129.438V29.0831H126.543V26.5366ZM129.11 26.5366H130.649V19.7693H133.245V29.0831H129.11V26.5366ZM129.688 31.8755C129.688 31.0793 130.351 30.5642 131.192 30.5642C132.034 30.5642 132.696 31.0852 132.696 31.8755C132.696 32.7653 131.986 33.2044 131.192 33.2044C130.399 33.2044 129.688 32.7653 129.688 31.8755ZM135.543 15.929H138.139V29.0831H135.543V15.929ZM158.389 15.929V29.0889H151.263C147.623 29.0889 145.952 27.2859 145.952 23.9783V21.0747H148.548V23.7208C148.548 25.6994 149.789 26.5424 151.824 26.5424H155.793V15.9349H158.389V15.929ZM154.337 21.1684H150.47V19.0609C150.47 17.8901 151.245 17.1115 152.421 17.1115H153.758V18.5692H152.582C152.302 18.5692 152.117 18.7331 152.117 18.9907V19.219H154.331V21.1684H154.337ZM159.601 32.5077L159.338 30.3007C159.899 30.33 160.281 30.3476 160.729 30.3476C161.558 30.3476 162.149 29.9261 162.149 28.6909V19.7693H164.745V28.2518C164.745 31.6881 163.486 32.6482 160.992 32.6482C160.514 32.6482 160.031 32.6014 159.601 32.5019M178.389 26.5307V29.0772H167.968V15.9173H170.564V26.5249H178.389V26.5307ZM190.444 29.0772H187.944C187.102 30.2129 185.759 30.8803 184.088 30.8803H184.07C182.381 30.8803 181.027 30.2129 180.203 29.0772H178.054V26.5307H179.278C179.26 26.3551 179.26 26.1736 179.26 25.9804V25.9629C179.26 22.9129 181.176 20.8874 184.07 20.8874H184.088C186.947 20.8874 188.869 22.9129 188.869 25.9629V25.9804C188.869 26.1736 188.869 26.3551 188.851 26.5307H190.438V29.0772H190.444ZM186.279 25.8985C186.279 24.4057 185.419 23.4164 184.094 23.4164H184.076C182.74 23.4164 181.844 24.4057 181.844 25.8985V25.916C181.844 27.3737 182.74 28.3513 184.076 28.3513H184.094C185.419 28.3513 186.279 27.3796 186.279 25.916V25.8985ZM190.134 26.5307H193.029V29.0772H190.134V26.5307ZM192.7 26.5307H195.595V29.0772H192.7V26.5307ZM195.267 26.5307H198.161V29.0772H195.267V26.5307ZM197.833 26.5307H200.728V29.0772H197.833V26.5307ZM200.399 26.5307H203.294V29.0772H200.399V26.5307ZM202.966 29.0772V26.5307V29.0772ZM190.397 26.5307V29.0772V26.5307ZM190.068 26.5307H192.963V29.0772H190.068V26.5307ZM192.635 26.5307H195.529V29.0772H192.635V26.5307ZM195.201 26.5307H198.096V29.0772H195.201V26.5307ZM206.928 24.5989C206.928 26.1561 206.517 27.9415 206.171 29.0772H197.767V26.5307H204.201C204.368 25.8985 204.482 25.1199 204.482 24.4701C204.482 22.8778 203.491 21.906 201.951 21.906C201.026 21.906 200.328 22.1168 199.421 22.6846L198.495 20.3664C199.635 19.7634 200.877 19.3595 202.118 19.3595C205.293 19.3595 206.928 21.3557 206.928 24.5989ZM203.783 31.8638C203.783 32.7536 203.073 33.1926 202.279 33.1926C201.486 33.1926 200.775 32.7536 200.775 31.8638C200.775 31.0676 201.438 30.5525 202.279 30.5525C203.121 30.5525 203.783 31.0735 203.783 31.8638ZM138.408 13.7396V14.9338H135.555V13.7864C135.555 12.6742 136.325 12.0887 137.429 12.0887H137.99V13.1425H137.364C137.107 13.1425 136.934 13.3181 136.934 13.5815V13.7396H138.408Z" fill="#606D68"/>
</svg>
