<svg width="367" height="329" viewBox="0 0 367 329" fill="none" xmlns="http://www.w3.org/2000/svg">
<rect width="367" height="329" fill="#F9F9F9"/>
<path d="M277.853 159.802H245.184V166.71H277.853V159.802Z" fill="#606D68"/>
<path d="M277.853 116H245.184V122.908H277.853V116Z" fill="#606D68"/>
<path d="M252.462 127.58L247.482 132.465L270.582 155.123L275.562 150.238L252.462 127.58Z" fill="#606D68"/>
<path d="M95.1597 205.019L96.7133 208.736H93.6116L95.1652 205.019H95.1597ZM94.0095 201.993L89 213.526H91.622L92.6904 210.954H97.6291L98.6975 213.526H101.385L96.3808 201.988H94.0095V201.993Z" fill="#606D68"/>
<path d="M108.744 213.526H103.189V202.068H108.613C111.001 202.068 112.467 203.228 112.467 205.03V205.062C112.467 206.356 111.764 207.078 110.93 207.532C112.282 208.04 113.116 208.81 113.116 210.35V210.382C113.116 212.478 111.382 213.526 108.744 213.526ZM109.91 205.458C109.91 204.704 109.311 204.281 108.226 204.281H105.691V206.703H108.062C109.196 206.703 109.916 206.345 109.916 205.49V205.458H109.91ZM110.559 210.04C110.559 209.27 109.976 208.794 108.657 208.794H105.686V211.312H108.738C109.872 211.312 110.559 210.922 110.559 210.067V210.035V210.04Z" fill="#606D68"/>
<path d="M120.104 213.708C116.964 213.708 115.045 211.992 115.045 208.618V202.073H117.613V208.554C117.613 210.42 118.561 211.387 120.131 211.387C121.701 211.387 122.65 210.457 122.65 208.639V202.073H125.217V208.537C125.217 212.008 123.233 213.708 120.093 213.708" fill="#606D68"/>
<path d="M137.411 213.526H132.854V202.068H137.411C141.08 202.068 143.62 204.538 143.62 207.762V207.794C143.62 211.018 141.085 213.521 137.411 213.521M140.933 207.794C140.933 205.762 139.515 204.34 137.411 204.34H135.427V211.248H137.411C139.515 211.248 140.933 209.858 140.933 207.826V207.794Z" fill="#606D68"/>
<path d="M153.214 213.526V208.928H148.471V213.526H145.904V202.073H148.471V206.602H153.214V202.073H155.781V213.526H153.214Z" fill="#606D68"/>
<path d="M167.283 213.526L166.214 210.954H161.276L160.207 213.526H157.585L162.589 201.988H164.961L169.965 213.526H167.277H167.283ZM163.745 205.014L162.191 208.73H165.293L163.739 205.014H163.745Z" fill="#606D68"/>
<path d="M177.324 213.526H171.769V202.068H177.193C179.58 202.068 181.047 203.228 181.047 205.03V205.062C181.047 206.356 180.344 207.078 179.51 207.532C180.861 208.04 181.695 208.81 181.695 210.35V210.382C181.695 212.478 179.962 213.526 177.324 213.526ZM178.49 205.458C178.49 204.704 177.891 204.281 176.806 204.281H174.271V206.703H176.642C177.776 206.703 178.496 206.345 178.496 205.49V205.458H178.49ZM179.139 210.04C179.139 209.27 178.556 208.794 177.236 208.794H174.266V211.312H177.318C178.452 211.312 179.139 210.922 179.139 210.067V210.035V210.04Z" fill="#606D68"/>
<path d="M186.504 202.073H183.936V213.531H186.504V202.073Z" fill="#606D68"/>
<path d="M199.902 213.724C196.462 213.724 193.911 211.12 193.911 207.832V207.8C193.911 204.543 196.413 201.875 200 201.875C202.202 201.875 203.522 202.597 204.606 203.645L202.971 205.495C202.072 204.693 201.15 204.201 199.984 204.201C198.016 204.201 196.599 205.805 196.599 207.768V207.8C196.599 209.762 197.983 211.403 199.984 211.403C201.319 211.403 202.137 210.879 203.053 210.061L204.688 211.682C203.489 212.943 202.153 213.729 199.897 213.729" fill="#606D68"/>
<path d="M211.616 213.708C208.477 213.708 206.558 211.992 206.558 208.618V202.073H209.125V208.554C209.125 210.42 210.074 211.387 211.644 211.387C213.214 211.387 214.162 210.457 214.162 208.639V202.073H216.73V208.537C216.73 212.008 214.745 213.708 211.606 213.708" fill="#606D68"/>
<path d="M223.517 213.692C221.75 213.692 219.962 213.088 218.562 211.858L220.082 210.072C221.134 210.922 222.236 211.462 223.571 211.462C224.623 211.462 225.255 211.051 225.255 210.382V210.35C225.255 209.714 224.858 209.382 222.901 208.89C220.546 208.302 219.03 207.661 219.03 205.388V205.356C219.03 203.276 220.731 201.902 223.119 201.902C224.819 201.902 226.275 202.426 227.458 203.362L226.122 205.26C225.086 204.554 224.067 204.132 223.086 204.132C222.105 204.132 221.581 204.576 221.581 205.132V205.164C221.581 205.918 222.083 206.164 224.1 206.671C226.471 207.276 227.807 208.11 227.807 210.11V210.142C227.807 212.419 226.04 213.692 223.517 213.692Z" fill="#606D68"/>
<path d="M235.329 204.394V213.526H232.761V204.394H229.207V202.073H238.888V204.394H235.329Z" fill="#606D68"/>
<path d="M246.531 213.724C242.928 213.724 240.338 211.088 240.338 207.832V207.8C240.338 204.543 242.96 201.875 246.564 201.875C250.167 201.875 252.756 204.511 252.756 207.768V207.8C252.756 211.056 250.134 213.724 246.531 213.724ZM250.069 207.8C250.069 205.837 248.602 204.201 246.531 204.201C244.459 204.201 243.026 205.805 243.026 207.768V207.8C243.026 209.762 244.492 211.398 246.564 211.398C248.635 211.398 250.069 209.794 250.069 207.832V207.8Z" fill="#606D68"/>
<path d="M264.165 213.526V206.046L260.878 210.944H260.813L257.558 206.099V213.526H255.04V202.073H257.809L260.878 206.917L263.953 202.073H266.722V213.526H264.165Z" fill="#606D68"/>
<path d="M273.677 213.692C271.911 213.692 270.123 213.088 268.722 211.858L270.243 210.072C271.295 210.922 272.396 211.462 273.732 211.462C274.784 211.462 275.416 211.051 275.416 210.382V210.35C275.416 209.714 275.018 209.382 273.061 208.89C270.706 208.302 269.191 207.661 269.191 205.388V205.356C269.191 203.276 270.892 201.902 273.279 201.902C274.98 201.902 276.435 202.426 277.618 203.362L276.283 205.26C275.247 204.554 274.228 204.132 273.247 204.132C272.265 204.132 271.742 204.576 271.742 205.132V205.164C271.742 205.918 272.244 206.164 274.26 206.671C276.632 207.276 277.967 208.11 277.967 210.11V210.142C277.967 212.419 276.201 213.692 273.677 213.692Z" fill="#606D68"/>
<path d="M169.714 186.813V189.139H165.637V182.83H164.699C163.566 182.83 163.037 183.466 163.037 184.536V190.995H158.311C155.045 190.995 153.459 189.423 153.459 186.327V183.306H155.83V186.092C155.83 187.958 157.051 188.669 158.823 188.669H160.666V184.963C160.666 182.028 162.176 180.638 165.135 180.638H168.008V186.819H169.714V186.813ZM159.412 193.54C159.412 194.342 158.763 194.737 158.054 194.737C157.346 194.737 156.697 194.336 156.697 193.54C156.697 192.813 157.286 192.342 158.054 192.342C158.823 192.342 159.412 192.818 159.412 193.54ZM162.661 193.54C162.661 194.342 162.012 194.737 161.303 194.737C160.595 194.737 159.946 194.336 159.946 193.54C159.946 192.813 160.535 192.342 161.303 192.342C162.072 192.342 162.661 192.818 162.661 193.54ZM174.898 186.813V189.139H169.415V186.813H170.821V180.632H173.192V186.813H174.898ZM173.388 191.69C173.388 192.502 172.74 192.903 172.015 192.903C171.29 192.903 170.641 192.502 170.641 191.69C170.641 190.963 171.246 190.492 172.015 190.492C172.783 190.492 173.388 190.968 173.388 191.69ZM174.599 186.813H169.196V189.139H174.599V186.813ZM168.891 186.813H171.535V189.139H168.891V186.813ZM171.235 186.813H173.879V189.139H171.235V186.813ZM173.579 186.813H176.223V189.139H173.579V186.813ZM175.923 186.813H178.567V189.139H175.923V186.813ZM190.167 185.3V189.139H178.262V186.813H179.755V177.05H182.126V180.638H185.359C188.439 180.654 190.178 182.327 190.161 185.306M187.79 184.894C187.79 183.621 186.929 182.969 185.572 182.969H182.126V186.819H187.774L187.79 184.894ZM184.301 178.034C184.301 177.307 184.907 176.836 185.675 176.836C186.444 176.836 187.049 177.312 187.049 178.034C187.049 178.847 186.4 179.248 185.675 179.248C184.95 179.248 184.301 178.847 184.301 178.034ZM199.243 189.145C199.014 191.631 197.733 192.406 195.302 192.406C194.577 192.406 193.884 192.347 193.247 192.214L192.734 189.738C193.536 189.963 194.38 190.08 195.198 190.08C196.076 190.08 196.724 189.888 196.877 189.145H196.381C193.557 189.145 191.666 187.455 191.666 184.921V184.905C191.666 182.343 193.661 180.638 196.697 180.638H199.281V186.819M196.91 186.819V182.953H196.168C194.882 182.953 193.89 183.664 193.89 184.91V184.926C193.89 186.113 194.887 186.824 196.168 186.824H196.91V186.819ZM197.204 186.819V189.145ZM196.904 186.819H206.111V189.145H196.904V186.819ZM199.248 189.145V186.819ZM204.879 186.819V189.145ZM204.579 186.819H207.223V189.145H204.579V186.819ZM206.923 186.819H208.33V180.638H210.701V189.145H206.923V186.819ZM207.452 191.695C207.452 190.968 208.057 190.497 208.826 190.497C209.594 190.497 210.2 190.973 210.2 191.695C210.2 192.508 209.551 192.909 208.826 192.909C208.101 192.909 207.452 192.508 207.452 191.695ZM212.8 177.13H215.171V189.145H212.8V177.13ZM233.666 177.13V189.15H227.158C223.833 189.15 222.306 187.503 222.306 184.482V181.83H224.678V184.247C224.678 186.054 225.811 186.824 227.67 186.824H231.295V177.136H233.666V177.13ZM229.965 181.916H226.433V179.991C226.433 178.921 227.141 178.21 228.215 178.21H229.436V179.542H228.363C228.106 179.542 227.937 179.691 227.937 179.927V180.135H229.96V181.916H229.965ZM234.773 192.273L234.533 190.257C235.046 190.284 235.394 190.3 235.803 190.3C236.561 190.3 237.101 189.915 237.101 188.786V180.638H239.472V188.385C239.472 191.524 238.322 192.401 236.043 192.401C235.607 192.401 235.165 192.358 234.773 192.267M251.933 186.813V189.139H242.415V177.12H244.787V186.808H251.933V186.813ZM262.944 189.139H260.66C259.892 190.177 258.665 190.786 257.139 190.786H257.122C255.58 190.786 254.342 190.177 253.59 189.139H251.628V186.813H252.745C252.729 186.653 252.729 186.487 252.729 186.311V186.295C252.729 183.509 254.479 181.659 257.122 181.659H257.139C259.75 181.659 261.505 183.509 261.505 186.295V186.311C261.505 186.487 261.505 186.653 261.489 186.813H262.939V189.139H262.944ZM259.139 186.236C259.139 184.872 258.354 183.969 257.144 183.969H257.128C255.907 183.969 255.089 184.872 255.089 186.236V186.252C255.089 187.583 255.907 188.476 257.128 188.476H257.144C258.354 188.476 259.139 187.589 259.139 186.252V186.236ZM262.661 186.813H265.305V189.139H262.661V186.813ZM265.005 186.813H267.648V189.139H265.005V186.813ZM267.349 186.813H269.992V189.139H267.349V186.813ZM269.693 186.813H272.336V189.139H269.693V186.813ZM272.037 186.813H274.68V189.139H272.037V186.813ZM274.381 189.139V186.813ZM262.901 186.813V189.139ZM262.601 186.813H265.245V189.139H262.601V186.813ZM264.945 186.813H267.589V189.139H264.945V186.813ZM267.289 186.813H269.932V189.139H267.289V186.813ZM278 185.049C278 186.471 277.624 188.102 277.308 189.139H269.633V186.813H275.509C275.662 186.236 275.765 185.525 275.765 184.931C275.765 183.477 274.86 182.589 273.454 182.589C272.609 182.589 271.971 182.782 271.143 183.301L270.298 181.183C271.339 180.632 272.473 180.263 273.607 180.263C276.506 180.263 278 182.087 278 185.049ZM275.127 191.684C275.127 192.497 274.479 192.898 273.754 192.898C273.029 192.898 272.38 192.497 272.38 191.684C272.38 190.957 272.985 190.487 273.754 190.487C274.522 190.487 275.127 190.963 275.127 191.684ZM215.416 175.13V176.221H212.811V175.173C212.811 174.157 213.514 173.623 214.522 173.623H215.035V174.585H214.462C214.228 174.585 214.07 174.746 214.07 174.986V175.13H215.416Z" fill="#606D68"/>
</svg>
