<svg width="35" height="35" viewBox="0 0 35 35" fill="none" xmlns="http://www.w3.org/2000/svg">
<g clip-path="url(#clip0_241_1303)">
<path d="M33.006 1.10455H1.681C1.26512 1.10455 0.983398 1.38628 0.983398 1.80215V33.1271C0.983398 33.543 1.26512 33.8247 1.681 33.8247H17.3435C17.7594 33.8247 18.0411 33.543 18.0411 33.2009V27.0768C18.0411 26.6609 17.7594 26.3792 17.3435 26.3792H16.0221C15.7403 26.3792 15.5324 26.52 15.3983 26.728C14.9086 27.6335 14.003 28.1232 13.0304 28.1232C11.5011 28.1232 10.2467 26.8688 10.2467 25.3395C10.2467 23.8101 11.5011 22.5558 13.0304 22.5558C14.003 22.5558 14.9086 23.0454 15.3983 23.951C15.5391 24.1589 15.7471 24.2998 16.0221 24.2998H17.3435C17.7594 24.2998 18.0411 24.0181 18.0411 23.6022V18.1689H22.7767V18.5177C21.6565 19.2757 21.0327 20.5301 21.0327 21.8515C21.0327 24.1455 22.9109 26.0304 25.2116 26.0304C27.5124 26.0304 29.3905 24.1522 29.3167 21.7844C29.3167 20.463 28.6929 19.2086 27.5794 18.444V18.1622H33.0127C33.4286 18.1622 33.7103 17.8805 33.7103 17.4646V1.80215C33.7036 1.38628 33.4218 1.10455 33.006 1.10455ZM16.6459 2.49976V7.85921C16.6459 8.27509 16.9276 8.55681 17.3435 8.55681H18.6649C18.9466 8.55681 19.1546 8.41595 19.2887 8.20801C19.7784 7.30247 20.6839 6.81281 21.6565 6.81281C23.1859 6.81281 24.4402 8.06715 24.4402 9.5965C24.4402 11.1259 23.1859 12.3802 21.6565 12.3802C20.6839 12.3802 19.7784 11.8905 19.2887 10.985C19.1479 10.7771 18.9399 10.6362 18.6649 10.6362H17.3435C16.9276 10.6362 16.6459 10.9179 16.6459 11.3338V16.767H11.984V16.4853C13.0975 15.7206 13.7213 14.4663 13.7213 13.1449C13.7213 10.8508 11.8432 8.96598 9.54243 8.96598C7.24168 8.96598 5.36353 10.8441 5.36353 13.1449C5.36353 14.4663 5.98734 15.7206 7.10082 16.4853V16.767H2.3786V2.49976H16.6459ZM16.6459 22.8241H16.3642C15.5995 21.7106 14.3451 21.0868 13.0237 21.0868C10.7297 21.0868 8.84483 22.965 8.84483 25.2657C8.84483 27.5597 10.723 29.4446 13.0237 29.4446C14.3451 29.4446 15.5995 28.8208 16.3642 27.7073H16.6459V32.4429H2.3786V18.1622H7.73806C8.15393 18.1622 8.43566 17.8805 8.43566 17.4646V16.1432C8.43566 15.8615 8.29479 15.6536 8.08686 15.5194C7.18132 15.0297 6.69165 14.1242 6.69165 13.1516C6.69165 11.6222 7.94599 10.3679 9.47535 10.3679C11.0047 10.3679 12.259 11.6222 12.259 13.1516C12.259 14.1242 11.7694 15.0297 10.8638 15.5194C10.6559 15.6603 10.515 15.8682 10.515 16.1432V17.4646C10.515 17.8805 10.7968 18.1622 11.2126 18.1622H16.6459V22.8241ZM32.3822 16.767H26.9489C26.533 16.767 26.2513 17.0488 26.2513 17.4646V18.7861C26.2513 19.0678 26.3922 19.2757 26.6001 19.4099C27.5057 19.8995 27.9953 20.8051 27.9953 21.7777C27.9953 23.307 26.741 24.5614 25.2116 24.5614C23.6823 24.5614 22.4279 23.307 22.4279 21.7777C22.4279 20.8051 22.9176 19.8995 23.8231 19.4099C24.0311 19.269 24.1719 19.0611 24.1719 18.7861V17.4646C24.1719 17.0488 23.8902 16.767 23.4743 16.767H18.0411V12.1052H18.3228C19.0875 13.2187 20.3418 13.8425 21.6632 13.8425C23.9573 13.8425 25.8421 11.9643 25.8421 9.66358C25.8421 7.36955 23.964 5.48468 21.6632 5.48468C20.3418 5.48468 19.0875 6.1085 18.3228 7.22198H18.0411V2.49976H32.3822V16.767Z" fill="#2D6A9D"/>
</g>
<defs>
<clipPath id="clip0_241_1303">
<rect width="34.3434" height="34.3434" fill="white" transform="translate(0.171875 0.292908)"/>
</clipPath>
</defs>
</svg>
