<svg width="37" height="37" viewBox="0 0 37 37" fill="none" xmlns="http://www.w3.org/2000/svg">
<path d="M33.6964 23.7857H32.375V20.4822C32.375 18.6652 30.8884 17.1786 29.0714 17.1786H19.1607V13.2143H20.4821C22.2991 13.2143 23.7857 11.7277 23.7857 9.91072V7.26787C23.7857 5.4509 22.2991 3.96429 20.4821 3.96429H16.5179C14.7009 3.96429 13.2143 5.4509 13.2143 7.26787V9.91072C13.2143 11.7277 14.7009 13.2143 16.5179 13.2143H17.8393V17.1786H7.92857C6.11161 17.1786 4.625 18.6652 4.625 20.4822V23.7857H3.30357C1.48661 23.7857 0 25.2723 0 27.0893V29.7322C0 31.5491 1.48661 33.0357 3.30357 33.0357H7.26786C9.08482 33.0357 10.5714 31.5491 10.5714 29.7322V27.0893C10.5714 25.2723 9.08482 23.7857 7.26786 23.7857H5.94643V20.4822C5.94643 19.392 6.83839 18.5 7.92857 18.5H17.8393V23.7857H16.5179C14.7009 23.7857 13.2143 25.2723 13.2143 27.0893V29.7322C13.2143 31.5491 14.7009 33.0357 16.5179 33.0357H20.4821C22.2991 33.0357 23.7857 31.5491 23.7857 29.7322V27.0893C23.7857 25.2723 22.2991 23.7857 20.4821 23.7857H19.1607V18.5H29.0714C30.1616 18.5 31.0536 19.392 31.0536 20.4822V23.7857H29.7321C27.9152 23.7857 26.4286 25.2723 26.4286 27.0893V29.7322C26.4286 31.5491 27.9152 33.0357 29.7321 33.0357H33.6964C35.5134 33.0357 37 31.5491 37 29.7322V27.0893C37 25.2723 35.5134 23.7857 33.6964 23.7857ZM7.26786 25.1072C8.35804 25.1072 9.25 25.9991 9.25 27.0893V29.7322C9.25 30.8223 8.35804 31.7143 7.26786 31.7143H3.30357C2.21339 31.7143 1.32143 30.8223 1.32143 29.7322V27.0893C1.32143 25.9991 2.21339 25.1072 3.30357 25.1072H7.26786ZM20.4821 25.1072C21.5723 25.1072 22.4643 25.9991 22.4643 27.0893V29.7322C22.4643 30.8223 21.5723 31.7143 20.4821 31.7143H16.5179C15.4277 31.7143 14.5357 30.8223 14.5357 29.7322V27.0893C14.5357 25.9991 15.4277 25.1072 16.5179 25.1072H20.4821ZM16.5179 11.8929C15.4277 11.8929 14.5357 11.0009 14.5357 9.91072V7.26787C14.5357 6.17769 15.4277 5.28572 16.5179 5.28572H20.4821C21.5723 5.28572 22.4643 6.17769 22.4643 7.26787V9.91072C22.4643 11.0009 21.5723 11.8929 20.4821 11.8929H16.5179ZM35.6786 29.7322C35.6786 30.8223 34.7866 31.7143 33.6964 31.7143H29.7321C28.642 31.7143 27.75 30.8223 27.75 29.7322V27.0893C27.75 25.9991 28.642 25.1072 29.7321 25.1072H33.6964C34.7866 25.1072 35.6786 25.9991 35.6786 27.0893V29.7322Z" fill="black"/>
</svg>
