<svg width="146" height="47" viewBox="0 0 146 47" fill="none" xmlns="http://www.w3.org/2000/svg">
<g clip-path="url(#clip0_1289_59390)">
<path d="M143.754 29.7968C143.754 29.4551 143.834 29.1833 143.996 28.9814C144.158 28.7795 144.359 28.6785 144.603 28.6785C144.843 28.6785 145.038 28.764 145.185 28.9374C145.331 29.1108 145.406 29.3412 145.406 29.6337C145.406 29.9366 145.311 30.1851 145.12 30.3792C144.93 30.5733 144.681 30.6691 144.372 30.6691H143.96C143.821 30.4802 143.754 30.1902 143.754 29.7968ZM144.369 31.1273C144.819 31.1273 145.192 30.9953 145.486 30.7312C145.779 30.4672 145.928 30.1048 145.928 29.6415C145.928 29.1988 145.805 28.8546 145.56 28.6035C145.316 28.355 144.997 28.2281 144.601 28.2281C144.194 28.2281 143.865 28.3757 143.613 28.6682C143.361 28.9607 143.235 29.3386 143.235 29.7968C143.235 30.1618 143.299 30.4517 143.428 30.6691H142.569V31.1273H144.369ZM141.447 27.4231C141.447 27.6405 141.547 27.7492 141.748 27.7492C141.949 27.7492 142.049 27.6405 142.049 27.4231C142.049 27.2031 141.949 27.0943 141.748 27.0943C141.547 27.0943 141.447 27.2057 141.447 27.4231ZM140.698 31.1273H142.01V30.7934C142.121 31.016 142.34 31.1273 142.664 31.1273H142.797V30.6691H142.587C142.412 30.6691 142.273 30.6199 142.167 30.519C142.062 30.418 142.01 30.2808 142.01 30.11V28.2902H141.493V30.6691H140.698V31.1273ZM138.707 28.6915C139.335 28.6915 139.649 29.0409 139.649 29.7398V30.6691H137.776C137.452 30.6691 137.264 30.5009 137.213 30.1669C137.614 29.1833 138.113 28.6915 138.707 28.6915ZM137.202 30.6743C137.357 30.9746 137.555 31.1247 137.797 31.1247H140.145V30.7908C140.253 31.0134 140.469 31.1247 140.796 31.1247H140.817V30.6665H140.724C140.549 30.6665 140.41 30.6173 140.305 30.519C140.199 30.4206 140.148 30.2938 140.148 30.1359V29.7139C140.148 28.7225 139.703 28.2281 138.815 28.2281C138.116 28.2281 137.578 28.6682 137.205 29.5457V28.4637H136.711V30.6691H135.973V31.1273H137.205V30.6743H137.202ZM134.977 31.1273H136.089V30.6691H134.977V31.1273ZM133.982 31.1273H135.093V30.6691H133.982V31.1273ZM132.986 31.1273H134.097V30.6691H132.986V31.1273ZM131.993 31.1273H133.104V30.6691H131.993V31.1273ZM130.998 31.1273H132.109V30.6691H130.998V31.1273ZM130.005 31.1273H131.116V30.6691H130.005V31.1273ZM129.009 31.1273H130.12V30.6691H129.009V31.1273ZM128.016 31.1273H129.127V30.6691H128.016V31.1273ZM127.021 31.1273H128.132V30.6691H127.021V31.1273ZM126.028 31.1273H127.139V30.6691H126.028V31.1273ZM125.032 31.1273H126.143V30.6691H125.032V31.1273ZM124.039 31.1273H125.15V30.6691H124.039V31.1273ZM123.044 31.1273H124.155V30.6691H123.044V31.1273ZM122.051 31.1273H123.162V30.6691H122.051V31.1273ZM120.53 27.4231C120.53 27.6405 120.631 27.7492 120.834 27.7492C121.034 27.7492 121.135 27.6405 121.135 27.4231C121.135 27.2031 121.034 27.0943 120.834 27.0943C120.631 27.0943 120.53 27.2057 120.53 27.4231ZM119.64 27.4231C119.64 27.6405 119.741 27.7492 119.941 27.7492C120.144 27.7492 120.245 27.6405 120.245 27.4231C120.245 27.2031 120.144 27.0943 119.941 27.0943C119.741 27.0943 119.64 27.2057 119.64 27.4231ZM120.978 28.7432V30.6691H120.314C119.784 30.6691 119.519 30.374 119.519 29.7864C119.519 29.4603 119.614 29.2066 119.805 29.0202C119.995 28.8364 120.265 28.7432 120.613 28.7432H120.978ZM122.164 31.1273V30.6691H121.472V28.2902H120.595C120.116 28.2902 119.73 28.4249 119.44 28.6941C119.149 28.9633 119.002 29.3283 119.002 29.7942C119.002 30.2109 119.121 30.5371 119.357 30.7752C119.594 31.0108 119.918 31.1299 120.327 31.1299H122.164V31.1273ZM116.674 26.6802H116.157V31.1247H116.674V26.6802ZM113.857 31.1273H115.169V26.6828H114.652V30.6717H113.857V31.1273ZM111.249 29.7968C111.249 29.4551 111.329 29.1833 111.491 28.9814C111.653 28.7795 111.853 28.6785 112.093 28.6785C112.334 28.6785 112.53 28.7614 112.679 28.9296C112.828 29.0979 112.903 29.3283 112.903 29.6208C112.903 29.9495 112.823 30.2058 112.664 30.3896C112.504 30.5733 112.278 30.6665 111.985 30.6665H111.457C111.318 30.4802 111.249 30.1902 111.249 29.7968ZM113.973 31.1273V30.6691H112.954C113.096 30.5708 113.212 30.4258 113.297 30.2342C113.381 30.0427 113.425 29.846 113.425 29.6415C113.425 29.1988 113.302 28.8546 113.057 28.6035C112.813 28.355 112.494 28.2281 112.098 28.2281C111.691 28.2281 111.362 28.3757 111.11 28.6682C110.858 28.9607 110.732 29.3386 110.732 29.7968C110.732 30.1747 110.796 30.4646 110.925 30.6691H110.176V31.1273H113.973ZM106.647 31.1273V30.7934C106.755 31.016 106.971 31.1273 107.298 31.1273H108.136V30.7934C108.244 31.016 108.46 31.1273 108.787 31.1273H109.626V30.7934C109.736 31.016 109.955 31.1273 110.279 31.1273H110.297V30.6691H110.204C110.032 30.6691 109.893 30.6199 109.788 30.519C109.682 30.418 109.628 30.2808 109.628 30.11V28.2902H109.134V30.6691H108.774C108.589 30.6691 108.437 30.6096 108.319 30.4879C108.2 30.3663 108.141 30.2109 108.141 30.022V28.7458H107.647V30.6717H107.287C107.102 30.6717 106.95 30.6122 106.832 30.4905C106.714 30.3688 106.654 30.2135 106.654 30.0246V28.7484H106.16V30.6743H105.301V31.1325H106.647V31.1273ZM104.298 31.1273H105.409V30.6691H104.298V31.1273ZM103.614 26.6802H103.097V31.1247H104.411V30.6665H103.614V26.6802ZM100.244 29.0383V30.6691H99.7679C99.5261 30.6691 99.3306 30.5941 99.1814 30.4439C99.0322 30.2938 98.9576 30.0971 98.9576 29.8511C98.9576 29.3075 99.3075 29.0357 100.01 29.0357H100.244V29.0383ZM102.109 29.2428C102.109 28.619 101.937 28.1375 101.594 27.7907C101.252 27.4464 100.763 27.273 100.133 27.273C99.683 27.273 99.2792 27.3351 98.9242 27.4567L99.0579 27.9071C99.3975 27.7932 99.7576 27.7363 100.133 27.7363C100.645 27.7363 101.018 27.8657 101.257 28.1246C101.497 28.3834 101.615 28.7717 101.615 29.2894V30.6691H100.738V28.5802H100.033C99.5287 28.5802 99.1351 28.6889 98.8573 28.9063C98.5795 29.1238 98.4405 29.4318 98.4405 29.8304C98.4405 30.2058 98.5769 30.4853 98.847 30.6665H97.9183V31.1247H102.109V29.2428ZM95.3099 29.7968C95.3099 29.4551 95.3896 29.1833 95.5517 28.9814C95.7137 28.7795 95.9144 28.6785 96.1536 28.6785C96.3954 28.6785 96.5909 28.7614 96.7401 28.9296C96.8893 29.0979 96.9639 29.3283 96.9639 29.6208C96.9639 29.9495 96.8842 30.2058 96.7247 30.3896C96.5652 30.5733 96.3388 30.6665 96.0456 30.6665H95.5182C95.3793 30.4802 95.3099 30.1902 95.3099 29.7968ZM98.0341 31.1273V30.6691H97.0154C97.1569 30.5708 97.2726 30.4258 97.3575 30.2342C97.4424 30.0427 97.4862 29.846 97.4862 29.6415C97.4862 29.1988 97.3627 28.8546 97.1183 28.6035C96.8739 28.355 96.5549 28.2281 96.1588 28.2281C95.7523 28.2281 95.423 28.3757 95.1709 28.6682C94.9188 28.9607 94.7928 29.3386 94.7928 29.7968C94.7928 30.1747 94.8571 30.4646 94.9857 30.6691H94.2371V31.1273H98.0341ZM93.2442 31.1273H94.3555V30.6691H93.2442V31.1273ZM92.2486 31.1273H93.3599V30.6691H92.2486V31.1273ZM91.2557 31.1273H92.367V30.6691H91.2557V31.1273ZM90.2601 31.1273H91.3714V30.6691H90.2601V31.1273ZM89.2646 31.1273H90.3759V30.6691H89.2646V31.1273ZM88.2716 31.1273H89.3829V30.6691H88.2716V31.1273ZM87.2761 31.1273H88.3874V30.6691H87.2761V31.1273ZM86.5944 26.6802H86.0773V31.1247H87.3918V30.6665H86.5944V26.6802ZM83.5126 27.4231C83.5126 27.6405 83.6129 27.7492 83.8161 27.7492C84.0168 27.7492 84.1171 27.6405 84.1171 27.4231C84.1171 27.2031 84.0168 27.0943 83.8161 27.0943C83.6129 27.0943 83.5126 27.2057 83.5126 27.4231ZM82.6251 27.4231C82.6251 27.6405 82.7254 27.7492 82.926 27.7492C83.1292 27.7492 83.2296 27.6405 83.2296 27.4231C83.2296 27.2031 83.1292 27.0943 82.926 27.0943C82.7254 27.0943 82.6251 27.2057 82.6251 27.4231ZM82.5067 30.6691C82.3395 30.6691 82.2083 30.6018 82.108 30.4672C82.0077 30.3326 81.9588 30.1592 81.9588 29.9495C81.9588 29.6803 81.9871 29.4007 82.0462 29.1134H81.5806C81.4829 29.393 81.4366 29.6855 81.4366 29.9935C81.4366 30.343 81.5343 30.6173 81.7324 30.8218C81.9305 31.0263 82.1929 31.1273 82.5247 31.1273H85.0895V28.2902H84.5956V30.6691H82.5067ZM79.0519 26.6802H78.5348V31.1247H79.0519V26.6802ZM76.2351 31.1273H77.547V26.6828H77.03V30.6717H76.2351V31.1273ZM73.6266 29.7968C73.6266 29.4551 73.7063 29.1833 73.8684 28.9814C74.0305 28.7795 74.2311 28.6785 74.4704 28.6785C74.7122 28.6785 74.9077 28.7614 75.0569 28.9296C75.2061 29.0979 75.2807 29.3283 75.2807 29.6208C75.2807 29.9495 75.2009 30.2058 75.0414 30.3896C74.8819 30.5733 74.6556 30.6665 74.3623 30.6665H73.835C73.696 30.4802 73.6266 30.1902 73.6266 29.7968ZM76.3508 31.1273V30.6691H75.3321C75.4736 30.5708 75.5894 30.4258 75.6743 30.2342C75.7592 30.0427 75.8029 29.846 75.8029 29.6415C75.8029 29.1988 75.6794 28.8546 75.435 28.6035C75.1906 28.355 74.8717 28.2281 74.4781 28.2281C74.0716 28.2281 73.7423 28.3757 73.4902 28.6682C73.2381 28.9607 73.1121 29.3386 73.1121 29.7968C73.1121 30.1747 73.1764 30.4646 73.305 30.6691H72.5564V31.1273H76.3508ZM70.4908 31.8857C70.4908 32.1032 70.5911 32.2119 70.7917 32.2119C70.9924 32.2119 71.0927 32.1032 71.0927 31.8857C71.0927 31.6657 70.9924 31.557 70.7917 31.557C70.5911 31.557 70.4908 31.6683 70.4908 31.8857ZM69.2174 30.6691V31.1273H72.6696V30.6691H72.2529C72.0625 30.4776 71.921 30.0738 71.8336 29.4629C71.7615 28.9995 71.6304 28.6785 71.4374 28.4999C71.2445 28.3187 70.9821 28.2307 70.6477 28.2307C70.2438 28.2307 69.8939 28.3265 69.5981 28.518L69.7988 28.9219C70.0997 28.7665 70.3801 28.6863 70.6425 28.6863C70.8586 28.6863 71.0207 28.751 71.1262 28.883C71.2342 29.015 71.3165 29.2532 71.3757 29.5975C71.4683 30.1488 71.5918 30.506 71.741 30.6691H69.2174ZM68.3839 27.4231C68.3839 27.6405 68.4842 27.7492 68.6875 27.7492C68.8881 27.7492 68.9884 27.6405 68.9884 27.4231C68.9884 27.2031 68.8881 27.0943 68.6875 27.0943C68.4842 27.0943 68.3839 27.2057 68.3839 27.4231ZM67.4938 27.4231C67.4938 27.6405 67.5942 27.7492 67.7948 27.7492C67.998 27.7492 68.0984 27.6405 68.0984 27.4231C68.0984 27.2031 67.998 27.0943 67.7948 27.0943C67.5942 27.0943 67.4938 27.2057 67.4938 27.4231ZM67.234 31.1273H68.546V30.7934C68.6566 31.016 68.8753 31.1273 69.1994 31.1273H69.3331V30.6691H69.1222C68.9473 30.6691 68.8084 30.6199 68.7029 30.519C68.5974 30.418 68.546 30.2808 68.546 30.11V28.2902H68.0289V30.6691H67.234V31.1273ZM64.6255 29.7968C64.6255 29.4551 64.7053 29.1833 64.8674 28.9814C65.0294 28.7795 65.2301 28.6785 65.4693 28.6785C65.7111 28.6785 65.9066 28.7614 66.0558 28.9296C66.205 29.0979 66.2796 29.3283 66.2796 29.6208C66.2796 29.9495 66.1999 30.2058 66.0404 30.3896C65.8809 30.5733 65.6545 30.6665 65.3613 30.6665H64.8339C64.695 30.4802 64.6255 30.1902 64.6255 29.7968ZM67.3498 31.1273V30.6691H66.3311C66.4726 30.5708 66.5883 30.4258 66.6732 30.2342C66.7581 30.0427 66.8018 29.846 66.8018 29.6415C66.8018 29.1988 66.6784 28.8546 66.434 28.6035C66.1896 28.355 65.8706 28.2281 65.477 28.2281C65.0706 28.2281 64.7413 28.3757 64.4892 28.6682C64.2371 28.9607 64.1111 29.3386 64.1111 29.7968C64.1111 30.1747 64.1754 30.4646 64.304 30.6691H63.5554V31.1273H67.3498ZM61.4897 28.6915C61.6929 28.6009 61.8884 28.5569 62.0814 28.5569C62.4132 28.5569 62.6525 28.6086 62.8017 28.7148C62.7631 29.38 62.457 29.9055 61.8884 30.2886C61.4331 29.9392 61.1502 29.5146 61.0344 29.015C61.1347 28.8882 61.2891 28.7821 61.4897 28.6915ZM63.6686 30.6691H62.9354C62.7296 30.6691 62.5136 30.6277 62.2898 30.5475C62.6139 30.3248 62.8686 30.0246 63.0538 29.6466C63.239 29.2687 63.3342 28.8778 63.3342 28.4714C63.0358 28.2255 62.6113 28.1039 62.0634 28.1039C61.7624 28.1039 61.4666 28.1712 61.1759 28.3058C60.8852 28.4404 60.6511 28.6268 60.4762 28.8649C60.5225 29.1859 60.6434 29.5043 60.8389 29.8201C61.0318 30.1385 61.2479 30.3818 61.4871 30.5552C61.2994 30.6329 61.0678 30.6717 60.7952 30.6717H60.1006V31.1299H60.8029C61.1939 31.1299 61.554 31.0315 61.8859 30.8374C62.246 31.0315 62.6036 31.1299 62.9612 31.1299H63.6712V30.6691H63.6686ZM59.2671 31.6735C59.2671 31.8909 59.3674 31.9996 59.5707 31.9996C59.7713 31.9996 59.8716 31.8909 59.8716 31.6735C59.8716 31.4534 59.7713 31.3447 59.5707 31.3447C59.3674 31.3473 59.2671 31.456 59.2671 31.6735ZM58.377 31.6735C58.377 31.8909 58.4774 31.9996 58.678 31.9996C58.8812 31.9996 58.9816 31.8909 58.9816 31.6735C58.9816 31.4534 58.8812 31.3447 58.678 31.3447C58.4774 31.3473 58.377 31.456 58.377 31.6735ZM58.1172 31.1273H59.4292V30.7934C59.5398 31.016 59.7585 31.1273 60.0826 31.1273H60.2163V30.6691H60.0054C59.8305 30.6691 59.6916 30.6199 59.5861 30.519C59.4806 30.418 59.4292 30.2808 59.4292 30.11V28.2902H58.9121V30.6691H58.1172V31.1273ZM57.1217 31.1273H58.233V30.6691H57.1217V31.1273ZM56.1287 31.1273H57.24V30.6691H56.1287V31.1273ZM55.1332 31.1273H56.2445V30.6691H55.1332V31.1273ZM54.1376 31.1273H55.2489V30.6691H54.1376V31.1273ZM53.1447 31.1273H54.256V30.6691H53.1447V31.1273ZM52.1491 31.1273H53.2604V30.6691H52.1491V31.1273ZM51.1561 31.1273H52.2674V30.6691H51.1561V31.1273ZM49.6358 27.4231C49.6358 27.6405 49.7361 27.7492 49.9394 27.7492C50.14 27.7492 50.2403 27.6405 50.2403 27.4231C50.2403 27.2031 50.14 27.0943 49.9394 27.0943C49.7361 27.0943 49.6358 27.2057 49.6358 27.4231ZM48.7483 27.4231C48.7483 27.6405 48.8486 27.7492 49.0493 27.7492C49.2525 27.7492 49.3529 27.6405 49.3529 27.4231C49.3529 27.2031 49.2525 27.0943 49.0493 27.0943C48.8486 27.0943 48.7483 27.2057 48.7483 27.4231ZM50.0834 28.7432V30.6691H49.4197C48.8898 30.6691 48.6248 30.374 48.6248 29.7864C48.6248 29.4603 48.72 29.2066 48.9104 29.0202C49.1007 28.8364 49.3709 28.7432 49.7181 28.7432H50.0834ZM51.2719 31.1273V30.6691H50.5799V28.2902H49.7027C49.2242 28.2902 48.8384 28.4249 48.5477 28.6941C48.257 28.9633 48.1104 29.3283 48.1104 29.7942C48.1104 30.2109 48.2287 30.5371 48.4653 30.7752C48.702 31.0108 49.0261 31.1299 49.4352 31.1299H51.2719V31.1273Z" fill="#019D82"/>
<path d="M77.2332 39.5089V37.9273L78.4706 35.797H77.9278L77.3979 36.822C77.2564 37.1016 77.1303 37.3449 77.0249 37.5882H77.0146C76.8988 37.3294 76.7908 37.1042 76.6467 36.822L76.1271 35.797H75.5843L76.7496 37.9325V39.5063H77.2332V39.5089ZM73.6472 39.5089H74.1283V36.206H75.255V35.7996H72.523V36.206H73.6446V39.5089H73.6472ZM71.5301 35.797V39.5089H72.006V35.797H71.5301ZM68.2682 39.5089V37.9222C68.2682 37.3061 68.2579 36.8583 68.2296 36.3923L68.245 36.3872C68.4303 36.7884 68.6772 37.2129 68.9345 37.6271L70.1049 39.5115H70.586V35.7996H70.1384V37.3527C70.1384 37.9299 70.1487 38.3829 70.1924 38.8773L70.1821 38.8825C70.0072 38.502 69.7937 38.1111 69.521 37.6762L68.3376 35.7996H67.818V39.5115H68.2682V39.5089ZM64.1651 35.797V37.9843C64.1651 39.1362 64.7336 39.5711 65.4899 39.5711C66.29 39.5711 66.8842 39.1025 66.8842 37.9636V35.7996H66.4032V37.9972C66.4032 38.8178 66.0533 39.1802 65.5054 39.1802C65.014 39.1802 64.6462 38.8281 64.6462 37.9972V35.7996H64.1651V35.797ZM62.8635 39.5089H63.3291L63.1001 35.797H62.493L61.837 37.5934C61.6724 38.0619 61.5412 38.4683 61.4486 38.8437H61.4332C61.3406 38.458 61.2145 38.0516 61.0602 37.5934L60.4299 35.797H59.8228L59.5656 39.5089H60.0209L60.1186 37.917C60.1521 37.3604 60.1778 36.7392 60.1907 36.2758H60.201C60.3039 36.7159 60.4531 37.1948 60.628 37.7177L61.2248 39.4856H61.5849L62.2358 37.684C62.421 37.1715 62.5753 36.7081 62.7014 36.2733H62.7168C62.7117 36.7366 62.7451 37.3579 62.7708 37.8756L62.8635 39.5089ZM58.3539 39.5089H58.8195L58.5906 35.797H57.9835L57.3275 37.5934C57.1629 38.0619 57.0317 38.4683 56.9391 38.8437H56.9236C56.831 38.458 56.705 38.0516 56.5506 37.5934L55.9204 35.797H55.3133L55.056 39.5089H55.5114L55.6091 37.917C55.6426 37.3604 55.6683 36.7392 55.6811 36.2758H55.6914C55.7943 36.7159 55.9435 37.1948 56.1185 37.7177L56.7153 39.4856H57.0754L57.7262 37.684C57.9115 37.1715 58.0658 36.7081 58.1919 36.2733H58.2073C58.2022 36.7366 58.2356 37.3579 58.2613 37.8756L58.3539 39.5089ZM52.746 36.1283C53.5383 36.1283 53.9216 36.8997 53.9216 37.6374C53.9216 38.4787 53.4945 39.1802 52.7382 39.1802C51.9897 39.1802 51.5626 38.4709 51.5626 37.6762C51.5652 36.8609 51.9588 36.1283 52.746 36.1283ZM52.7691 35.7374C51.7839 35.7374 51.0559 36.5088 51.0559 37.6866C51.0559 38.81 51.7401 39.5711 52.7151 39.5711C53.6566 39.5711 54.4284 38.8929 54.4284 37.6167C54.4258 36.514 53.775 35.7374 52.7691 35.7374ZM50.5851 39.0068C50.3947 39.0999 50.0989 39.1621 49.8082 39.1621C48.9104 39.1621 48.3908 38.5771 48.3908 37.6685C48.3908 36.6926 48.9644 36.1387 49.8314 36.1387C50.1375 36.1387 50.3947 36.206 50.5748 36.294L50.6906 35.9031C50.5645 35.8358 50.2738 35.7374 49.8159 35.7374C48.6712 35.7374 47.8892 36.5243 47.8892 37.6866C47.8892 38.9032 48.6712 39.5633 49.7105 39.5633C50.1581 39.5633 50.5105 39.4753 50.6854 39.3873L50.5851 39.0068Z" fill="#019D82"/>
<path d="M116.743 39.3278C116.942 39.4598 117.33 39.5633 117.685 39.5633C118.554 39.5633 118.976 39.0689 118.976 38.4942C118.976 37.9481 118.66 37.6452 118.035 37.4045C117.525 37.2052 117.302 37.0343 117.302 36.6874C117.302 36.4338 117.492 36.1309 117.996 36.1309C118.331 36.1309 118.575 36.2422 118.696 36.3069L118.827 35.9161C118.663 35.8229 118.39 35.7349 118.012 35.7349C117.294 35.7349 116.818 36.1646 116.818 36.7418C116.818 37.2647 117.191 37.5779 117.793 37.7928C118.292 37.9843 118.488 38.1836 118.488 38.5305C118.488 38.9058 118.202 39.1647 117.716 39.1647C117.387 39.1647 117.075 39.0534 116.862 38.9214L116.743 39.3278ZM113.667 39.509V37.9222C113.667 37.3061 113.657 36.8583 113.628 36.3924L113.644 36.3872C113.829 36.7884 114.076 37.2129 114.333 37.6271L115.504 39.5115H115.985V35.7996H115.537V37.3527C115.537 37.9299 115.547 38.3829 115.591 38.8774L115.581 38.8825C115.406 38.502 115.192 38.1111 114.92 37.6763L113.736 35.7996H113.217V39.5115H113.667V39.509ZM110.811 36.1283C111.604 36.1283 111.987 36.8997 111.987 37.6374C111.987 38.4787 111.56 39.1802 110.804 39.1802C110.055 39.1802 109.628 38.471 109.628 37.6763C109.631 36.8609 110.024 36.1283 110.811 36.1283ZM110.835 35.7375C109.849 35.7375 109.121 36.5088 109.121 37.6866C109.121 38.81 109.806 39.5711 110.781 39.5711C111.722 39.5711 112.494 38.8929 112.494 37.6167C112.491 36.514 111.84 35.7375 110.835 35.7375ZM107.923 35.797V39.509H108.398V35.797H107.923ZM105.795 39.509H106.276V36.206H107.403V35.7996H104.671V36.206H105.793V39.509H105.795ZM101.437 35.797V37.9843C101.437 39.1362 102.006 39.5711 102.762 39.5711C103.562 39.5711 104.156 39.1026 104.156 37.9636V35.7996H103.675V37.9972C103.675 38.8178 103.326 39.1802 102.778 39.1802C102.286 39.1802 101.918 38.8282 101.918 37.9972V35.7996H101.437V35.797ZM98.8443 37.7306H99.2379C99.7575 37.7306 100.19 37.9403 100.19 38.4477C100.19 38.9861 99.7344 39.1699 99.243 39.1699C99.0732 39.1699 98.9369 39.1647 98.8443 39.1466V37.7306ZM98.8443 36.1723C98.9215 36.1568 99.0475 36.1387 99.2662 36.1387C99.7472 36.1387 100.076 36.3095 100.076 36.7444C100.076 37.1016 99.7807 37.3656 99.2765 37.3656H98.8443V36.1723ZM98.3684 39.4986C98.5279 39.5219 98.78 39.5426 99.1067 39.5426C99.7086 39.5426 100.125 39.4313 100.383 39.1957C100.568 39.0145 100.694 38.7712 100.694 38.4528C100.694 37.9015 100.282 37.6116 99.9324 37.521V37.5106C100.321 37.3682 100.558 37.0524 100.558 36.6952C100.558 36.4027 100.442 36.1827 100.251 36.0403C100.022 35.8539 99.7164 35.7711 99.2379 35.7711C98.9035 35.7711 98.5768 35.8048 98.3684 35.8488V39.4986ZM96.951 35.797V39.509H97.4269V35.797H96.951ZM94.3733 36.1827C94.4505 36.1594 94.6152 36.1387 94.8441 36.1387C95.3483 36.1439 95.693 36.3535 95.693 36.8324C95.693 37.2569 95.3689 37.5365 94.8621 37.5365H94.3759V36.1827H94.3733ZM93.8974 39.509H94.3733V37.9015H94.821C95.2531 37.917 95.4512 38.1111 95.5593 38.6237C95.6622 39.087 95.7445 39.4054 95.8062 39.5115H96.2976C96.2204 39.3692 96.1329 39.0094 96.012 38.4917C95.9245 38.106 95.7548 37.8419 95.4692 37.7436V37.728C95.8577 37.596 96.1638 37.2699 96.1638 36.7806C96.1638 36.4933 96.0609 36.2422 95.8731 36.0765C95.6441 35.8669 95.3149 35.7737 94.8055 35.7737C94.4763 35.7737 94.1315 35.8022 93.8923 35.8513V39.509H93.8974ZM91.77 39.509H92.2511V36.206H93.3778V35.7996H90.6459V36.206H91.7675V39.509H91.77ZM87.8084 39.509V37.9222C87.8084 37.3061 87.7981 36.8583 87.7698 36.3924L87.7853 36.3872C87.9705 36.7884 88.2175 37.2129 88.4747 37.6271L89.6452 39.5115H90.1262V35.7996H89.6786V37.3527C89.6786 37.9299 89.6889 38.3829 89.7326 38.8774L89.7223 38.8825C89.5474 38.502 89.3339 38.1111 89.0612 37.6763L87.8779 35.7996H87.3583V39.5115H87.8084V39.509ZM84.953 36.1283C85.7453 36.1283 86.1286 36.8997 86.1286 37.6374C86.1286 38.4787 85.7016 39.1802 84.9453 39.1802C84.1967 39.1802 83.7697 38.471 83.7697 37.6763C83.7697 36.8609 84.1633 36.1283 84.953 36.1283ZM84.9736 35.7375C83.9883 35.7375 83.2603 36.5088 83.2603 37.6866C83.2603 38.81 83.9446 39.5711 84.9196 39.5711C85.8611 39.5711 86.6328 38.8929 86.6328 37.6167C86.6328 36.514 85.982 35.7375 84.9736 35.7375ZM82.7921 39.0068C82.6018 39.1 82.3059 39.1621 82.0153 39.1621C81.1175 39.1621 80.5978 38.5771 80.5978 37.6685C80.5978 36.6926 81.1715 36.1387 82.0384 36.1387C82.3445 36.1387 82.6018 36.206 82.7818 36.294L82.8976 35.9031C82.7716 35.8358 82.4809 35.7375 82.023 35.7375C80.8782 35.7375 80.0962 36.5244 80.0962 37.6866C80.0962 38.9032 80.8782 39.5633 81.9175 39.5633C82.3651 39.5633 82.7175 39.4753 82.8925 39.3873L82.7921 39.0068Z" fill="#019D82"/>
<path d="M145.535 39.5089H146.001L145.772 35.797H145.165L144.509 37.5934C144.344 38.0619 144.213 38.4683 144.12 38.8437H144.105C144.012 38.458 143.886 38.0516 143.732 37.5934L143.101 35.797H142.494L142.237 39.5089H142.692L142.79 37.917C142.824 37.3604 142.849 36.7392 142.862 36.2758H142.872C142.975 36.7159 143.125 37.1948 143.3 37.7177L143.896 39.4856H144.256L144.907 37.684C145.093 37.1715 145.247 36.7081 145.373 36.2733H145.388C145.383 36.7366 145.417 37.3579 145.442 37.8756L145.535 39.5089ZM139.757 36.1827C139.834 36.1594 139.999 36.1387 140.228 36.1387C140.732 36.1438 141.077 36.3535 141.077 36.8324C141.077 37.2569 140.753 37.5365 140.246 37.5365H139.76V36.1827H139.757ZM139.281 39.5089H139.757V37.9014H140.205C140.637 37.917 140.835 38.1111 140.943 38.6237C141.046 39.087 141.128 39.4054 141.19 39.5115H141.681C141.604 39.3692 141.517 39.0093 141.396 38.4916C141.308 38.1059 141.139 37.8419 140.853 37.7435V37.728C141.242 37.596 141.548 37.2698 141.548 36.7806C141.548 36.4933 141.445 36.2422 141.257 36.0765C141.028 35.8669 140.699 35.7737 140.189 35.7737C139.86 35.7737 139.515 35.8021 139.276 35.8513V39.5089H139.281ZM136.873 36.1283C137.666 36.1283 138.049 36.8997 138.049 37.6374C138.049 38.4787 137.622 39.1802 136.866 39.1802C136.117 39.1802 135.69 38.4709 135.69 37.6762C135.693 36.8609 136.086 36.1283 136.873 36.1283ZM136.897 35.7374C135.911 35.7374 135.183 36.5088 135.183 37.6866C135.183 38.81 135.868 39.5711 136.843 39.5711C137.784 39.5711 138.556 38.8929 138.556 37.6167C138.553 36.514 137.902 35.7374 136.897 35.7374ZM132.626 39.5089H133.102V37.829H134.497V37.4329H133.102V36.1982H134.612V35.797H132.626V39.5089ZM130.499 39.5089H130.98V36.206H132.107V35.7996H129.375V36.206H130.496V39.5089H130.499ZM127.456 37.9662L127.816 36.8919C127.888 36.6667 127.947 36.4415 128.001 36.2189H128.011C128.065 36.4337 128.122 36.6538 128.202 36.8971L128.562 37.9662H127.456ZM128.667 38.3415L129.061 39.5089H129.57L128.312 35.797H127.739L126.486 39.5089H126.977L127.361 38.3415H128.667ZM124.07 39.5089H126.123V39.1077H124.546V35.797H124.07V39.5089ZM121.526 36.1878C121.609 36.1645 121.768 36.149 121.974 36.149C122.499 36.149 122.843 36.3846 122.843 36.8764C122.843 37.3889 122.493 37.6685 121.917 37.6685C121.758 37.6685 121.627 37.6581 121.524 37.6296V36.1878H121.526ZM121.05 39.5089H121.526V38.0231C121.637 38.0516 121.768 38.0568 121.909 38.0568C122.375 38.0568 122.784 37.9196 123.036 37.6504C123.221 37.4588 123.322 37.1922 123.322 36.8583C123.322 36.5269 123.201 36.2577 122.998 36.0817C122.779 35.8824 122.434 35.7737 121.964 35.7737C121.58 35.7737 121.279 35.8073 121.05 35.8461V39.5089Z" fill="#019D82"/>
<path d="M98.0366 17.1568L97.6533 15.1196H103.326C104.241 15.1196 104.941 14.8918 105.43 14.4388C105.916 13.9858 106.16 13.3439 106.16 12.513L106.137 11.2006C106.122 10.2791 105.795 9.53355 105.157 8.9589C104.519 8.38424 103.706 8.0995 102.716 8.0995H101.389V6.10632H103.122C104.563 6.10632 105.741 6.55155 106.654 7.44201C107.57 8.33247 108.036 9.50249 108.051 10.9521L108.074 12.8106C108.059 14.2007 107.65 15.2723 106.847 16.0256C106.045 16.7815 104.864 17.1568 103.302 17.1568H98.0366Z" fill="#019D82"/>
<path d="M120.88 15.117C121.029 15.117 121.106 15.1843 121.106 15.3215V16.929C121.106 17.0791 121.032 17.1542 120.88 17.1542H119.553C119.282 20.4002 116.491 22.0233 111.182 22.0233L110.958 20.3692C113.044 20.3692 114.642 20.1129 115.75 19.5978C116.862 19.0853 117.492 18.2699 117.641 17.1516H114.94C113.35 17.1516 112.074 16.665 111.115 15.6917C110.155 14.7184 109.674 13.4086 109.674 11.7623C109.674 10.147 110.166 8.82687 111.148 7.79922C112.131 6.77156 113.374 6.25903 114.873 6.25903C116.268 6.25903 117.402 6.72238 118.271 7.65167C119.141 8.58095 119.576 9.80792 119.576 11.3326V15.117H120.88ZM111.452 11.6769C111.452 12.808 111.789 13.6778 112.465 14.2809C113.139 14.8841 114.047 15.1869 115.19 15.1869C115.671 15.1869 116.494 15.1714 117.664 15.1429V11.4957C117.664 10.5146 117.389 9.72509 116.844 9.12973C116.296 8.53436 115.578 8.23409 114.693 8.23409C113.762 8.23409 112.99 8.55248 112.375 9.18667C111.758 9.81828 111.452 10.6492 111.452 11.6769Z" fill="#019D82"/>
<path d="M125.246 15.1171C125.395 15.1171 125.469 15.1844 125.469 15.3216V16.929C125.469 17.0818 125.395 17.1542 125.246 17.1542H120.88C120.731 17.1542 120.656 17.0792 120.656 16.929V15.3216C120.656 15.1844 120.731 15.1171 120.88 15.1171H125.246Z" fill="#019D82"/>
<path d="M127.751 15.1171C127.9 15.1171 127.975 15.1844 127.975 15.3216V16.929C127.975 17.0818 127.9 17.1542 127.751 17.1542H125.245C125.096 17.1542 125.021 17.0792 125.021 16.929V15.3216C125.021 15.1844 125.096 15.1171 125.245 15.1171H127.751Z" fill="#019D82"/>
<path d="M133.233 15.1171C133.382 15.1171 133.457 15.1844 133.457 15.3216V16.929C133.457 17.0818 133.382 17.1542 133.233 17.1542H127.751C127.602 17.1542 127.527 17.0792 127.527 16.929V15.3216C127.527 15.1844 127.602 15.1171 127.751 15.1171H133.233Z" fill="#019D82"/>
<path d="M137.195 6.46619C138.17 6.46619 139.201 6.79234 140.289 7.43948C141.377 8.0892 143.204 9.48443 145.769 11.6303L145.475 13.5096C143.134 14.7625 141.007 15.684 139.096 16.2716C137.182 16.8592 135.237 17.1543 133.256 17.1543C133.092 17.1543 133.009 17.0792 133.009 16.9291V15.3216C133.009 15.1844 133.092 15.1171 133.256 15.1171C136.721 15.1171 140.24 14.2422 143.811 12.4897C141.877 10.8589 140.446 9.77952 139.523 9.25146C138.599 8.7234 137.725 8.45936 136.901 8.45936C136.557 8.45936 135.821 8.58103 134.697 8.82176L134.314 7.10038C135.425 6.67845 136.384 6.46619 137.195 6.46619ZM137.982 20.4624L139.602 18.8084L141.29 20.4624L139.646 22.0932L137.982 20.4624Z" fill="#019D82"/>
<path d="M54.8346 5.146V13.2559C54.8346 14.5088 54.4694 15.4717 53.7362 16.1447C53.003 16.8177 51.9329 17.1542 50.5283 17.1542C49.6048 17.1542 48.6607 17.0378 47.6909 16.8074L47.9507 15.1015C48.6324 15.3216 49.4273 15.4329 50.338 15.4329C51.0634 15.4329 51.6499 15.2543 52.0924 14.8919C52.5374 14.532 52.7587 13.9755 52.7587 13.2222V6.86997H49.4016V5.146H54.8346Z" fill="#019D82"/>
<path d="M67.2188 15.4252C66.0998 16.5797 64.5718 17.1569 62.6347 17.1569C60.6976 17.1569 59.167 16.5797 58.0429 15.4252C56.9187 14.2707 56.3579 12.8185 56.3579 11.0661C56.3579 9.31362 56.9213 7.86144 58.0429 6.70695C59.167 5.55246 60.6976 4.97522 62.6347 4.97522C64.5615 4.97522 66.087 5.55246 67.2086 6.70695C68.3327 7.86144 68.8961 9.3162 68.8961 11.0661C68.8961 12.8159 68.3379 14.2707 67.2188 15.4252ZM65.6625 7.89768C64.9242 7.09782 63.9107 6.6966 62.6167 6.6966C61.3253 6.6966 60.3092 7.09782 59.5735 7.89768C58.8352 8.69754 58.4673 9.75367 58.4673 11.0661C58.4673 12.3784 58.8352 13.432 59.5735 14.2344C60.3118 15.0343 61.3253 15.4355 62.6167 15.4355C63.9081 15.4355 64.9242 15.0343 65.6625 14.2344C66.4008 13.4346 66.7687 12.3784 66.7687 11.0661C66.7687 9.75367 66.4008 8.69754 65.6625 7.89768Z" fill="#019D82"/>
<path d="M80.7623 15.4252C79.6433 16.5797 78.1152 17.1569 76.1782 17.1569C74.2411 17.1569 72.7105 16.5797 71.5863 15.4252C70.4622 14.2707 69.9014 12.8185 69.9014 11.0661C69.9014 9.31362 70.4622 7.86144 71.5863 6.70695C72.7105 5.55246 74.2411 4.97522 76.1782 4.97522C78.1049 4.97522 79.6304 5.55246 80.752 6.70695C81.8762 7.86144 82.4395 9.3162 82.4395 11.0661C82.4395 12.8159 81.8813 14.2707 80.7623 15.4252ZM79.206 7.89768C78.4677 7.09782 77.4541 6.6966 76.1602 6.6966C74.8688 6.6966 73.8527 7.09782 73.1169 7.89768C72.3786 8.69754 72.0108 9.75367 72.0108 11.0661C72.0108 12.3784 72.3786 13.432 73.1169 14.2344C73.8552 15.0343 74.8688 15.4355 76.1602 15.4355C77.4515 15.4355 78.4677 15.0343 79.206 14.2344C79.9442 13.4346 80.3121 12.3784 80.3121 11.0661C80.3121 9.75367 79.9442 8.69754 79.206 7.89768Z" fill="#019D82"/>
<path d="M84.0835 16.9834V5.146H88.4258C90.3526 5.146 91.8755 5.69994 93.0022 6.80784C94.1264 7.91574 94.6872 9.33426 94.6872 11.0634C94.6872 12.8029 94.1238 14.2266 93.0022 15.3267C91.8781 16.4294 90.3526 16.9808 88.4258 16.9808H84.0835V16.9834ZM88.4258 15.2594C89.7069 15.2594 90.7153 14.8815 91.4536 14.1282C92.1919 13.375 92.5598 12.3525 92.5598 11.066C92.5598 9.77949 92.1893 8.75701 91.4536 8.00375C90.7153 7.25048 89.7069 6.87255 88.4258 6.87255H86.1595V15.262H88.4258V15.2594Z" fill="#019D82"/>
<path d="M22.3139 46.6145C22.103 46.6145 21.8946 46.6093 21.6888 46.6015L20.647 46.5575V18.1017C20.647 18.0214 20.6573 17.936 20.6804 17.8454C20.8785 14.2939 22.067 10.8615 24.1224 7.91576C26.3347 4.73962 29.4113 2.2805 33.0179 0.805036C33.7254 0.512531 34.4662 0.253677 35.2225 0.0414167C35.3177 0.0155312 35.418 0 35.5184 0C36.002 0 36.4316 0.328745 36.5628 0.797271C36.6425 1.07942 36.6065 1.37452 36.465 1.62819C36.3235 1.88187 36.0895 2.06566 35.8116 2.1459C35.1376 2.33745 34.4765 2.56524 33.8437 2.82928C27.145 5.56795 22.8207 11.8866 22.8207 18.9222V23.4858C23.3635 22.3495 24.0015 21.2571 24.7269 20.2243C27.3354 16.5149 30.9317 13.7141 35.1325 12.1221C35.256 12.0755 35.3846 12.0522 35.5158 12.0522C35.966 12.0522 36.375 12.337 36.5319 12.7615C36.7429 13.3258 36.4573 13.9574 35.8991 14.1697C28.0788 17.131 22.8233 24.7439 22.8233 33.1126V44.4142C24.0555 44.3624 25.262 44.1243 26.4196 43.7023C30.2757 42.2916 33.1491 39.0533 34.1009 35.0385C34.3196 34.1222 34.4302 33.1773 34.4302 32.2351V21.5444C30.4583 23.6282 27.8987 27.8061 27.8756 32.3076C27.873 32.9081 27.3842 33.3948 26.7874 33.3948C26.4916 33.3922 26.2189 33.2783 26.0157 33.0712C25.8099 32.8641 25.6993 32.5897 25.7019 32.2972C25.7327 26.3048 29.5271 20.8999 35.1454 18.8446L36.6039 18.3113V32.6337C36.6039 38.4942 32.8044 43.78 27.1502 45.7861C25.5964 46.3349 23.9706 46.6145 22.3139 46.6145Z" fill="#019D82"/>
<path d="M14.2874 46.6145C12.6308 46.6145 11.005 46.3375 9.45378 45.7887C3.79951 43.7826 -1.49439e-05 38.4968 -1.49439e-05 32.6337V18.3113L1.45857 18.8446C7.07682 20.8973 10.8712 26.3048 10.9021 32.2972C10.9046 32.5897 10.7915 32.8641 10.5882 33.0712C10.385 33.2783 10.1123 33.3948 9.82164 33.3948C9.21968 33.3948 8.73349 32.9055 8.72834 32.3076C8.70519 27.8061 6.14817 23.6282 2.17371 21.5444V32.2351C2.17371 37.3423 5.39443 41.9499 10.1844 43.7023C11.3394 44.1243 12.5484 44.3624 13.7807 44.4142V33.1126C13.7807 24.7439 8.52512 17.131 0.704839 14.1697C0.432158 14.0661 0.216072 13.8642 0.0977386 13.5976C-0.0231671 13.331 -0.0308845 13.0359 0.0694415 12.7615C0.228934 12.337 0.635383 12.0522 1.08556 12.0522C1.21676 12.0522 1.34538 12.0755 1.46886 12.1221C5.66969 13.7115 9.26599 16.5149 11.8745 20.2243C12.5999 21.2545 13.2379 22.3495 13.7807 23.4858V18.9222C13.7807 11.884 9.45635 5.56795 2.76538 2.82928C2.12998 2.56783 1.46629 2.33745 0.792303 2.1459C0.514477 2.06824 0.280383 1.88446 0.138898 1.62819C-0.00258741 1.37193 -0.0386019 1.07942 0.0411444 0.797271C0.17234 0.328745 0.601941 0 1.08814 0C1.18589 0 1.28622 0.0129427 1.3814 0.0414167C2.13513 0.256266 2.87857 0.512531 3.59114 0.807625C7.19259 2.2805 10.2692 4.73962 12.4816 7.91576C14.5344 10.8615 15.7229 14.2939 15.9235 17.8454C15.9467 17.9386 15.957 18.0188 15.957 18.1017V46.5549L15.7049 46.5679L14.9125 46.6015C14.7067 46.6093 14.4984 46.6145 14.2874 46.6145Z" fill="#019D82"/>
</g>
<defs>
<clipPath id="clip0_1289_59390">
<rect width="146" height="46.6145" fill="white"/>
</clipPath>
</defs>
</svg>
