<svg width="41" height="36" viewBox="0 0 41 36" fill="none" xmlns="http://www.w3.org/2000/svg">
<g clip-path="url(#clip0_241_964)">
<path d="M9.42942 36C8.88258 35.9986 8.35722 35.7973 7.96199 35.4375C7.56676 35.0777 7.3319 34.5871 7.30601 34.0671L7.10464 29.8671H3.59781C2.64395 29.866 1.72949 29.5048 1.05501 28.8627C0.380529 28.2207 0.0011168 27.3501 0 26.4421L0 3.42583C0.000848842 2.51763 0.380148 1.64685 1.05466 1.00458C1.72917 0.36231 2.64379 0.00102109 3.59781 0H37.4022C38.3562 0.00110615 39.2707 0.362432 39.9451 1.00469C40.6196 1.64695 40.9988 2.51769 40.9997 3.42583V26.4419C40.9986 27.35 40.6192 28.2205 39.9447 28.8626C39.2702 29.5047 38.3557 29.8659 37.4019 29.8669H32.9314C32.5985 29.8596 32.2818 29.7286 32.049 29.5019C31.8163 29.2752 31.686 28.9707 31.686 28.6537C31.686 28.3367 31.8163 28.0323 32.049 27.8056C32.2818 27.5789 32.5985 27.4479 32.9314 27.4406H37.4025C37.6805 27.4403 37.947 27.335 38.1435 27.1479C38.34 26.9608 38.4506 26.7071 38.4509 26.4425V3.42583C38.4506 3.16123 38.34 2.90755 38.1435 2.72045C37.947 2.53335 37.6805 2.42811 37.4025 2.42781H3.59781C3.31974 2.42794 3.05309 2.53311 2.85641 2.72023C2.65972 2.90735 2.54908 3.16112 2.54876 3.42583V26.4421C2.54908 26.7067 2.65963 26.9603 2.85617 27.1474C3.05271 27.3345 3.31919 27.4398 3.59713 27.4401H8.32265C8.65068 27.44 8.96609 27.5604 9.20327 27.7761C9.44044 27.9919 9.58111 28.2864 9.59601 28.5983L9.82034 33.2756L19.6272 27.6159C19.8265 27.5008 20.0551 27.44 20.2882 27.4401H27.7066C28.0395 27.4474 28.3562 27.5784 28.5889 27.8051C28.8217 28.0318 28.952 28.3363 28.952 28.6533C28.952 28.9703 28.8217 29.2747 28.5889 29.5014C28.3562 29.7281 28.0395 29.8591 27.7066 29.8664H20.6433L10.5299 35.7045C10.1985 35.8971 9.81777 35.9993 9.42942 36Z" fill="black"/>
<path d="M38.3624 5.04041L21.7318 17.112C21.3778 17.3688 20.9451 17.5079 20.5001 17.5079C20.055 17.5079 19.6223 17.3688 19.2684 17.112L2.63763 5.04041C1.09166 3.91833 1.92533 1.56878 3.86981 1.56878H37.1309C39.0748 1.56878 39.9085 3.91849 38.3624 5.04041Z" fill="#8AA399"/>
<path d="M20.4997 18.7216C19.7755 18.7202 19.0716 18.4939 18.4949 18.0769L1.86415 6.00485C1.31437 5.60552 0.909962 5.05212 0.707842 4.42254C0.505723 3.79296 0.516068 3.11889 0.737421 2.4952C0.958774 1.87151 1.37999 1.3296 1.94179 0.945729C2.5036 0.561857 3.1777 0.355353 3.86924 0.355278H37.1304C37.8219 0.355453 38.496 0.56203 39.0577 0.94594C39.6194 1.32985 40.0406 1.87177 40.2618 2.49543C40.4831 3.1191 40.4934 3.79312 40.2913 4.42266C40.0892 5.05219 39.6848 5.60554 39.135 6.00485L22.5043 18.0764C21.9277 18.4935 21.2238 18.72 20.4997 18.7216ZM3.86924 2.78148C3.71092 2.78145 3.55658 2.82869 3.42795 2.91656C3.29931 3.00442 3.20287 3.12848 3.1522 3.27127C3.10152 3.41406 3.09917 3.56838 3.14547 3.71251C3.19177 3.85663 3.28439 3.9833 3.41029 4.07468L20.0411 16.1462C20.1729 16.2419 20.334 16.2937 20.4998 16.2937C20.6655 16.2937 20.8267 16.2419 20.9585 16.1462L37.5894 4.07452C37.7153 3.98314 37.8079 3.85647 37.8542 3.71234C37.9005 3.56822 37.8982 3.4139 37.8475 3.27111C37.7968 3.12832 37.7004 3.00426 37.5717 2.9164C37.4431 2.82853 37.2888 2.78129 37.1304 2.78132L3.86924 2.78148Z" fill="black"/>
</g>
<defs>
<clipPath id="clip0_241_964">
<rect width="41" height="36" fill="white"/>
</clipPath>
</defs>
</svg>
